<svg width="16" height="16" viewBox="0 0 16 16" fill="none" xmlns="http://www.w3.org/2000/svg">
<path d="M11.9993 0.00332907L9.92451 0C7.59352 0 6.08713 1.54552 6.08713 3.93762V5.75313H4.00099C3.82072 5.75313 3.67474 5.89927 3.67474 6.07954V8.71001C3.67474 8.89028 3.82089 9.03625 4.00099 9.03625H6.08713V15.6738C6.08713 15.854 6.23311 16 6.41337 16H9.13519C9.31546 16 9.46144 15.8539 9.46144 15.6738V9.03625H11.9006C12.0809 9.03625 12.2269 8.89028 12.2269 8.71001L12.2279 6.07954C12.2279 5.99299 12.1934 5.91009 12.1323 5.84884C12.0712 5.78758 11.988 5.75313 11.9015 5.75313H9.46144V4.2141C9.46144 3.47438 9.63771 3.09886 10.6013 3.09886L11.999 3.09836C12.1791 3.09836 12.3251 2.95222 12.3251 2.77211V0.329578C12.3251 0.149642 12.1793 0.00366197 11.9993 0.00332907Z" fill="white"/>
</svg>
