<svg width="16" height="17" viewBox="0 0 16 17" fill="none" xmlns="http://www.w3.org/2000/svg">
<g clip-path="url(#clip0)">
<path d="M15.753 1.60414C15.5574 1.36291 15.2647 1.22998 14.9287 1.22998C14.7458 1.22998 14.5523 1.26891 14.3533 1.34554L0.809562 6.56344C0.0908146 6.84027 -0.00598682 7.2557 0.000238734 7.47882C0.00646429 7.70181 0.126459 8.11108 0.859611 8.34639C0.864005 8.34787 0.8684 8.3491 0.872794 8.35046L2.7722 8.89894L12.0227 4.12925C12.2531 4.01024 12.5356 4.10264 12.6534 4.33536C12.7459 4.51819 12.7088 4.73305 12.577 4.87449L12.5773 4.87486L7.43405 10.3904L7.28732 10.9905L9.12399 12.4832L11.6691 14.5516C11.6713 14.5533 11.6735 14.5552 11.6759 14.5569C11.9559 14.7762 12.2618 14.892 12.5605 14.8921C13.1442 14.8921 13.609 14.4561 13.7443 13.7815L15.9634 2.72255C16.0524 2.27878 15.9777 1.88146 15.753 1.60414Z" fill="white"/>
<path d="M6.55359 10.0431C6.57226 9.96657 6.60986 9.89363 6.66711 9.83215L10.042 6.21289L3.77942 9.44198L5.20142 13.5464C5.28247 13.7802 5.40308 13.9793 5.55225 14.1352L6.55334 10.043L6.55359 10.0431Z" fill="white"/>
<path d="M6.42502 14.5152C6.76303 14.5124 7.09518 14.3685 7.3862 14.0981L8.4266 13.1312L7.0394 12.0039L6.42502 14.5152Z" fill="white"/>
</g>
<defs>
<clipPath id="clip0">
<rect width="16" height="16.1481" fill="white"/>
</clipPath>
</defs>
</svg>
