<svg width="16" height="16" viewBox="0 0 16 16" fill="none" xmlns="http://www.w3.org/2000/svg">
<path d="M15.3764 3.33672C14.7988 2.65017 13.7325 2.37012 11.6961 2.37012H4.30379C2.22075 2.37012 1.13636 2.66823 0.560981 3.39918C0 4.11185 0 5.16191 0 6.61523V9.38524C0 12.2008 0.6656 13.6303 4.30379 13.6303H11.6961C13.4621 13.6303 14.4407 13.3832 15.0738 12.7773C15.723 12.156 16 11.1415 16 9.38524V6.61523C16 5.08258 15.9566 4.02632 15.3764 3.33672ZM10.2721 8.38266L6.91525 10.137C6.84021 10.1763 6.75814 10.1957 6.67618 10.1957C6.58338 10.1957 6.49079 10.1707 6.40877 10.1211C6.25435 10.0275 6.16005 9.86013 6.16005 9.67959V6.18209C6.16005 6.00186 6.25409 5.83463 6.40821 5.74101C6.56237 5.64738 6.75412 5.64098 6.91406 5.72408L10.2709 7.46715C10.4417 7.55582 10.5489 7.73213 10.5492 7.92449C10.5494 8.11701 10.4426 8.29358 10.2721 8.38266Z" fill="white"/>
</svg>
