<svg width="70" height="70" viewBox="0 0 70 70" fill="none" xmlns="http://www.w3.org/2000/svg">
<path d="M65.4839 38.387H33.871V18.0645H65.4839V38.387Z" fill="#EC681F"/>
<path d="M55.3226 13.5484V0H14.6774V58.7097H5.64516C2.53242 58.7097 0 61.2421 0 64.3548C0 67.4676 2.53242 70 5.64516 70H44.0323H44.3326H70V13.5484H55.3226ZM34.7347 13.5484L53.0645 3.07435V13.5484H34.7347ZM42.9032 60.9677V63.2258H15.8065V65.4839H42.9032V67.7419H11.2903V65.4839H13.5484V63.2258H11.2903V60.9677H42.9032ZM45.1613 61.784L49.6594 64.3548L45.1613 66.9256V61.784ZM2.25806 64.3548C2.25806 62.4874 3.77774 60.9677 5.64516 60.9677H9.03226V67.7419H5.64516C3.77774 67.7419 2.25806 66.2223 2.25806 64.3548ZM67.7419 67.7419H48.2842L54.2116 64.3548L44.3326 58.7097H31.6129V56.4516H29.3548V58.7097H16.9355V2.25806H49.9427L29.3548 14.0226V54.1936H31.6129V15.8065H67.7419V67.7419Z" fill="#131A22"/>
<path d="M48.5484 40.645H33.871V42.9031H48.5484V40.645Z" fill="#131A22"/>
<path d="M48.5484 45.1611H38.3871V47.4192H48.5484V45.1611Z" fill="#131A22"/>
<path d="M48.5484 49.6772H33.871V51.9353H48.5484V49.6772Z" fill="#131A22"/>
<path d="M48.5484 54.1934H33.871V56.4514H48.5484V54.1934Z" fill="#131A22"/>
<path d="M65.4839 40.645H50.8065V42.9031H65.4839V40.645Z" fill="#131A22"/>
<path d="M65.4839 45.1611H50.8065V47.4192H65.4839V45.1611Z" fill="#131A22"/>
<path d="M65.4839 49.6772H50.8065V51.9353H65.4839V49.6772Z" fill="#131A22"/>
<path d="M60.9677 54.1934H50.8065V56.4514H60.9677V54.1934Z" fill="#131A22"/>
<path d="M36.129 45.1611H33.871V47.4192H36.129V45.1611Z" fill="#131A22"/>
<path d="M65.4839 54.1934H63.2258V56.4514H65.4839V54.1934Z" fill="#131A22"/>
</svg>
