<svg width="70" height="70" viewBox="0 0 70 70" fill="none" xmlns="http://www.w3.org/2000/svg">
<path d="M50.8065 54.1934V59.8385H42.9032V65.4837H65.4839V54.1934H50.8065Z" fill="#EC681F"/>
<path d="M35 31.6131H10.1613C8.29409 31.6131 6.7742 30.0932 6.7742 28.226V10.1615C6.7742 8.29431 8.29409 6.77441 10.1613 6.77441H35C36.8672 6.77441 38.3871 8.29431 38.3871 10.1615V28.226C38.3871 30.0932 36.8672 31.6131 35 31.6131Z" fill="#EC681F"/>
<path d="M47.8505 33.871L45.5924 38.3871H45.1613V0H0V46.7578L11.9519 58.7097H20.3226V66.6129C20.3226 68.4801 21.8425 70 23.7097 70H66.6129C68.4801 70 70 68.4801 70 66.6129V33.871H47.8505ZM11.2903 54.8551L3.85459 47.4194H11.2903V54.8551ZM13.5484 56.4516V45.1613H2.25806V2.25806H42.9032V38.3871H20.3226V56.4516H13.5484ZM66.6129 67.7419H23.7097C23.0878 67.7419 22.5806 67.2359 22.5806 66.6129V45.1613H57.5806V42.9032H22.5806V40.6452H46.9883L49.2463 36.129H67.7419V42.9032H59.8387V45.1613H67.7419V66.6129C67.7419 67.2359 67.2348 67.7419 66.6129 67.7419Z" fill="#131A22"/>
<path d="M24.6221 22.5808L27.9358 23.9061C28.7969 24.2507 29.3548 25.0738 29.3548 26.0027V31.6131H31.6129V26.0027C31.6129 24.1459 30.4988 22.4998 28.7743 21.8096L26.5686 20.9281C27.5913 19.9049 28.2258 18.4925 28.2258 16.9357C28.2258 13.8231 25.6932 11.2905 22.5806 11.2905C19.4681 11.2905 16.9355 13.8231 16.9355 16.9357C16.9355 18.4925 17.57 19.9049 18.5926 20.9281L16.387 21.8107C14.6625 22.4998 13.5484 24.1459 13.5484 26.0027V31.6131H15.8064V26.0027C15.8064 25.0738 16.3644 24.2507 17.2255 23.9061L20.5392 22.5808H24.6221ZM22.5806 13.5486C24.4478 13.5486 25.9677 15.0685 25.9677 16.9357C25.9677 18.8029 24.4478 20.3228 22.5806 20.3228C20.7134 20.3228 19.1935 18.8029 19.1935 16.9357C19.1935 15.0685 20.7134 13.5486 22.5806 13.5486Z" fill="#131A22"/>
<path d="M50.8065 54.1934H53.0645V56.4514H50.8065V54.1934Z" fill="#131A22"/>
<path d="M55.3226 54.1934H65.4839V56.4514H55.3226V54.1934Z" fill="#131A22"/>
<path d="M55.3226 58.7095H65.4839V60.9675H55.3226V58.7095Z" fill="#131A22"/>
<path d="M42.9032 58.7095H53.0645V60.9675H42.9032V58.7095Z" fill="#131A22"/>
<path d="M42.9032 63.2256H53.0645V65.4837H42.9032V63.2256Z" fill="#131A22"/>
<path d="M63.2258 63.2256H65.4839V65.4837H63.2258V63.2256Z" fill="#131A22"/>
<path d="M55.3226 63.2256H60.9677V65.4837H55.3226V63.2256Z" fill="#131A22"/>
</svg>
