<svg width="70" height="70" viewBox="0 0 70 70" fill="none" xmlns="http://www.w3.org/2000/svg">
<g clip-path="url(#clip0)">
<path d="M69.8217 33.6613L35 69.6438L0.178162 33.6613L14.107 16.2505H55.8931L69.8217 33.6613Z" fill="#EC681F"/>
<path d="M69.8217 32.5003H48.5421L56.918 16.7968L54.8681 15.7045L46.4958 31.4023L35.9658 15.6072L35 16.2502L34.0343 15.606L23.5042 31.4011L15.132 15.7033L13.082 16.7956L21.4579 32.5003H0.178162V34.8219H22.5476L33.8948 70L34.9998 69.6437L36.1048 70L47.452 34.8219H69.8214V32.5003H69.8217ZM44.439 32.5003H25.5609L34.9998 18.343L44.439 32.5003ZM35 65.8618L24.9876 34.8216H45.0137L35 65.8618Z" fill="#131A22"/>
<path d="M33.8391 9.28573H36.1607V5.80352H39.6429V3.48221H36.1607V0H33.8391V3.48221H30.3571V5.80352H33.8391V9.28573Z" fill="#131A22"/>
<path d="M57.0537 12.7682H59.3753V9.28594H62.8575V6.96463H59.3753V3.48242H57.0537V6.96463H53.5715V9.28594H57.0537V12.7682Z" fill="#131A22"/>
<path d="M10.6248 12.7682H12.9461V9.28594H16.4283V6.96463H12.9461V3.48242H10.6248V6.96463H7.14258V9.28594H10.6248V12.7682Z" fill="#131A22"/>
</g>
<defs>
<clipPath id="clip0">
<rect width="70" height="70" fill="white"/>
</clipPath>
</defs>
</svg>
