<svg width="70" height="70" viewBox="0 0 70 70" fill="none" xmlns="http://www.w3.org/2000/svg">
<path d="M36.0938 59.0625H64.5312V63.4375H36.0938V59.0625Z" fill="#EC681F"/>
<path d="M16.4062 37.1875H29.5312V45.9375H16.4062V37.1875Z" fill="#EC681F"/>
<path d="M60.7862 28.4374L48.5264 7.26025L23.6753 21.4615L27.5505 28.4374H60.7862Z" fill="#EC681F"/>
<path d="M39.375 55.7812H61.25C63.0591 55.7812 64.5312 54.3091 64.5312 52.5V35C64.5312 33.1909 63.0591 31.7188 61.25 31.7188H39.375C37.5659 31.7188 36.0938 33.1909 36.0938 35V52.5C36.0938 54.3091 37.5659 55.7812 39.375 55.7812ZM47.0312 41.5625C47.0312 39.7534 48.5034 38.2812 50.3125 38.2812C52.1216 38.2812 53.5938 39.7534 53.5938 41.5625C53.5938 43.3716 52.1216 44.8438 50.3125 44.8438C48.5034 44.8438 47.0312 43.3716 47.0312 41.5625ZM42.7438 53.5938C43.2775 49.8892 46.4636 47.0312 50.3125 47.0312C54.1614 47.0312 57.3475 49.8892 57.8812 53.5938H42.7438ZM38.2812 35C38.2812 34.3973 38.7713 33.9062 39.375 33.9062H61.25C61.8538 33.9062 62.3438 34.3973 62.3438 35V52.5C62.3438 53.1027 61.8538 53.5938 61.25 53.5938H60.0917C59.687 49.9494 57.2841 46.9022 54.0061 45.5689C55.09 44.5692 55.7812 43.1495 55.7812 41.5625C55.7812 38.547 53.328 36.0938 50.3125 36.0938C47.297 36.0938 44.8438 38.547 44.8438 41.5625C44.8438 43.1495 45.535 44.5692 46.6189 45.5689C43.3409 46.9022 40.938 49.9483 40.5333 53.5938H39.375C38.7713 53.5938 38.2812 53.1027 38.2812 52.5V35Z" fill="#131A22"/>
<path d="M36.0938 57.9688H64.5312V60.1562H36.0938V57.9688Z" fill="#131A22"/>
<path d="M36.0938 62.3438H64.5312V64.5312H36.0938V62.3438Z" fill="#131A22"/>
<path d="M7.65625 33.9062H9.84375V36.0938H7.65625V33.9062Z" fill="#131A22"/>
<path d="M7.65625 38.2812H9.84375V40.4688H7.65625V38.2812Z" fill="black"/>
<path d="M7.65625 42.6562H9.84375V44.8438H7.65625V42.6562Z" fill="#131A22"/>
<path d="M7.65625 47.0312H9.84375V49.2188H7.65625V47.0312Z" fill="#131A22"/>
<path d="M7.65625 51.4062H9.84375V53.5938H7.65625V51.4062Z" fill="#131A22"/>
<path d="M7.65625 55.7812H9.84375V57.9688H7.65625V55.7812Z" fill="#131A22"/>
<path d="M7.65625 60.1562H9.84375V62.3438H7.65625V60.1562Z" fill="#131A22"/>
<path d="M33.9062 64.5312V31.7188H12.0312V64.5312H33.9062ZM14.2188 33.9062H31.7188V62.3438H14.2188V33.9062Z" fill="#131A22"/>
<path d="M16.4062 36.0938H29.5312V38.2812H16.4062V36.0938Z" fill="#131A22"/>
<path d="M27.3438 40.4688H29.5312V42.6562H27.3438V40.4688Z" fill="#131A22"/>
<path d="M16.4062 40.4688H25.1562V42.6562H16.4062V40.4688Z" fill="#131A22"/>
<path d="M16.4062 44.8438H29.5312V47.0312H16.4062V44.8438Z" fill="#131A22"/>
<path d="M16.4062 60.1562H29.5312V49.2188H16.4062V60.1562ZM18.5938 51.4062H27.3438V57.9688H18.5938V51.4062Z" fill="#131A22"/>
<path d="M65.7169 27.3439L50.7238 0.687012L4.51937 27.3439H1.09375V68.9064H68.9062V27.3439H65.7169ZM49.9012 3.68826L63.2089 27.3439H8.89766L49.9012 3.68826ZM66.7188 66.7189H9.84375V64.5314H7.65625V66.7189H3.28125V29.5314H7.65625V31.7189H9.84375V29.5314H66.7188V66.7189Z" fill="#131A22"/>
<path d="M40.7781 17.3086L42.6778 16.2231L43.7628 18.1218L41.8631 19.2073L40.7781 17.3086Z" fill="#131A22"/>
<path d="M36.9805 19.4775L38.8792 18.3925L39.9642 20.2913L38.0655 21.3763L36.9805 19.4775Z" fill="#131A22"/>
<path d="M44.5771 15.1392L46.4759 14.0542L47.5609 15.9529L45.6621 17.0379L44.5771 15.1392Z" fill="#131A22"/>
</svg>
