<svg width="70" height="70" viewBox="0 0 70 70" fill="none" xmlns="http://www.w3.org/2000/svg">
<path d="M45.1613 65.4837C40.8043 65.4837 37.2581 61.9374 37.2581 57.5805C37.2581 53.2235 40.8043 49.6772 45.1613 49.6772C49.5182 49.6772 53.0645 53.2235 53.0645 57.5805C53.0645 61.9374 49.5182 65.4837 45.1613 65.4837Z" fill="#EC681F"/>
<path d="M32.7419 51.9354H16.9355V36.1289H32.7419V51.9354Z" fill="#EC681F"/>
<path d="M70 21.4516C70 17.0935 66.4537 13.5484 62.0968 13.5484V6.77419H57.5806V0H12.4194V6.77419H7.90323V13.5484C3.54629 13.5484 0 17.0935 0 21.4516V45.1613H5.64516V58.7097H12.4194V70H57.5806V58.7097H64.3548V45.1613H70V21.4516ZM59.8387 9.03226V13.5484H57.5806V9.03226H59.8387ZM55.3226 2.25806V13.5484H14.6774V2.25806H55.3226ZM10.1613 9.03226H12.4194V13.5484H10.1613V9.03226ZM7.90323 56.4516V45.1613H12.4194V56.4516H7.90323ZM14.6774 67.7419V33.871H55.3226V67.7419H14.6774ZM62.0968 56.4516H57.5806V45.1613H62.0968V56.4516ZM67.7419 42.9032H57.5806V33.871H62.0968V31.6129H7.90323V33.871H12.4194V42.9032H2.25806V21.4516C2.25806 18.3389 4.79048 15.8065 7.90323 15.8065H62.0968C65.2095 15.8065 67.7419 18.3389 67.7419 21.4516V42.9032Z" fill="#131A22"/>
<path d="M6.7742 27.0967H22.5807V18.0645H6.7742V27.0967ZM9.03226 20.3225H20.3226V24.8386H9.03226V20.3225Z" fill="#131A22"/>
<path d="M58.7097 18.0645C56.219 18.0645 54.1935 20.0899 54.1935 22.5806C54.1935 25.0712 56.219 27.0967 58.7097 27.0967C61.2003 27.0967 63.2258 25.0712 63.2258 22.5806C63.2258 20.0899 61.2003 18.0645 58.7097 18.0645ZM58.7097 24.8386C57.4643 24.8386 56.4516 23.8259 56.4516 22.5806C56.4516 21.3353 57.4643 20.3225 58.7097 20.3225C59.955 20.3225 60.9677 21.3353 60.9677 22.5806C60.9677 23.8259 59.955 24.8386 58.7097 24.8386Z" fill="#131A22"/>
<path d="M47.4194 18.0645C44.9287 18.0645 42.9032 20.0899 42.9032 22.5806C42.9032 25.0712 44.9287 27.0967 47.4194 27.0967C49.91 27.0967 51.9355 25.0712 51.9355 22.5806C51.9355 20.0899 49.91 18.0645 47.4194 18.0645ZM47.4194 24.8386C46.174 24.8386 45.1613 23.8259 45.1613 22.5806C45.1613 21.3353 46.174 20.3225 47.4194 20.3225C48.6647 20.3225 49.6774 21.3353 49.6774 22.5806C49.6774 23.8259 48.6647 24.8386 47.4194 24.8386Z" fill="#131A22"/>
<path d="M19.1936 4.51611H16.9355V6.77418H19.1936V4.51611Z" fill="#131A22"/>
<path d="M53.0645 4.51611H21.4516V6.77418H53.0645V4.51611Z" fill="#131A22"/>
<path d="M53.0645 9.03223H16.9355V11.2903H53.0645V9.03223Z" fill="#131A22"/>
<path d="M37.2581 36.1289H35V38.387H37.2581V36.1289Z" fill="#131A22"/>
<path d="M53.0645 36.1289H39.5161V38.387H53.0645V36.1289Z" fill="#131A22"/>
<path d="M53.0645 45.1611H50.8065V47.4192H53.0645V45.1611Z" fill="#131A22"/>
<path d="M48.5484 45.1611H35V47.4192H48.5484V45.1611Z" fill="#131A22"/>
<path d="M53.0645 40.645H35V42.9031H53.0645V40.645Z" fill="#131A22"/>
<path d="M19.1936 54.1934H16.9355V56.4514H19.1936V54.1934Z" fill="#131A22"/>
<path d="M35 54.1934H21.4516V56.4514H35V54.1934Z" fill="#131A22"/>
<path d="M35 63.2256H32.7419V65.4837H35V63.2256Z" fill="#131A22"/>
<path d="M30.4839 63.2256H16.9355V65.4837H30.4839V63.2256Z" fill="#131A22"/>
<path d="M35 58.7095H16.9355V60.9675H35V58.7095Z" fill="#131A22"/>
</svg>
