<svg width="70" height="70" viewBox="0 0 70 70" fill="none" xmlns="http://www.w3.org/2000/svg">
<path d="M29.3351 4.48682H38.3095V10.0958H29.3351V4.48682Z" fill="#EC681F"/>
<path d="M4.65567 33.6532V48.2365H9.14285V34.775H11.3864V29.166H4.65567V33.6532Z" fill="#EC681F"/>
<path d="M49.1774 10.4458L41.6749 17.9484L56.2582 32.5317L63.7953 25.0176L49.1774 10.4458Z" fill="#EC681F"/>
<path d="M37.9595 21.6284L27.0916 32.5314L36.0659 41.5058L46.9853 30.6208L37.9595 21.6284Z" fill="#EC681F"/>
<path d="M23.3762 36.1772L19.239 40.384L40.5531 61.6981L44.7335 57.5352L23.3762 36.1772Z" fill="#EC681F"/>
<path d="M16.9954 26.9227H15.8736C9.68786 26.9227 4.65567 21.8905 4.65567 15.7048C4.65567 9.51901 9.68786 4.48682 15.8736 4.48682C22.0588 4.48682 27.0916 9.51901 27.0916 15.7048V16.8266H16.9954V26.9227Z" fill="#EC681F"/>
<path d="M48.4177 4.03528L42.7967 9.48048V0H0.168488V53.8462H24.3835L40.5372 69.9999L69.7198 41.9841V25.3368L48.4177 4.03528ZM62.3312 33.6538L67.4762 28.5094V38.7983L62.3312 33.6538ZM2.41208 51.6026V2.24359H40.5531V11.6545L31.5716 20.355C31.5727 20.3002 31.5787 20.246 31.5787 20.1923V19.0705H19.239V31.4103H20.1598L10.9093 40.3709L22.1399 51.6026H2.41208ZM22.8421 28.8123C22.3968 28.9399 21.9433 29.0401 21.4826 29.0971V21.3141H29.2656C29.196 21.8706 29.0657 22.4156 28.8931 22.9486L22.8421 28.8123ZM14.1066 40.3983L48.3931 7.18266L67.0117 25.8013L59.1591 33.6538L66.9958 41.4905L40.5684 66.8591L14.1066 40.3983Z" fill="#131A22"/>
<path d="M47.612 12.0116L49.1983 10.4253L63.7816 25.0086L62.1953 26.5949L47.612 12.0116Z" fill="#131A22"/>
<path d="M44.2466 15.3773L45.8329 13.791L60.4162 28.3743L58.8299 29.9606L44.2466 15.3773Z" fill="#131A22"/>
<path d="M40.8812 18.7425L42.4675 17.1562L57.0508 31.7396L55.4645 33.3259L40.8812 18.7425Z" fill="#131A22"/>
<path d="M36.394 23.2289L37.9803 21.6426L46.9547 30.6169L45.3684 32.2032L36.394 23.2289Z" fill="#131A22"/>
<path d="M33.0287 26.5946L34.6149 25.0083L43.5893 33.9827L42.003 35.5689L33.0287 26.5946Z" fill="#131A22"/>
<path d="M29.6633 29.9598L31.2496 28.3735L40.2239 37.3479L38.6376 38.9342L29.6633 29.9598Z" fill="#131A22"/>
<path d="M26.2979 33.3251L27.8842 31.7388L36.8585 40.7131L35.2722 42.2994L26.2979 33.3251Z" fill="#131A22"/>
<path d="M21.8107 37.8124L23.397 36.2261L44.7105 57.5396L43.1243 59.1265L21.8107 37.8124Z" fill="#131A22"/>
<path d="M18.4453 41.1776L20.0316 39.5913L41.3452 60.9049L39.7589 62.4917L18.4453 41.1776Z" fill="#131A22"/>
<path d="M50.6493 32.0679L36.7232 45.9939L47.2839 56.5546L61.2094 42.6285L50.6493 32.0679ZM39.8953 45.9939L50.6493 35.2404L58.0373 42.6285L47.2839 53.382L39.8953 45.9939Z" fill="#131A22"/>
<path d="M29.3351 4.48682H38.3095V6.73041H29.3351V4.48682Z" fill="#131A22"/>
<path d="M29.3351 8.97461H38.3095V11.2182H29.3351V8.97461Z" fill="#131A22"/>
<path d="M4.65567 47.1152H14.7518V49.3588H4.65567V47.1152Z" fill="#131A22"/>
<path d="M4.65567 42.6279H9.14285V44.8715H4.65567V42.6279Z" fill="#131A22"/>
<path d="M4.65567 38.1411H9.14285V40.3847H4.65567V38.1411Z" fill="#131A22"/>
<path d="M4.65567 33.6538H11.3864V35.8974H4.65567V33.6538Z" fill="#131A22"/>
<path d="M4.65567 29.1665H16.9954V31.4101H4.65567V29.1665Z" fill="#131A22"/>
</svg>
