<svg width="70" height="70" viewBox="0 0 70 70" fill="none" xmlns="http://www.w3.org/2000/svg">
<g clip-path="url(#clip0)">
<path d="M57.208 69.9997C52.1918 69.9997 47.609 67.0498 45.534 62.4824C43.7886 58.6438 42.9032 54.5582 42.9032 50.3398C42.9032 47.9698 42.5824 45.7063 41.1623 43.8131L40.5641 43.1389L46.2903 37.2578L65.3846 49.3822C68.275 51.3095 70 54.534 70 58.0071C70 60.1791 69.3329 62.2636 68.0705 64.0326L67.6427 64.6302C65.2413 67.9925 61.3404 69.9997 57.208 69.9997ZM49.324 46.8171C49.5589 47.9748 49.6774 49.1523 49.6774 50.3398C49.6774 53.5847 50.3583 56.727 51.7006 59.678C52.6797 61.8336 54.8419 63.2255 57.208 63.2255C59.1579 63.2255 60.9981 62.2784 62.1304 60.6929L62.5587 60.0948C62.9954 59.4829 63.2258 58.7601 63.2258 58.0071C63.2258 56.8047 62.6288 55.6873 61.626 55.0197L49.324 46.8171Z" fill="#EC681F"/>
<path d="M46.1178 39.1064L40.1325 32.6718L40.6992 31.9165C42.1209 30.0217 42.9032 27.6749 42.9032 25.305C42.9032 21.0865 43.7886 17.002 45.534 13.1623C47.609 8.59495 52.1918 5.64502 57.208 5.64502C61.3404 5.64502 65.2413 7.65225 67.6427 11.0156L68.0705 11.6121C69.3329 13.3823 70 15.4656 70 17.6377C70 21.1108 68.275 24.3352 65.3846 26.2625L46.1178 39.1064ZM57.208 12.4192C54.8419 12.4192 52.6797 13.8112 51.7006 15.9678C50.3583 18.9178 49.6774 22.0601 49.6774 25.305C49.6774 26.4924 49.5589 27.67 49.324 28.8277L61.626 20.6251C62.6288 19.9575 63.2258 18.8411 63.2258 17.6377C63.2258 16.8846 62.9954 16.1619 62.5587 15.55L62.1304 14.9529C60.9981 13.3663 59.1568 12.4192 57.208 12.4192Z" fill="#EC681F"/>
<path d="M41.1623 43.8134L40.7108 43.3051L46.6966 37.3204L25.9677 12.9861V0H0V70H25.9677V62.6602L41.5393 44.3812C41.4208 44.1894 41.3012 43.9975 41.1623 43.8134ZM40.6452 40.1777L37.7256 37.2581H33.3528L14.9961 9.18221L15.4735 8.70479C16.5562 7.61986 18.4967 7.69649 19.4929 8.86632L43.626 37.1958L40.6452 40.1777ZM31.0236 37.8226L25.9677 45.5566V40.1777L20.7901 35L25.8613 29.9282L31.0236 37.8226ZM23.7097 67.7419H2.25806V36.129H5.64516V33.871H2.25806V2.25806H23.7097V10.3349L21.2113 7.40211C20.2603 6.2852 18.8738 5.64516 17.4074 5.64516C16.0716 5.64516 14.8185 6.16447 13.8759 7.10827L12.1007 8.88231L23.7097 26.6359V28.8873L18.7261 33.871H14.6774V36.129H18.7261L23.7097 41.1127V67.7419ZM25.9677 49.6807L32.6146 39.5161H36.7906L39.9902 42.7158L25.9677 59.1783V49.6807Z" fill="#131A22"/>
<path d="M33.871 32.7422H36.129V35.0003H33.871V32.7422Z" fill="black"/>
<path d="M7.90323 33.8711H12.4194V36.1292H7.90323V33.8711Z" fill="black"/>
</g>
<defs>
<clipPath id="clip0">
<rect width="70" height="70" fill="white"/>
</clipPath>
</defs>
</svg>
