<svg width="120" height="120" viewBox="0 0 120 120" fill="none" xmlns="http://www.w3.org/2000/svg">
<path d="M60 23.4241C71.6947 23.4241 81.1756 13.9432 81.1756 2.24854H73.4754C73.4754 9.69078 67.4423 15.7239 60 15.7239C52.5578 15.7239 46.5246 9.69078 46.5246 2.24854H38.8244C38.8244 13.9432 48.3053 23.4241 60 23.4241Z" fill="#EC681F"/>
<path d="M25.3491 38.8247V117.752H34.9743V48.45L25.3491 38.8247Z" fill="#EC681F"/>
<path d="M94.6509 38.8247V117.752H85.0257V48.45L94.6509 38.8247Z" fill="#EC681F"/>
<path d="M40.7495 79.2505H79.2505V40.7495H40.7495V79.2505ZM44.5996 44.5996H75.4004V75.4004H44.5996V44.5996Z" fill="#131A22"/>
<path d="M52.2998 52.2998H65.7752V58.075H54.2249V61.9251H65.7752V67.7002H52.2998V71.5503H69.6253V48.4497H52.2998V52.2998Z" fill="#131A22"/>
<path d="M120 55.6473L113.849 24.8965C112.533 18.3186 108.119 12.6975 102.039 9.85995L81.6029 0.323242H71.5503V2.24829C71.5503 8.61829 66.37 13.7986 60 13.7986C53.63 13.7986 48.4497 8.61829 48.4497 2.24829V0.323242H38.3971L17.9607 9.85995C11.8814 12.6975 7.46727 18.3186 6.15054 24.8965L0 55.6473L23.424 61.5033V119.676H96.576V61.5033L120 55.6473ZM96.576 57.5338V51.8434L114.342 46.998L115.503 52.8021L96.576 57.5338ZM4.49692 52.8021L5.65773 46.998L23.424 51.8453V57.5358L4.49692 52.8021ZM92.7259 115.826H27.2741V31.1241H23.424V47.8547L6.41427 43.2153L9.92556 25.6511C11.0036 20.2687 14.615 15.6698 19.5893 13.3481L39.2518 4.17334H44.7209C45.6699 11.76 52.1612 17.6487 60.0019 17.6487C67.8427 17.6487 74.332 11.76 75.283 4.17334H80.7521L100.415 13.3501C105.389 15.6717 109 20.2706 110.078 25.6531L113.59 43.2172L96.576 47.8547V31.1241H92.7259V115.826Z" fill="#131A22"/>
</svg>
