<svg width="179" height="75" viewBox="0 0 179 75" fill="none" xmlns="http://www.w3.org/2000/svg">
<path d="M7.05998 50.1471C5.00082 48.8235 3.38291 47.2059 2.05916 45.1471C0.735415 42.9412 0 40.2941 0 37.5C0 33.3824 1.61791 29.7059 4.26541 27.0588C5.1479 26.1765 6.0304 25.5882 6.9129 24.8529C6.32457 22.5 6.32457 20.1471 6.9129 17.7941C7.64831 15.2941 8.82498 12.9412 10.8841 11.0294C13.8258 8.08823 17.5029 6.76471 21.327 6.76471C22.5037 6.76471 23.6804 6.91176 24.7099 7.20588C26.0337 5.14706 27.7987 3.38235 29.8578 2.20588C32.2112 0.735294 34.7116 0 37.5062 0C41.6245 0 45.3016 1.61765 47.9491 4.26471C48.8315 5.14706 49.4199 6.02941 50.1553 6.91176C52.5086 6.32353 54.862 6.32353 57.2153 7.05882C59.7157 7.64706 62.069 8.97059 63.9811 10.8824C66.9228 13.8235 68.2465 17.5 68.2465 21.3235C68.2465 22.5 68.0994 23.6765 67.8053 24.7059C69.8644 26.0294 71.4823 27.6471 72.659 29.7059C73.9827 31.9118 74.7182 34.5588 74.7182 37.3529C74.7182 41.4706 73.1002 45.1471 70.4528 47.7941C69.5703 48.6765 68.6878 49.2647 67.6582 50C68.2465 52.3529 68.2465 54.7059 67.6582 57.0588C67.0698 59.5588 65.7461 61.9118 63.834 63.8235C60.8924 66.7647 57.2153 68.0882 53.3911 68.0882C52.2145 68.0882 51.0378 67.9412 49.8611 67.6471C48.5374 69.7059 46.9195 71.3235 44.8603 72.6471C42.6541 73.9706 40.0066 74.7059 37.212 74.7059C33.0937 74.7059 29.4166 73.0882 26.7691 70.4412C25.8866 69.5588 25.2983 68.6765 24.5629 67.7941C22.2095 68.3823 19.8562 68.3823 17.5029 67.7941C14.9016 67.176 12.545 65.793 10.7371 63.8235C7.7954 60.8824 6.47165 57.2059 6.47165 53.3824C6.61873 52.5 6.76582 51.3235 7.05998 50.1471ZM23.8274 65.7353C23.092 63.9706 22.7979 62.2059 22.7979 60.1471V37.5V37.3529V37.2059V37.0588V36.9118V36.7647C22.7979 36.0294 22.9449 35.1471 23.092 34.4118L12.6491 44.7059C10.2958 47.0588 8.97206 50.2941 8.97206 53.5294C8.97206 56.7647 10.1487 59.8529 12.6491 62.3529C14.267 63.9706 16.3262 65 18.3854 65.5882C20.1504 66.0294 22.0624 66.1765 23.8274 65.7353ZM27.0633 27.0588L27.2104 26.9118L27.3574 26.7647L27.5045 26.6176H27.6516V26.4706C28.2399 25.8824 28.8283 25.4412 29.5637 25H15.0025C11.6196 25 8.38373 26.4706 6.17748 28.6765C3.97124 30.8824 2.50041 33.9706 2.50041 37.5C2.50041 39.8529 3.23583 42.0588 4.26541 43.8235C5.29499 45.2941 6.47165 46.7647 7.94248 47.6471C8.6779 46.0294 9.70748 44.4118 11.1783 42.9412L27.0633 27.0588ZM46.3311 28.8235C46.1841 28.6765 46.1841 28.6765 46.3311 28.8235L46.1841 28.6765C46.1841 28.6765 46.1841 28.5294 46.037 28.5294L45.8899 28.3824C44.8603 27.3529 43.6836 26.6176 42.3599 26.1765H42.0657C40.742 25.5882 39.4182 25.2941 38.0945 25.2941H37.9474H37.5062H37.3591H37.212H37.0649H36.9178C35.5941 25.2941 34.1233 25.5882 32.9466 26.1765H32.7995H32.6524C31.3287 26.7647 30.152 27.5 29.1224 28.3824C29.1224 28.3824 28.9753 28.3824 28.9753 28.5294C28.9753 28.5294 28.8283 28.5294 28.8283 28.6765H28.6812L28.5341 28.8235C28.5341 28.8235 28.5341 28.9706 28.387 28.9706L28.2399 29.1176V29.2647C28.2399 29.2647 28.2399 29.4118 28.0928 29.4118C27.0633 30.4412 26.3279 31.6176 25.7395 32.9412V33.0882C25.1512 34.4118 24.857 35.7353 24.857 37.2059V38.3824C24.857 39.8529 25.1512 41.1765 25.7395 42.5V42.7941C26.3279 44.1176 27.0633 45.2941 27.9458 46.3235C27.9458 46.3235 27.9458 46.4706 28.0928 46.4706V46.6176L28.2399 46.7647L28.387 46.9118C28.387 46.9118 28.387 47.0588 28.5341 47.0588L28.6812 47.2059H28.8283C28.8283 47.2059 28.9753 47.2059 28.9753 47.3529C30.0049 48.3824 31.1816 49.1176 32.5053 49.5588H32.7995C34.1233 50.1471 35.447 50.4412 36.9178 50.4412H38.0945C39.4182 50.4412 40.8891 50 42.2128 49.5588H42.507C43.8307 48.9706 44.8603 48.2353 46.037 47.3529C46.037 47.3529 46.1841 47.3529 46.1841 47.2059H46.3311V47.0588H46.4782C46.4782 47.0588 46.4782 46.9118 46.6253 46.9118C46.6253 46.9118 46.7724 46.9118 46.7724 46.7647V46.6176C46.7724 46.6176 46.9195 46.6176 46.9195 46.4706C46.9195 46.4706 46.9195 46.3235 47.0666 46.3235C47.9491 45.2941 48.8316 44.1176 49.2728 42.7941V42.6471V42.5C49.7141 41.1765 50.1553 39.8529 50.1553 38.3824V38.2353V37.9412V37.7941V37.6471V37.5V37.3529V37.2059C50.1553 35.8824 49.7141 34.4118 49.2728 33.0882V32.7941C48.6845 31.4706 47.9491 30.2941 47.0666 29.2647C47.0666 29.2647 47.0666 29.1176 46.9195 29.1176L46.7724 28.9706V28.8235H46.3311ZM9.26623 23.8235C11.0312 23.0882 12.7962 22.7941 14.8554 22.7941H37.6532C38.6828 22.7941 39.5653 22.9412 40.5949 23.0882L30.2991 12.6471C27.9458 10.2941 24.7099 8.97059 21.4741 8.97059C18.2383 8.97059 15.1495 10.1471 12.6491 12.6471C11.0312 14.2647 10.0016 16.3235 9.41331 18.3824C8.97206 20.1471 8.97206 22.0588 9.26623 23.8235ZM47.9491 27.0588C48.0961 27.0588 48.0961 27.2059 47.9491 27.0588L48.2432 27.3529C48.2432 27.3529 48.2432 27.5 48.3903 27.5V27.6471H48.5374V27.7941C48.9786 28.3824 49.567 28.9706 49.8611 29.5588V15C49.8611 11.6176 48.5374 8.38235 46.1841 6.17647C43.9778 3.97059 40.8891 2.5 37.3591 2.5C35.0057 2.5 32.9466 3.08824 31.0345 4.26471C29.4166 5.14706 28.0928 6.47059 27.0633 7.94118C28.6812 8.67647 30.2991 9.70588 31.7699 11.1765L47.9491 27.0588ZM51.9203 40.5882L62.3632 30.2941C64.7165 27.9412 66.0403 24.7059 66.0403 21.4706C66.0403 18.2353 64.8636 15.1471 62.3632 12.6471C60.7453 11.0294 58.6861 10 56.6269 9.41177C54.862 8.97059 52.9499 8.97059 51.1849 9.26471C51.9203 11.0294 52.2145 12.7941 52.2145 14.8529V37.6471C52.3615 38.6765 52.2145 39.7059 51.9203 40.5882ZM67.2169 27.2059C66.4815 28.8235 65.4519 30.4412 63.9811 31.9118L47.9491 47.9412C47.2136 48.6765 46.4782 49.2647 45.5957 49.8529H60.304C63.6869 49.8529 66.7757 48.3824 69.129 46.1765C71.3353 43.9706 72.8061 40.8824 72.8061 37.3529C72.8061 35 72.2177 32.7941 71.0411 31.0294C70.0115 29.5588 68.6878 28.2353 67.2169 27.2059ZM37.5062 52.3529H37.3591H37.212H36.7707H36.6237C35.8882 52.3529 35.1528 52.2059 34.4174 52.0588L44.8603 62.5C47.2136 64.8529 50.4495 66.1765 53.6853 66.1765C56.9211 66.1765 60.0099 65 62.5103 62.5C64.1282 60.8824 65.1578 58.8235 65.7461 56.7647C66.1873 55 66.1873 53.0882 65.8932 51.3235C64.1282 52.0588 62.3632 52.3529 60.304 52.3529H37.5062ZM25.1512 45.5882V60.2941C25.1512 63.6765 26.622 66.9118 28.8283 69.1176C31.0345 71.3235 34.1233 72.7941 37.6532 72.7941C40.0066 72.7941 42.2128 72.0588 43.9778 71.0294C45.5957 70 46.9195 68.8235 47.9491 67.3529C46.3311 66.6176 44.7132 65.5882 43.2424 64.1176L27.0633 47.9412C26.3279 47.2059 25.7395 46.4706 25.1512 45.5882Z" fill="#CD4A42"/>
<path d="M88.1027 51.6321V23.6909H98.2515C100.605 23.6909 102.517 23.985 104.282 24.7203C106.047 25.4556 107.518 26.485 108.547 27.6615C109.724 28.985 110.606 30.4556 111.195 32.0733C111.783 33.838 112.077 35.6027 112.077 37.5144C112.077 39.5733 111.783 41.485 111.048 43.2497C110.312 45.0144 109.43 46.485 108.253 47.6615C107.076 48.838 105.606 49.8674 103.841 50.4556C102.223 51.1909 100.311 51.485 98.1044 51.485H88.1027V51.6321ZM106.488 37.5144C106.488 36.1909 106.341 34.8674 105.9 33.838C105.459 32.8086 105.017 31.7792 104.282 30.8968C103.546 30.1615 102.664 29.4262 101.634 28.985C100.605 28.5439 99.4281 28.2497 98.1044 28.2497H93.3977V46.6321H98.1044C99.4281 46.6321 100.605 46.485 101.634 45.8968C102.664 45.4556 103.546 44.7203 104.282 43.985C105.017 43.1027 105.459 42.2203 105.9 41.0439C106.341 40.1615 106.488 38.838 106.488 37.5144ZM125.315 51.9262C123.697 51.9262 122.226 51.6321 120.902 51.0439C119.578 50.4556 118.402 49.7203 117.372 48.6909C116.49 47.6615 115.754 46.6321 115.166 45.3086C114.725 43.985 114.431 42.6615 114.431 41.338C114.431 39.8674 114.725 38.3968 115.166 37.2203C115.607 36.0439 116.49 34.8674 117.372 33.838C118.402 32.8086 119.431 32.0733 120.902 31.485C122.226 30.8968 123.844 30.6027 125.462 30.6027C127.227 30.6027 128.698 30.8968 130.021 31.485C131.345 32.0733 132.375 32.8086 133.404 33.838C134.287 34.8674 135.022 35.8968 135.463 37.2203C135.905 38.5439 136.199 39.8674 136.199 41.1909V42.2203C136.199 42.5144 136.199 42.8086 136.052 42.9556H120.02C120.167 43.6909 120.314 44.4262 120.608 45.1615C120.902 45.7497 121.343 46.338 121.785 46.7792C122.226 47.2203 122.814 47.5144 123.55 47.8086C124.285 48.1027 124.873 48.2497 125.462 48.2497C126.491 48.2497 127.521 47.9556 128.403 47.5144C129.433 47.0733 130.021 46.338 130.316 45.4556L134.875 46.7792C134.14 48.3968 132.963 49.7203 131.198 50.6027C129.727 51.485 127.668 51.9262 125.315 51.9262ZM130.757 39.5733C130.61 38.1027 130.021 36.7792 128.992 35.8968C127.962 35.0144 126.786 34.5733 125.315 34.5733C124.579 34.5733 123.991 34.7203 123.403 35.0144C122.814 35.3086 122.226 35.6027 121.785 36.0439C121.343 36.485 120.902 37.0733 120.608 37.6615C120.314 38.3968 120.167 38.985 120.02 39.7203H130.757V39.5733ZM139.288 55.6027C139.729 55.7497 140.17 55.8968 140.611 55.8968C141.053 56.0439 141.347 56.0439 141.641 56.0439C141.935 56.0439 142.376 55.8968 142.523 55.8968C142.818 55.7497 143.112 55.4556 143.259 55.1615C143.553 54.8674 143.7 54.4262 143.994 53.838C144.288 53.2497 144.436 52.5144 144.73 51.6321L136.64 30.8968H142.082L147.671 46.9262L152.672 30.8968H157.673L148.995 55.6027C148.554 57.0733 147.671 58.2497 146.348 59.1321C145.171 60.0144 143.7 60.4556 141.788 60.4556C141.347 60.4556 140.906 60.4556 140.464 60.3086C140.023 60.1615 139.582 60.1615 139.141 60.0144V55.6027H139.288ZM165.615 51.9262C164.586 51.9262 163.703 51.7792 162.821 51.485C161.938 51.1909 161.203 50.7497 160.615 50.1615C159.879 49.5733 159.438 48.838 159.144 48.1027C158.85 47.3674 158.555 46.485 158.555 45.4556C158.555 44.4262 158.85 43.5439 159.291 42.8086C159.732 41.9262 160.32 41.338 161.056 40.7497C161.791 40.1615 162.821 39.7203 163.85 39.4262C164.88 39.1321 166.057 38.985 167.38 38.985C168.263 38.985 169.145 38.985 170.028 39.1321C170.91 39.2792 171.646 39.5733 172.381 39.8674V38.6909C172.381 37.3674 171.94 36.338 171.205 35.4556C170.469 34.7203 169.293 34.4262 167.822 34.4262C166.645 34.4262 165.615 34.5733 164.586 35.0144C163.556 35.4556 162.527 36.0439 161.35 36.7792L159.732 33.3968C162.38 31.6321 165.174 30.7497 168.263 30.7497C171.205 30.7497 173.558 31.485 175.176 32.9556C176.794 34.4262 177.676 36.485 177.676 39.2792V45.7497C177.676 46.338 177.823 46.7792 177.97 46.9262C178.118 47.0733 178.412 47.2203 179 47.3674V51.9262C178.118 52.0733 177.382 52.2203 176.647 52.2203C175.617 52.2203 174.882 52.0733 174.293 51.485C173.705 51.0439 173.411 50.4556 173.264 49.7203L173.117 48.5439C172.234 49.7203 171.058 50.6027 169.734 51.338C168.557 51.6321 167.086 51.9262 165.615 51.9262ZM167.086 48.1027C167.969 48.1027 168.851 47.9556 169.587 47.6615C170.469 47.3674 171.058 46.9262 171.499 46.338C172.087 45.8968 172.381 45.3086 172.381 44.8674V42.5144C171.793 42.3674 171.058 42.0733 170.322 41.9262C169.587 41.7792 168.851 41.6321 168.263 41.6321C166.939 41.6321 165.763 41.9262 164.88 42.6615C163.998 43.2497 163.556 43.985 163.556 45.0144C163.556 45.8968 163.998 46.6321 164.586 47.2203C165.321 47.8086 166.204 48.1027 167.086 48.1027Z" fill="#CD4A42"/>
</svg>
