<svg width="120" height="107" viewBox="0 0 120 107" fill="none" xmlns="http://www.w3.org/2000/svg">
<path fill-rule="evenodd" clip-rule="evenodd" d="M-24 104.749C-24 105.992 -23.0973 106.699 -22.0795 106.699C-21.064 106.699 -20.3013 105.992 -20.3013 104.749V93.8379L-10.9585 105.712C-10.1394 106.475 -9.66093 106.701 -8.6725 106.701C-7.93907 106.475 -7.1763 105.994 -7.1763 104.751V88.8367C-7.1763 87.9033 -8.16474 86.8864 -9.18025 86.8864C-10.1394 86.8864 -10.9585 87.9033 -10.9585 88.8367V99.8041L-20.3013 88.1C-21.064 87.3655 -21.2897 87.1101 -22.3052 87.1101C-23.7743 87.1101 -24 88.1 -24 89.1169V104.749ZM12.1027 100.227C13.0347 101.47 14.3052 101.47 15.3207 100.227L20.0056 94.2899V104.749C20.0056 105.992 20.7955 106.699 21.8133 106.699C22.7159 106.699 23.5058 105.992 23.5058 104.749V88.8344C23.5058 86.8841 21.2197 86.4321 20.2877 87.5915L13.8516 96.299L7.64119 87.9033C7.16051 87.3655 6.68209 86.8864 5.86291 86.8864C5.41157 86.8864 4.16813 87.3677 4.16813 88.8367V104.751C4.16813 105.994 4.95797 106.701 5.86291 106.701C6.87842 106.701 7.89619 105.994 7.89619 104.751V94.2922L12.1027 100.229V100.227ZM39.7653 106.701C42.532 106.701 42.3334 102.997 39.7653 102.997H31.156V98.7578H38.2691C40.7808 98.7578 40.7808 95.0538 38.2691 95.0538H31.156V90.8141H39.2846C41.8257 90.8141 41.8821 87.1395 39.2846 87.1395H29.152C28.1636 87.1395 27.4008 87.874 27.4008 88.8932V104.95C27.4008 105.94 28.1636 106.704 29.152 106.704H39.7653V106.701ZM53.2017 90.5881C61.1611 90.5881 60.8226 103.253 53.2017 103.253H48.5145V90.5881H53.2017ZM53.4567 106.701C65.8212 106.701 66.1032 87.1395 53.2017 87.1395H46.7363C45.8042 87.1395 44.7887 87.874 44.7887 88.8932V104.95C44.7887 106.193 45.8042 106.704 46.7363 106.704H53.4544L53.4567 106.701ZM86.145 96.8075C86.145 90.109 80.9794 86.6875 76.0395 86.4321C70.8175 86.4321 65.3969 89.8537 65.3969 96.8075C65.3969 103.734 70.8175 107.21 76.0395 106.984C80.9794 106.984 86.145 103.506 86.145 96.8075ZM82.4463 96.8075C82.4463 101.246 78.9732 103.508 75.7281 103.508C72.5664 103.508 69.1227 101.246 69.1227 96.8075C69.1227 92.3419 72.5664 90.109 75.7281 90.109C78.9732 90.109 82.4463 92.3419 82.4463 96.8075ZM99.6942 105.429L106.893 89.6277C107.852 87.2819 104.578 85.9236 103.449 88.0728L100.938 93.7543L97.7489 101.217L94.5015 93.7543L91.9898 88.0728C90.7487 85.727 87.4178 87.5644 88.5168 89.7972L95.9684 105.429C97.0403 107.635 99.0443 107.21 99.6942 105.429Z" fill="#2B2A29"/>
<path fill-rule="evenodd" clip-rule="evenodd" d="M-4.24864 88.1255C-5.21903 89.8544 -2.31239 91.3618 -1.39617 89.7323L1.02526 85.4249C1.88507 83.8972 -0.953861 82.2633 -1.8272 83.8181L-4.24864 88.1255Z" fill="#2B2A29"/>
<path fill-rule="evenodd" clip-rule="evenodd" d="M88.4128 0C76.6035 0 64.7965 0.0971771 52.9872 0.0542384C14.1426 -0.0903973 13.8086 40.6946 -13.8066 55.018C-2.99028 55.018 7.82834 55.018 18.6447 55.018C67.6219 55.018 60.3553 11.3019 88.4128 0.00225993V0Z" fill="#C22D22"/>
<path fill-rule="evenodd" clip-rule="evenodd" d="M120 13.9746C111.194 13.9746 88.1488 14.0288 72.1014 14.0379C61.9936 28.6732 56.5595 48.425 32.2165 53.6907C56.5572 48.425 61.9913 28.6732 72.1014 14.0379C66.6289 14.0401 61.9665 14.0401 58.9629 14.0288C29.4475 13.9181 22.1651 37.4395 8.25482 55.0263C3.85877 60.5857 -1.19849 65.553 -7.83093 68.9927C2.98543 68.9927 39.4153 68.9927 50.2317 68.9927C99.2088 68.9927 91.9422 25.2765 120 13.9746Z" fill="url(#paint0_linear)"/>
<path fill-rule="evenodd" clip-rule="evenodd" d="M8.25183 55.0051H18.6439C54.9023 55.0051 60.3387 31.0476 72.0984 14.0168C66.6259 14.019 61.9635 14.019 58.9599 14.0077C29.4445 13.897 22.1621 37.4183 8.25183 55.0051Z" fill="url(#paint1_linear)"/>
<defs>
<linearGradient id="paint0_linear" x1="47.0204" y1="13.3644" x2="47.0204" y2="68.9927" gradientUnits="userSpaceOnUse">
<stop stop-color="#FFF167"/>
<stop offset="1" stop-color="#FBBA00"/>
</linearGradient>
<linearGradient id="paint1_linear" x1="35.6482" y1="13.5512" x2="35.6482" y2="55.0051" gradientUnits="userSpaceOnUse">
<stop stop-color="#E6A51E"/>
<stop offset="0.290196" stop-color="#E28E1D"/>
<stop offset="1" stop-color="#DD761C"/>
</linearGradient>
</defs>
</svg>
