<svg width="161" height="107" viewBox="0 0 161 107" fill="none" xmlns="http://www.w3.org/2000/svg">
<g clip-path="url(#clip0)">
<path d="M46.8202 57.2482C46.8681 59.8516 46.8948 64.5415 47.2405 69.0521C47.5611 73.5816 48.5004 79.8092 49.1741 81.7861C51.3308 87.4776 60.1264 85.8469 64.0877 84.1923C62.6013 79.6782 61.0993 71.3586 60.498 64.7837C59.9216 58.2055 59.7796 51.494 59.7183 46.5242C59.6728 45.0593 59.5438 43.7567 59.3302 42.5729C58.421 37.9243 55.0825 37.1902 50.9767 37.5481C48.5435 37.7684 47.0451 38.1333 44.7011 39.2631C45.452 40.9395 45.5189 41.9383 43.9082 45.9035C40.945 53.1079 38.1029 60.4086 35.7567 67.8662C34.3683 60.8956 33.6713 50.8114 31.3645 44.4818C29.9612 40.6662 26.7124 39.8888 22.9998 40.1988C20.4265 40.4239 18.3618 41.0387 15.9272 42.2618C16.2582 42.8898 16.9362 44.5414 16.4088 46.2362C14.3055 52.7299 9.93672 61.0976 6.55883 69.7518C3.24595 78.3058 0.993755 87.1698 1.90888 94.4895C2.62495 100.579 9.15554 104.927 16.9977 102.308C15.5138 95.7528 15.479 88.3655 16.2611 80.959C17.0199 73.5519 18.7996 66.104 20.4253 59.3275C21.1853 64.8119 22.9617 74.914 24.0626 79.6781C25.1623 84.4207 25.8207 88.6981 30.0445 89.9003C33.5779 90.8873 37.4836 90.132 40.8535 88.4716C38.2553 81.583 43.876 64.619 46.8201 57.2481L46.8202 57.2482Z" fill="#222B7B"/>
<path d="M92.1101 75.0656C89.7547 75.9462 82.6491 76.5609 78.4524 75.9903C78.4305 75.9443 77.8646 66.8892 77.8306 66.3054C80.8523 66.308 84.4318 67.4195 87.2699 66.2967C89.8107 65.3082 89.7437 61.7265 89.3085 59.4121C85.5838 60.4587 81.5106 60.2158 77.6281 60.3504C77.5904 59.5351 77.3117 54.4394 76.8629 51.3803C77.8841 51.3184 82.7081 51.979 85.0555 51.9369C90.6599 51.8311 90.5338 48.8759 89.9233 44.7676C88.2597 45.25 86.1548 45.7177 79.5438 45.534C74.1948 45.392 67.8285 44.4954 62.8702 46.5967C65.2387 49.1362 65.132 55.9881 65.1612 61.3814C65.1912 66.7754 65.9545 80.6433 67.781 83.7682C72.9773 83.1154 84.9804 83.1882 88.3039 83.2475C89.4479 83.2577 90.28 83.0535 90.8509 82.6287C92.8044 81.2021 92.3132 77.2127 92.1102 75.0656L92.1101 75.0656Z" fill="#222B7B"/>
<path d="M107.273 49.638C106.109 43.7166 97.9546 44.0225 93.3141 44.9144C95.7419 55.99 96.7553 66.7264 98.6473 78.1046C99.7815 84.8285 106.926 86.3369 112.612 85.2855C111.544 83.5955 111.738 82.0994 112.042 81.5011C115.661 73.747 121.704 64.8281 125.741 57.3012C127.408 54.1696 128.65 51.6811 128.843 50.2363C129.058 48.0895 127.852 46.9744 125.945 46.4986C123.85 45.9468 122.099 45.9577 119.98 46.2985C120.575 49.1141 119.957 52.196 118.992 55.0765C117.107 60.7644 111.835 68.1283 109.488 73.6639C108.441 66.3409 108.37 56.3101 107.273 49.6379L107.273 49.638Z" fill="#222B7B"/>
<path d="M130.777 69.4291C130.879 69.2066 137.56 58.161 137.56 58.161L139.108 67.0744C136.251 66.9592 132.766 68.2532 130.777 69.4291ZM142.275 91.2546C143.251 98.3582 151.153 98.0849 156.457 97.0584L152.196 76.1101C155.2 73.3588 158.045 70.3278 159.297 66.2228C156.752 67.6351 153.271 68.2532 150.338 68.3645L147.563 54.6941C146.144 47.698 143.808 46.4189 138.245 46.2611C137.428 46.2371 136.582 46.2733 135.763 46.3688C134.919 46.4314 134.042 46.5547 133.089 46.7362C134.222 48.7882 133.913 50.5917 133.552 51.2924C128.981 60.614 124.936 65.7617 119.956 74.7682C117.852 78.5566 116.273 81.8167 115.993 83.5319C115.636 86.0893 116.92 87.4448 119.038 88.0355C121.371 88.6855 123.376 88.67 125.789 88.2755C125.382 85.5499 125.904 82.3246 126.769 79.477C130.175 79.3921 135.679 80.397 139.367 80.4556L140.846 80.4435C141.033 82.3561 142.08 89.6322 142.275 91.2546H142.275Z" fill="#222B7B"/>
<path fill-rule="evenodd" clip-rule="evenodd" d="M48.0435 52.7677C48.1235 57.1985 48.1196 77.2095 50.7912 80.6792C50.7419 80.5621 50.69 80.4234 50.634 80.284C48.0036 73.0949 49.7383 56.5807 49.6081 48.7681L48.0435 52.7677V52.7677Z" fill="url(#paint0_linear)"/>
<path d="M141.944 44.6605L142.996 39.013C143.009 38.8827 143.086 38.8223 143.232 38.8355L144.424 38.9481C144.556 38.9606 144.612 39.0346 144.602 39.1652L143.552 44.8124C143.537 44.9587 143.448 45.0232 143.29 45.0082L142.111 44.8969C141.986 44.8849 141.931 44.8066 141.944 44.6605V44.6605ZM140.175 42.1456C140.163 42.2689 140.142 42.3889 140.112 42.4995C140.084 42.6136 140.044 42.7213 139.99 42.8292C139.938 42.9343 139.88 43.0297 139.817 43.1121C139.756 43.1919 139.682 43.2754 139.595 43.3573C139.316 43.6256 138.969 43.739 138.556 43.7006C138.358 43.6812 138.225 43.6321 138.16 43.5542C138.127 43.5128 138.105 43.4572 138.089 43.3895C138.077 43.3229 138.075 43.234 138.086 43.1289C138.137 42.8852 138.239 42.6517 138.383 42.4289L138.524 42.2433L138.853 41.9067C139.03 41.7419 139.201 41.6087 139.363 41.5139C139.496 41.4441 139.633 41.3991 139.783 41.3807C139.922 41.3943 140.035 41.4503 140.122 41.5527C140.184 41.6592 140.208 41.7953 140.192 41.9582L140.175 42.1456ZM138.919 38.6477C138.925 38.5881 138.92 38.5328 138.9 38.4786C138.886 38.4738 138.873 38.4695 138.871 38.4647L138.763 38.4132L137.563 38.2997C137.409 38.2846 137.327 38.3502 137.314 38.4966L136.695 41.7946L136.606 42.3889C136.535 43.137 136.647 43.6984 136.945 44.0757C137.241 44.4511 137.789 44.6774 138.583 44.7524C139.242 44.8161 139.853 44.6301 140.424 44.1986C141.035 43.7514 141.418 43.118 141.57 42.2978L141.616 42.0289L141.638 41.7991C141.689 41.2728 141.626 40.853 141.449 40.542C141.365 40.3908 141.249 40.2692 141.099 40.1803C140.953 40.0907 140.77 40.0361 140.554 40.0172C140.195 39.9817 139.79 40.135 139.341 40.4775C138.959 40.7574 138.642 41.1055 138.383 41.5224L138.919 38.6477L138.919 38.6477ZM131.83 43.0196L132.099 43.1111L132.432 43.1575C133.115 43.2105 133.648 42.9391 134.034 42.3446C134.336 41.8667 134.519 41.23 134.579 40.4354L134.597 40.2162C134.604 40.1269 134.604 40.0541 134.598 39.9944C134.592 39.9381 134.573 39.874 134.537 39.8027C134.505 39.6929 134.42 39.6325 134.287 39.6219C134.211 39.6157 134.133 39.627 134.055 39.6552C133.977 39.683 133.897 39.7291 133.812 39.7954C133.766 39.8174 133.646 39.9406 133.445 40.1628C133.239 40.3842 133.06 40.6053 132.899 40.8223C132.736 41.0389 132.581 41.2713 132.427 41.5165C132.396 41.5769 132.353 41.6542 132.303 41.7526C132.251 41.8502 132.18 42.0061 132.09 42.2173C131.996 42.4574 131.908 42.7238 131.83 43.0196ZM132.268 40.456C132.474 39.9875 132.689 39.5886 132.914 39.2567C133.141 38.928 133.379 38.6631 133.632 38.4688C134.03 38.1559 134.481 38.0186 134.983 38.0566C135.505 38.097 135.861 38.3249 136.055 38.7414C136.13 38.9225 136.183 39.123 136.212 39.3448C136.24 39.5656 136.246 39.8129 136.226 40.0885L136.205 40.3494L136.164 40.5998C136.078 41.1132 135.948 41.5761 135.775 41.9889C135.601 42.4036 135.377 42.7864 135.099 43.1406C134.771 43.559 134.409 43.862 134.014 44.0563C133.624 44.2496 133.197 44.3286 132.741 44.2942C132.507 44.2755 132.327 44.2455 132.201 44.2049L131.986 44.1438C131.892 44.1167 131.787 44.0574 131.676 43.9667L131.274 46.3267C131.243 46.4709 131.159 46.538 131.028 46.528L129.847 46.4366C129.715 46.4271 129.655 46.348 129.666 46.2027L131.042 38.0929C131.051 37.9545 131.132 37.8894 131.278 37.8997L132.459 37.9907C132.598 38.0017 132.66 38.0783 132.65 38.2166L132.268 40.456V40.456ZM128.663 38.8442L128.322 38.71L127.932 38.6316C127.344 38.5873 126.858 38.8501 126.474 39.4224C126.4 39.5362 126.332 39.6563 126.269 39.7811C126.205 39.907 126.144 40.0545 126.08 40.2199C125.972 40.5101 125.904 40.8233 125.876 41.1626L125.871 41.2494C125.865 41.3236 125.856 41.3742 125.839 41.4023L125.827 41.5575C125.812 41.7339 125.82 41.8813 125.858 42.0003C125.895 42.0969 125.989 42.1496 126.129 42.1599C126.48 42.1881 126.982 41.7247 127.632 40.7714C128.176 39.981 128.518 39.3376 128.663 38.8442H128.663ZM128.098 41.3562C127.847 42.0215 127.515 42.5683 127.103 42.9987C126.584 43.5341 126.009 43.776 125.379 43.7273C124.921 43.6922 124.593 43.4817 124.386 43.0967C124.345 43.0174 124.309 42.9291 124.273 42.8306C124.241 42.7315 124.216 42.6236 124.199 42.5043C124.183 42.3875 124.175 42.2686 124.17 42.1493C124.167 42.0325 124.171 41.9091 124.183 41.7793L124.196 41.5659L124.237 41.3325C124.318 40.8259 124.444 40.3604 124.609 39.9359C124.777 39.5113 124.988 39.1198 125.245 38.7589C125.893 37.8411 126.692 37.4191 127.643 37.4916C127.998 37.5183 128.389 37.6486 128.816 37.8781C128.826 37.7727 128.881 37.7174 128.983 37.7141L130.161 37.8052C130.292 37.8148 130.353 37.8931 130.342 38.0373L129.392 43.6907C129.381 43.8389 129.293 43.9055 129.134 43.893L127.91 43.7994C127.779 43.7892 127.719 43.7104 127.731 43.5659L128.098 41.3562L128.098 41.3562ZM116.84 39.5417C117.093 38.8878 117.423 38.3172 117.833 37.8342C118.089 37.537 118.359 37.3185 118.633 37.1791C118.912 37.04 119.206 36.9803 119.52 36.9994C119.874 37.0203 120.132 37.1494 120.291 37.384C120.37 37.4993 120.428 37.6336 120.468 37.7888C120.508 37.9432 120.522 38.1164 120.51 38.3099L120.476 38.5503L120.291 39.7467C120.339 39.649 120.387 39.5491 120.436 39.4495C120.503 39.3178 120.58 39.1681 120.678 39.0023C120.737 38.8933 120.783 38.8051 120.819 38.7359C120.857 38.6664 120.89 38.6166 120.915 38.5855C121.178 38.143 121.459 37.8089 121.76 37.5835C122.133 37.3039 122.541 37.1787 122.991 37.205C123.344 37.2256 123.604 37.365 123.771 37.6223C123.912 37.8374 123.97 38.1397 123.951 38.5248L123.911 38.796L123.235 43.279C123.227 43.425 123.145 43.4939 122.983 43.4832L121.756 43.4111C121.626 43.4041 121.565 43.3262 121.573 43.1806L122.107 39.5268L122.159 39.2014C122.167 39.0518 122.094 38.9649 121.933 38.9423C121.78 38.9339 121.616 39.0192 121.445 39.2032L121.087 39.6863C120.888 39.9717 120.708 40.2521 120.55 40.5269C120.395 40.8047 120.261 41.0652 120.155 41.3123C119.955 41.8133 119.84 42.3788 119.8 43.0107C119.789 43.1988 119.704 43.2896 119.542 43.28L118.319 43.2076C118.187 43.1988 118.124 43.1209 118.132 42.9753L118.679 39.3017L118.719 38.9975C118.706 38.8464 118.628 38.7601 118.482 38.7373C118.311 38.7278 118.122 38.8339 117.927 39.0583L117.529 39.6315L116.828 40.8201C116.564 41.3555 116.408 42.0402 116.358 42.8702C116.351 43.017 116.264 43.0854 116.105 43.0755L114.921 43.0052C114.796 42.9983 114.74 42.9214 114.75 42.7747L115.598 37.1055C115.607 36.9664 115.687 36.8998 115.832 36.9086L117.025 36.9789C117.157 36.9865 117.219 37.0624 117.21 37.2014L116.84 39.5417L116.84 39.5417ZM110.872 39.7211L110.829 39.6332C110.845 39.5549 110.879 39.4942 110.928 39.4492L113.326 37.0012C113.395 36.9368 113.483 36.9061 113.593 36.9094L115.006 36.9686C115.076 36.9727 115.118 36.9957 115.139 37.0389C115.135 37.0898 115.098 37.1542 115.028 37.234L112.589 39.6157L114.127 42.7608C114.132 42.7717 114.142 42.797 114.153 42.8351C114.163 42.8713 114.171 42.9058 114.175 42.9346C114.173 43.0316 114.106 43.077 113.973 43.0715L112.469 43.0082C112.354 43.0034 112.279 42.9643 112.244 42.8918L110.872 39.7211V39.7211ZM108.73 42.6313L109.483 36.9573C109.51 36.8454 109.581 36.7747 109.7 36.7465L110.895 36.797C111.027 36.8032 111.088 36.8787 111.084 37.0246L110.333 42.6993C110.326 42.845 110.245 42.9149 110.09 42.9097L108.91 42.8596C108.784 42.8548 108.723 42.7784 108.73 42.6313ZM105.46 39.1845C105.898 39.2032 106.294 39.1556 106.651 39.0404C107.128 38.883 107.373 38.6162 107.389 38.2451C107.402 37.87 107.222 37.6738 106.843 37.6589C106.473 37.6435 106.151 37.8023 105.884 38.1387C105.721 38.3483 105.577 38.6949 105.46 39.1845ZM105.312 40.2678C105.298 40.673 105.404 41.0144 105.634 41.2966C105.868 41.5392 106.207 41.6691 106.649 41.687C106.773 41.6921 106.887 41.6904 106.991 41.6801C107.09 41.6684 107.216 41.6475 107.37 41.6102L108.147 41.3749C108.238 41.3789 108.279 41.4312 108.274 41.5363L108.158 42.3769C108.149 42.598 107.86 42.7546 107.292 42.8461L106.709 42.8965L106.071 42.9072C105.325 42.8757 104.745 42.6598 104.332 42.2645C103.918 41.8674 103.725 41.2954 103.756 40.5449L103.764 40.3568L103.794 40.1489C103.859 39.6585 103.971 39.2083 104.138 38.801C104.303 38.393 104.524 38.0175 104.798 37.675C105.417 36.8888 106.207 36.5167 107.167 36.5558C107.42 36.5668 107.649 36.6013 107.849 36.6609C108.05 36.7175 108.228 36.8061 108.377 36.9236C108.709 37.1813 108.868 37.53 108.849 37.9754L108.84 38.1492C108.824 38.5218 108.702 38.8633 108.472 39.1718C108.356 39.3174 108.223 39.4488 108.073 39.5685C107.921 39.6874 107.743 39.7928 107.538 39.8887C107.231 40.0259 106.887 40.1288 106.51 40.1961C106.135 40.2627 105.735 40.2857 105.312 40.2678V40.2678ZM103.684 36.7798C103.687 36.633 103.618 36.5594 103.479 36.5551L102.349 36.5269C102.266 36.5247 102.194 36.5515 102.126 36.6016C102.119 36.6173 102.113 36.633 102.111 36.6499C102.095 36.6938 102.081 36.7297 102.071 36.7623L101.828 38.9244L99.9013 38.876L100.153 36.6938C100.154 36.6327 100.145 36.5774 100.123 36.5266C100.104 36.5225 100.091 36.5182 100.087 36.5141L99.9808 36.4687L98.7862 36.4406C98.6337 36.4369 98.5555 36.5082 98.5511 36.6547L97.8942 42.3417C97.8902 42.4874 97.9508 42.5616 98.0829 42.5642L99.2686 42.5942C99.4156 42.5972 99.4917 42.5273 99.4932 42.3802L99.7602 40.0581L101.693 40.1053L101.427 42.4267C101.428 42.4943 101.436 42.5503 101.459 42.5942L101.614 42.6514L102.804 42.6802C102.951 42.6839 103.028 42.6129 103.031 42.4662L103.684 36.7798ZM92.3223 40.0127C92.2001 40.3758 92.064 40.7081 91.9101 41.0053C91.7557 41.3021 91.5776 41.5721 91.3764 41.8126C90.8677 42.4274 90.2869 42.7326 89.6322 42.7286C89.3038 42.7257 89.0431 42.6221 88.8521 42.4171C88.6612 42.2126 88.5669 41.9359 88.5698 41.5897L88.5932 41.3697L89.0533 36.6725C89.0558 36.5254 89.1319 36.4537 89.2852 36.4533L90.513 36.4636C90.645 36.4636 90.7068 36.5364 90.7083 36.6825L90.3473 40.3794L90.3282 40.4819L90.344 40.853C90.344 40.9054 90.4025 40.932 90.5235 40.9332C90.6614 40.9349 90.8443 40.8245 91.0772 40.6045C91.1826 40.4915 91.2916 40.3513 91.4042 40.1844C91.5202 40.016 91.6457 39.8119 91.7879 39.5699C92.1097 39.0176 92.3318 38.5464 92.4558 38.1543C92.5164 37.9604 92.5611 37.7466 92.5962 37.511C92.6284 37.2754 92.6467 37.0229 92.6481 36.7501C92.6492 36.5683 92.7293 36.4782 92.8865 36.4794L94.0598 36.487C94.193 36.4881 94.2589 36.5617 94.257 36.7084L93.6963 42.4142C93.6981 42.5609 93.6155 42.633 93.4549 42.632L92.2802 42.6246C92.1559 42.6236 92.0948 42.55 92.0948 42.4028L92.3223 40.0127L92.3223 40.0127ZM82.8072 40.1266C82.6971 40.4936 82.5735 40.8311 82.4291 41.1325C82.2861 41.436 82.1178 41.7115 81.924 41.9582C81.4379 42.5913 80.8693 42.9163 80.216 42.935C79.8864 42.9441 79.6228 42.8479 79.4224 42.6507C79.2249 42.4533 79.1213 42.1793 79.1115 41.8334L79.1265 41.6131L79.4242 36.902C79.4184 36.7553 79.4933 36.6806 79.6473 36.6758L80.8751 36.6418C81.006 36.6378 81.0747 36.7091 81.0781 36.8552L80.8451 40.5624L80.8312 40.6652L80.8583 41.0349C80.8612 41.0872 80.9212 41.1132 81.0415 41.1095C81.179 41.1062 81.3579 40.9885 81.5835 40.7612C81.6863 40.6459 81.7887 40.5013 81.897 40.3293C82.0026 40.158 82.1255 39.9501 82.2587 39.7031C82.5608 39.1399 82.766 38.6602 82.8753 38.2642C82.9295 38.0683 82.9664 37.8539 82.9923 37.6168C83.0183 37.3793 83.0274 37.1274 83.0183 36.8541C83.0131 36.6725 83.0914 36.5793 83.2484 36.5749L84.4209 36.5423C84.5519 36.539 84.6225 36.61 84.6254 36.756L84.2651 42.4783C84.2702 42.625 84.189 42.7 84.0285 42.7051L82.8592 42.7381C82.7327 42.7414 82.6676 42.6696 82.6639 42.5233L82.8072 40.1266L82.8072 40.1266ZM75.1495 39.776L75.099 39.6918C75.107 39.6128 75.1367 39.5498 75.1857 39.5015L77.4068 36.8918C77.4683 36.8226 77.556 36.7853 77.6658 36.7824L79.0804 36.7421C79.1484 36.7403 79.1927 36.7608 79.2165 36.8032C79.2161 36.8541 79.1854 36.9211 79.1184 37.0052L76.8538 39.5516L78.6046 42.5818C78.6116 42.5924 78.6232 42.6155 78.6349 42.6546C78.6499 42.6898 78.6595 42.7235 78.6693 42.7527C78.6708 42.849 78.6071 42.8988 78.4751 42.9013L76.9708 42.9448C76.8549 42.9482 76.7767 42.9134 76.7372 42.8428L75.1495 39.776L75.1495 39.776ZM73.2148 42.8303L73.5703 37.1161C73.5882 37.0023 73.6547 36.9273 73.7714 36.8914L74.9666 36.8581C75.0983 36.8545 75.1659 36.9251 75.1696 37.0711L74.8156 42.7849C74.8211 42.931 74.7461 43.0074 74.5917 43.0112L73.4085 43.0429C73.2824 43.0466 73.2188 42.9763 73.2148 42.8303V42.8303ZM70.9464 39.8718L70.9329 39.65L70.9238 39.4909C70.8982 39.088 70.8173 38.7812 70.6835 38.5716C70.509 38.3015 70.2684 38.177 69.9604 38.1969C69.5438 38.2232 69.2385 38.5038 69.0446 39.0334C68.9491 39.3661 68.8768 39.8507 68.8325 40.487L68.8241 40.7066L68.839 40.9397C68.8646 41.3595 68.9568 41.7031 69.1141 41.9692C69.2721 42.2177 69.5167 42.33 69.8427 42.3099C70.2439 42.2847 70.5434 42.027 70.7431 41.5381C70.8345 41.2604 70.9018 40.7047 70.9464 39.8718V39.8718ZM72.6113 39.8799C72.597 40.3746 72.5326 40.8201 72.4214 41.2153C72.3121 41.6116 72.1416 41.9732 71.9142 42.2989C71.4241 43.0352 70.7233 43.4312 69.8101 43.4894C69.0303 43.5381 68.4071 43.3559 67.9477 42.9412C67.4876 42.5247 67.2312 41.926 67.1823 41.1469L67.1691 40.9358L67.1775 40.7044C67.1676 40.5621 67.1632 40.4321 67.1632 40.3135C67.1606 40.1961 67.168 40.0833 67.1838 39.9798C67.2027 39.7537 67.2544 39.5183 67.338 39.2772C67.4526 38.8789 67.6427 38.5002 67.9061 38.1397C68.3906 37.4433 69.0793 37.066 69.9658 37.0097C70.7541 36.9606 71.3791 37.1484 71.8392 37.5743C72.2989 37.9995 72.5546 38.6257 72.6054 39.4495L72.623 39.7127L72.6113 39.8799L72.6113 39.8799ZM66.8447 42.1716L66.8501 43.0529C66.8655 43.2391 66.6227 43.4129 66.1216 43.5743L65.5536 43.7171L65.035 43.8063C64.2747 43.8682 63.6763 43.705 63.2403 43.3164C62.8033 42.9288 62.5576 42.3996 62.503 41.7302L62.4767 41.4085C62.4654 41.2662 62.4599 41.1388 62.457 41.0232C62.4558 40.9097 62.4635 40.7948 62.4778 40.6832C62.495 40.4728 62.5389 40.2309 62.6138 39.9571C62.7243 39.5531 62.9054 39.1494 63.1559 38.745C63.6774 37.9047 64.4279 37.4433 65.414 37.3643C65.7175 37.3394 66.0376 37.3566 66.3732 37.4148C66.709 37.4718 66.8827 37.5729 66.8941 37.7185L66.9061 37.8572C66.9112 37.9249 66.9087 37.9875 66.8985 38.0475L66.8918 38.6115C66.8985 38.6975 66.8542 38.7443 66.758 38.7527C66.6758 38.7596 66.5276 38.7176 66.3125 38.629C66.0993 38.5409 65.8938 38.5045 65.7025 38.52C65.1755 38.562 64.7648 38.86 64.467 39.4111C64.2824 39.7807 64.1752 40.3169 64.1455 41.0239C64.1639 41.2552 64.196 41.4513 64.2414 41.6175C64.2879 41.7833 64.3562 41.9304 64.4495 42.0585C64.6642 42.4058 64.9579 42.5661 65.3316 42.5357L65.6194 42.502C65.6744 42.4904 65.7321 42.4739 65.7888 42.4567C65.8488 42.4373 65.9183 42.4061 66.0005 42.3648L66.728 42.0468C66.7657 42.0442 66.8059 42.0849 66.8447 42.1716Z" fill="#DA251D"/>
<path fill-rule="evenodd" clip-rule="evenodd" d="M25.4347 97.9246C52.2513 90.0176 94.9576 82.0227 137.056 94.6558C141.31 95.9327 139.698 101.107 135.649 99.8434C101.363 89.1272 64.2796 89.66 26.2343 99.5422C24.8152 99.9111 24.2315 99.612 24.0888 99.3878C23.9337 99.1429 23.7721 98.4157 25.4347 97.9246L25.4347 97.9246Z" fill="#222B7B"/>
<path fill-rule="evenodd" clip-rule="evenodd" d="M95.9439 89.5333C97.082 88.6949 98.4261 88.2891 99.9479 88.378C100.453 88.4094 100.954 88.4889 101.438 88.6363C101.94 88.7898 102.412 89.0308 102.82 89.3625C103.766 90.1258 104.209 91.197 104.138 92.4062L104.122 92.6986C104.067 93.6388 103.733 94.5036 103.15 95.2438C102.875 95.593 102.551 95.8982 102.198 96.1665C102.054 96.277 101.902 96.3795 101.747 96.475C102.631 96.6788 103.195 97.5158 103.058 98.4541L102.849 99.8511C102.641 101.265 101.243 101.821 99.986 101.908L98.9641 101.978L97.8431 101.976C96.3539 101.974 94.9494 101.479 93.8763 100.426C93.85 100.399 93.8219 100.373 93.7948 100.345C93.2974 100.951 92.4562 101.268 91.6688 101.395L90.649 101.559L89.7197 101.638C88.1807 101.768 86.7295 101.267 85.6469 100.166C85.4231 100.97 84.7384 101.507 83.8449 101.533L81.8667 101.588C81.5119 101.599 81.1856 101.515 80.9099 101.361C80.6173 101.581 80.2501 101.718 79.8346 101.744L77.8856 101.866C77.2412 101.908 76.6812 101.64 76.3268 101.193C75.5387 101.855 74.5969 102.278 73.4968 102.349C72.5762 102.405 71.7087 102.148 71.028 101.516C70.8013 101.305 70.6071 101.07 70.4502 100.815L70.4381 101.942C70.4305 102.604 70.4027 103.219 70.1671 103.849C69.9268 104.489 69.5431 105.045 69.0512 105.518C68.0977 106.435 66.8758 106.864 65.5745 106.97C65.0578 107.011 64.5395 107.01 64.0216 106.969C62.8421 106.872 61.5943 106.301 61.6104 104.921L61.6195 104.175L61.625 103.551C61.6301 102.741 62.1184 102.074 62.8765 101.795L63.1193 101.704L63.9244 101.69L64.5008 101.876C64.5099 101.879 64.5202 101.884 64.5307 101.888C64.5922 101.774 64.6097 101.626 64.6123 101.504L64.718 91.1315C64.722 90.7304 64.8285 90.3659 65.0172 90.0629C64.7483 89.7182 64.598 89.2874 64.5607 88.8267C64.5154 88.2664 64.4894 87.5923 64.6902 87.0601C65.0479 86.1167 65.9074 85.6438 66.8795 85.5648L68.1881 85.4597C68.7433 85.4163 69.2977 85.4824 69.7638 85.7983C70.3621 86.1763 70.6605 86.8428 70.6733 87.5435L70.689 88.4281C70.6986 88.9481 70.5339 89.4286 70.2457 89.8476C70.2871 89.911 70.3262 89.9779 70.3595 90.0464C70.6273 89.3987 71.2226 88.9599 71.998 88.9112L74.0388 88.7838C75.0321 88.7213 75.8357 89.3833 75.9871 90.3164L76.196 90.2909C76.2782 89.3379 76.9698 88.5991 77.9833 88.5342L79.9353 88.412C80.1773 88.397 80.407 88.424 80.6217 88.4892C80.5525 88.274 80.5113 88.038 80.5039 87.7873C80.4886 87.2241 80.4988 86.5493 80.7274 86.0277C81.1297 85.1124 82.0031 84.6785 82.9719 84.6513L84.229 84.6155C84.8021 84.6009 85.362 84.7147 85.8284 85.0605C86.4036 85.4853 86.6984 86.15 86.675 86.8596L86.6443 87.709C86.6289 88.2436 86.4245 88.7461 86.0778 89.1337C86.1523 89.2643 86.2083 89.403 86.2493 89.5516L86.8747 89.5414C88.0392 88.4819 89.4904 87.9403 91.1659 87.9531C91.8278 87.9571 92.4851 88.0551 93.1233 88.2228C93.869 88.4182 94.5775 88.808 94.9015 89.4616C95.107 89.4696 95.2647 89.4799 95.3598 89.4945C95.5225 89.5168 95.7237 89.5282 95.9439 89.5333L95.9439 89.5333Z" fill="#0C1C8C"/>
<path d="M96.9378 94.2319C97.6649 94.2747 98.3284 94.207 98.9274 94.0254C99.7226 93.777 100.14 93.3411 100.176 92.7233C100.213 92.0994 99.9141 91.7667 99.2759 91.7287C98.6527 91.6917 98.1188 91.9508 97.6751 92.5012C97.3914 92.8445 97.147 93.4187 96.9378 94.2319ZM96.6632 96.0325C96.6218 96.7051 96.7901 97.2748 97.1671 97.7536C97.5479 98.1638 98.1096 98.39 98.8462 98.4327C99.2186 98.4559 99.618 98.4178 100.039 98.3249L101.349 97.956C101.491 97.964 101.555 98.0547 101.546 98.2282L101.338 99.6262C101.317 99.9951 100.831 100.246 99.8813 100.382L98.9128 100.45L97.8481 100.448C96.6061 100.375 95.6402 100.002 94.946 99.3356C94.6139 99.0004 94.3729 98.592 94.2237 98.1158C94.0719 97.6405 94.0174 97.0838 94.0536 96.4485L94.0708 96.1353L94.137 95.7898C94.2566 94.9726 94.4603 94.2275 94.7482 93.5549C95.0334 92.8785 95.4138 92.26 95.8782 91.6983C96.9298 90.4068 98.2556 89.8085 99.8578 89.9043C100.278 89.9295 100.657 89.9944 100.988 90.0972C101.319 90.1985 101.613 90.3511 101.861 90.551C102.406 90.9905 102.657 91.5761 102.613 92.3157L102.597 92.607C102.561 93.2248 102.344 93.7901 101.951 94.2989C101.761 94.5363 101.534 94.7515 101.276 94.9481C101.022 95.1409 100.722 95.3111 100.38 95.4655C99.8619 95.684 99.2855 95.8457 98.6578 95.9457C98.0284 96.0456 97.3624 96.0727 96.6631 96.0324L96.6632 96.0325ZM92.8321 97.6647L92.7099 99.1271C92.7099 99.4381 92.2791 99.6906 91.4272 99.886L90.4639 100.041L89.5913 100.115C88.3218 100.105 87.3511 99.748 86.6841 99.0402C86.0162 98.334 85.6845 97.4213 85.6911 96.3014L85.6954 95.7642C85.698 95.5273 85.7028 95.3126 85.7182 95.1222C85.7306 94.9323 85.7598 94.7431 85.8001 94.5608C85.8568 94.2143 85.9683 93.8191 86.1314 93.374C86.3746 92.7215 86.7337 92.0777 87.2045 91.445C88.1927 90.1242 89.5064 89.4691 91.1555 89.4809C91.6595 89.4842 92.1899 89.5577 92.7352 89.7012C93.2878 89.8458 93.5599 90.0397 93.5588 90.2838L93.558 90.5159C93.5573 90.6297 93.5434 90.7325 93.5193 90.8291L93.4238 91.7634C93.4238 91.9095 93.3445 91.9816 93.1828 91.9797C93.045 91.979 92.8025 91.8882 92.463 91.7088C92.1171 91.5332 91.7839 91.4417 91.465 91.4392C90.5824 91.434 89.8594 91.8674 89.2859 92.7388C88.9249 93.3243 88.6699 94.2004 88.5189 95.3675C88.5149 95.7532 88.5413 96.0859 88.5899 96.3684C88.6426 96.6472 88.7369 96.9013 88.8712 97.1274C89.1779 97.7371 89.6425 98.0452 90.2668 98.0485L90.7473 98.0336C90.8431 98.0226 90.9412 98.0046 91.0385 97.983C91.1383 97.9607 91.2591 97.9197 91.402 97.8611L92.6517 97.441C92.7168 97.4417 92.7772 97.516 92.8321 97.6647V97.6647ZM82.0326 87.7432C82.0139 87.1771 82.0469 86.8097 82.1259 86.6439C82.2484 86.3475 82.5465 86.1923 83.0157 86.1784L84.2716 86.1444C84.5653 86.1363 84.7789 86.185 84.9223 86.2915C85.0668 86.3969 85.1384 86.567 85.1487 86.809L85.119 87.6569C85.0894 87.9072 84.9804 88.1027 84.7862 88.2469C84.6919 88.2966 84.5847 88.3372 84.46 88.3676C84.3353 88.3983 84.1959 88.4152 84.0401 88.4189L82.8694 88.4493C82.3267 88.4668 82.0461 88.2307 82.0326 87.7432L82.0326 87.7432ZM81.5092 99.7019L82.0966 90.1502C82.0929 89.9306 82.2114 89.8183 82.4543 89.8109L84.4468 89.755C84.6677 89.7498 84.7774 89.8563 84.7841 90.0751L84.1933 99.6268C84.201 99.8702 84.0712 99.9957 83.8021 100.004L81.8234 100.059C81.6212 100.065 81.5159 99.9453 81.5092 99.7019H81.5092ZM77.5497 95.9984C77.3936 96.615 77.2049 97.1826 76.9826 97.6942C76.7609 98.2066 76.4986 98.6746 76.1874 99.0962C75.4168 100.179 74.4889 100.753 73.4013 100.822C72.8526 100.857 72.4105 100.714 72.0685 100.395C71.7272 100.079 71.536 99.6287 71.4998 99.0534L71.5137 98.6853L71.7339 90.8265C71.7177 90.5824 71.8392 90.454 72.0952 90.4375L74.1341 90.3094C74.354 90.2944 74.4692 90.41 74.486 90.6527L74.3122 96.8368L74.2951 97.0084L74.3639 97.6218C74.3672 97.7092 74.471 97.7488 74.6718 97.7363C74.8982 97.7224 75.1929 97.5171 75.5554 97.1248C75.7164 96.9257 75.8813 96.6797 76.0485 96.3881C76.2185 96.096 76.4087 95.7426 76.6142 95.3232C77.0846 94.3687 77.4001 93.5599 77.5578 92.8931C77.638 92.5656 77.6884 92.2058 77.718 91.8088C77.7443 91.412 77.7451 90.9916 77.7166 90.5378C77.6972 90.2358 77.8197 90.0767 78.0797 90.0602L80.032 89.9373C80.2511 89.9233 80.3688 90.0386 80.3827 90.283L80.1165 99.8268C80.1308 100.071 80.0061 100.201 79.7384 100.218L77.7898 100.341C77.5801 100.354 77.469 100.238 77.4521 99.9957L77.5497 95.9984V95.9984ZM66.0839 88.7042C66.0374 88.1393 66.0517 87.7718 66.1194 87.6001C66.2269 87.299 66.5224 87.1273 67.0019 87.0878L68.3106 86.9835C68.6111 86.9598 68.8182 86.9919 68.9257 87.0775C69.0504 87.1438 69.1239 87.3088 69.1466 87.5723L69.1616 88.4562C69.1433 88.6838 69.0683 88.8836 68.9326 89.0556C68.7973 89.1672 68.5863 89.2367 68.2941 89.2599L66.9994 89.3645C66.8944 89.3722 66.7938 89.3653 66.6852 89.3433C66.5795 89.325 66.476 89.2901 66.3674 89.2441C66.2017 89.1442 66.1044 88.9648 66.0839 88.7042H66.0839ZM69.0307 90.9224L68.9103 101.927C68.951 102.43 68.8928 102.891 68.7381 103.31C68.5794 103.728 68.33 104.098 67.992 104.416C67.3834 105.015 66.5367 105.357 65.453 105.446C65.0247 105.48 64.5903 105.478 64.1448 105.444C63.4967 105.389 63.1617 105.221 63.1383 104.941L63.1477 104.187L63.1529 103.56C63.1408 103.405 63.2228 103.295 63.4041 103.227L63.6971 103.222L64.0292 103.331C64.2991 103.417 64.4916 103.453 64.6096 103.443C65.0741 103.406 65.4377 103.218 65.7043 102.875C65.9672 102.535 66.1147 102.084 66.1391 101.519L66.2474 91.1468C66.2255 90.892 66.3433 90.7525 66.5978 90.7331L68.6536 90.5666C68.884 90.548 69.0094 90.6677 69.0307 90.9224H69.0307Z" fill="#FFF500"/>
<path d="M96.9378 94.2319C97.6649 94.2747 98.3284 94.207 98.9274 94.0254C99.7226 93.777 100.14 93.3411 100.176 92.7233C100.213 92.0994 99.9141 91.7667 99.2759 91.7287C98.6527 91.6917 98.1188 91.9508 97.6751 92.5012C97.3914 92.8445 97.147 93.4187 96.9378 94.2319V94.2319ZM96.6632 96.0325C96.6218 96.7051 96.7901 97.2748 97.1671 97.7536C97.5479 98.1638 98.1096 98.39 98.8462 98.4327C99.2186 98.4559 99.6179 98.4178 100.039 98.3249L101.349 97.956C101.491 97.964 101.555 98.0547 101.546 98.2282L101.338 99.6262C101.317 99.9951 100.831 100.246 99.8813 100.382L98.9128 100.45L97.8481 100.448C96.6061 100.375 95.6402 100.002 94.946 99.3356C94.6139 99.0004 94.3729 98.592 94.2237 98.1158C94.0719 97.6405 94.0174 97.0838 94.0536 96.4485L94.0708 96.1353L94.137 95.7898C94.2566 94.9726 94.4603 94.2275 94.7482 93.5549C95.0334 92.8785 95.4138 92.26 95.8782 91.6983C96.9298 90.4068 98.2556 89.8085 99.8578 89.9043C100.278 89.9295 100.657 89.9944 100.988 90.0972C101.319 90.1985 101.613 90.3511 101.861 90.551C102.406 90.9905 102.657 91.5761 102.613 92.3157L102.597 92.607C102.561 93.2248 102.344 93.7901 101.951 94.2989C101.761 94.5363 101.534 94.7515 101.276 94.9481C101.022 95.1409 100.722 95.3111 100.38 95.4655C99.8619 95.684 99.2855 95.8457 98.6578 95.9457C98.0284 96.0456 97.3624 96.0727 96.6631 96.0324L96.6632 96.0325ZM92.8321 97.6647L92.7099 99.1271C92.7099 99.4381 92.2791 99.6906 91.4272 99.886L90.4639 100.041L89.5913 100.115C88.3218 100.105 87.3511 99.748 86.6841 99.0402C86.0162 98.334 85.6845 97.4213 85.6911 96.3014L85.6954 95.7642C85.698 95.5273 85.7028 95.3126 85.7182 95.1222C85.7306 94.9323 85.7598 94.7431 85.8001 94.5608C85.8568 94.2143 85.9683 93.8191 86.1314 93.374C86.3746 92.7215 86.7337 92.0777 87.2045 91.445C88.1927 90.1242 89.5064 89.4691 91.1555 89.4809C91.6595 89.4842 92.1899 89.5577 92.7352 89.7012C93.2878 89.8458 93.5599 90.0397 93.5588 90.2838L93.558 90.5159C93.5573 90.6297 93.5434 90.7325 93.5193 90.8291L93.4238 91.7634C93.4238 91.9095 93.3445 91.9816 93.1828 91.9797C93.045 91.979 92.8025 91.8882 92.463 91.7088C92.1171 91.5332 91.7839 91.4417 91.465 91.4392C90.5824 91.434 89.8594 91.8674 89.2859 92.7388C88.9249 93.3243 88.6699 94.2004 88.5189 95.3675C88.5149 95.7532 88.5413 96.0859 88.5899 96.3684C88.6426 96.6472 88.7369 96.9013 88.8712 97.1274C89.1779 97.7371 89.6425 98.0452 90.2668 98.0485L90.7473 98.0336C90.8431 98.0226 90.9412 98.0046 91.0385 97.983C91.1383 97.9607 91.2591 97.9197 91.402 97.8611L92.6517 97.441C92.7168 97.4417 92.7772 97.516 92.8321 97.6647V97.6647ZM82.0326 87.7432C82.0139 87.1771 82.0469 86.8097 82.1259 86.6439C82.2484 86.3475 82.5465 86.1923 83.0157 86.1784L84.2716 86.1444C84.5653 86.1363 84.7789 86.185 84.9223 86.2915C85.0668 86.3969 85.1384 86.567 85.1487 86.809L85.119 87.6569C85.0894 87.9072 84.9804 88.1027 84.7862 88.2469C84.6919 88.2966 84.5847 88.3372 84.46 88.3676C84.3353 88.3983 84.1959 88.4152 84.0401 88.4189L82.8694 88.4493C82.3267 88.4668 82.0461 88.2307 82.0326 87.7432L82.0326 87.7432ZM81.5092 99.7019L82.0966 90.1502C82.0929 89.9306 82.2114 89.8183 82.4543 89.8109L84.4468 89.755C84.6677 89.7498 84.7774 89.8563 84.7841 90.0751L84.1933 99.6268C84.201 99.8702 84.0712 99.9957 83.8021 100.004L81.8234 100.059C81.6212 100.065 81.5159 99.9453 81.5092 99.7019H81.5092ZM77.5497 95.9984C77.3936 96.615 77.2049 97.1826 76.9826 97.6942C76.7609 98.2066 76.4986 98.6746 76.1874 99.0962C75.4168 100.179 74.4889 100.753 73.4013 100.822C72.8526 100.857 72.4105 100.714 72.0685 100.395C71.7272 100.079 71.536 99.6287 71.4998 99.0534L71.5137 98.6853L71.7339 90.8265C71.7177 90.5824 71.8392 90.454 72.0952 90.4375L74.1341 90.3094C74.354 90.2944 74.4692 90.41 74.486 90.6527L74.3122 96.8368L74.2951 97.0084L74.3639 97.6218C74.3672 97.7092 74.471 97.7488 74.6718 97.7363C74.8982 97.7224 75.1929 97.5171 75.5554 97.1248C75.7164 96.9257 75.8813 96.6797 76.0485 96.3881C76.2185 96.096 76.4087 95.7426 76.6142 95.3232C77.0846 94.3687 77.4001 93.5599 77.5578 92.8931C77.638 92.5656 77.6884 92.2058 77.718 91.8088C77.7443 91.412 77.7451 90.9916 77.7166 90.5378C77.6972 90.2358 77.8197 90.0767 78.0797 90.0602L80.032 89.9373C80.2511 89.9233 80.3688 90.0386 80.3827 90.283L80.1165 99.8268C80.1308 100.071 80.0061 100.201 79.7384 100.218L77.7898 100.341C77.5801 100.354 77.469 100.238 77.4521 99.9957L77.5497 95.9984V95.9984ZM66.0839 88.7042C66.0374 88.1393 66.0517 87.7718 66.1194 87.6001C66.2269 87.299 66.5224 87.1273 67.0019 87.0878L68.3106 86.9835C68.6111 86.9598 68.8182 86.9919 68.9257 87.0775C69.0504 87.1438 69.1239 87.3088 69.1466 87.5723L69.1616 88.4562C69.1433 88.6838 69.0683 88.8836 68.9326 89.0556C68.7973 89.1672 68.5863 89.2367 68.2941 89.2599L66.9994 89.3645C66.8944 89.3722 66.7938 89.3653 66.6852 89.3433C66.5795 89.325 66.476 89.2901 66.3674 89.2441C66.2017 89.1442 66.1044 88.9648 66.0839 88.7042H66.0839ZM69.0307 90.9224L68.9103 101.927C68.951 102.43 68.8928 102.891 68.7381 103.31C68.5794 103.728 68.33 104.098 67.992 104.416C67.3834 105.015 66.5367 105.357 65.453 105.446C65.0247 105.48 64.5903 105.478 64.1448 105.444C63.4967 105.389 63.1617 105.221 63.1383 104.941L63.1477 104.187L63.1529 103.56C63.1408 103.405 63.2228 103.295 63.4041 103.227L63.6971 103.222L64.0292 103.331C64.2991 103.417 64.4916 103.453 64.6096 103.443C65.0741 103.406 65.4377 103.218 65.7043 102.875C65.9672 102.535 66.1147 102.084 66.1391 101.519L66.2474 91.1468C66.2255 90.892 66.3433 90.7525 66.5978 90.7331L68.6536 90.5666C68.884 90.548 69.0094 90.6677 69.0307 90.9224H69.0307Z" stroke="#FFF500" stroke-width="0.345235" stroke-linecap="round" stroke-linejoin="round"/>
<path d="M96.9378 94.2319C97.6649 94.2747 98.3284 94.207 98.9274 94.0254C99.7226 93.777 100.14 93.3411 100.176 92.7233C100.213 92.0994 99.9141 91.7667 99.2759 91.7287C98.6527 91.6917 98.1188 91.9508 97.6751 92.5012C97.3914 92.8445 97.147 93.4187 96.9378 94.2319ZM96.6632 96.0325C96.6218 96.7051 96.7901 97.2748 97.1671 97.7536C97.5479 98.1638 98.1096 98.39 98.8462 98.4327C99.2186 98.4559 99.618 98.4178 100.039 98.3249L101.349 97.956C101.491 97.964 101.555 98.0547 101.546 98.2282L101.338 99.6262C101.317 99.9951 100.831 100.246 99.8813 100.382L98.9128 100.45L97.8481 100.448C96.6061 100.375 95.6402 100.002 94.946 99.3356C94.6139 99.0004 94.3729 98.592 94.2237 98.1158C94.0719 97.6405 94.0174 97.0838 94.0536 96.4485L94.0708 96.1353L94.137 95.7898C94.2566 94.9726 94.4603 94.2275 94.7482 93.5549C95.0334 92.8785 95.4138 92.26 95.8782 91.6983C96.9298 90.4068 98.2556 89.8085 99.8578 89.9043C100.278 89.9295 100.657 89.9944 100.988 90.0972C101.319 90.1985 101.613 90.3511 101.861 90.551C102.406 90.9905 102.657 91.5761 102.613 92.3157L102.597 92.607C102.561 93.2248 102.344 93.7901 101.951 94.2989C101.761 94.5363 101.534 94.7515 101.276 94.9481C101.022 95.1409 100.722 95.3111 100.38 95.4655C99.8619 95.684 99.2855 95.8457 98.6578 95.9457C98.0284 96.0456 97.3624 96.0727 96.6631 96.0324L96.6632 96.0325ZM92.8321 97.6647L92.7099 99.1271C92.7099 99.4381 92.2791 99.6906 91.4272 99.886L90.4639 100.041L89.5913 100.115C88.3218 100.105 87.3511 99.748 86.6841 99.0402C86.0162 98.334 85.6845 97.4213 85.6911 96.3014L85.6954 95.7642C85.698 95.5273 85.7028 95.3126 85.7182 95.1222C85.7306 94.9323 85.7598 94.7431 85.8001 94.5608C85.8568 94.2143 85.9683 93.8191 86.1314 93.374C86.3746 92.7215 86.7337 92.0777 87.2045 91.445C88.1927 90.1242 89.5064 89.4691 91.1555 89.4809C91.6595 89.4842 92.1899 89.5577 92.7352 89.7012C93.2878 89.8458 93.5599 90.0397 93.5588 90.2838L93.558 90.5159C93.5573 90.6297 93.5434 90.7325 93.5193 90.8291L93.4238 91.7634C93.4238 91.9095 93.3445 91.9816 93.1828 91.9797C93.045 91.979 92.8025 91.8882 92.463 91.7088C92.1171 91.5332 91.7839 91.4417 91.465 91.4392C90.5824 91.434 89.8594 91.8674 89.2859 92.7388C88.9249 93.3243 88.6699 94.2004 88.5189 95.3675C88.5149 95.7532 88.5413 96.0859 88.5899 96.3684C88.6426 96.6472 88.7369 96.9013 88.8712 97.1274C89.1779 97.7371 89.6425 98.0452 90.2668 98.0485L90.7473 98.0336C90.8431 98.0226 90.9412 98.0046 91.0385 97.983C91.1383 97.9607 91.2591 97.9197 91.402 97.8611L92.6517 97.441C92.7168 97.4417 92.7772 97.516 92.8321 97.6647V97.6647ZM82.0326 87.7432C82.0139 87.1771 82.0469 86.8097 82.1259 86.6439C82.2484 86.3475 82.5465 86.1923 83.0157 86.1784L84.2716 86.1444C84.5653 86.1363 84.7789 86.185 84.9223 86.2915C85.0668 86.3969 85.1384 86.567 85.1487 86.809L85.119 87.6569C85.0894 87.9072 84.9804 88.1027 84.7862 88.2469C84.6919 88.2966 84.5847 88.3372 84.46 88.3676C84.3353 88.3983 84.1959 88.4152 84.0401 88.4189L82.8694 88.4493C82.3267 88.4668 82.0461 88.2307 82.0326 87.7432L82.0326 87.7432ZM81.5092 99.7019L82.0966 90.1502C82.0929 89.9306 82.2114 89.8183 82.4543 89.8109L84.4468 89.755C84.6677 89.7498 84.7774 89.8563 84.7841 90.0751L84.1933 99.6268C84.201 99.8702 84.0712 99.9957 83.8021 100.004L81.8234 100.059C81.6212 100.065 81.5159 99.9453 81.5092 99.7019H81.5092ZM77.5497 95.9984C77.3936 96.615 77.2049 97.1826 76.9826 97.6942C76.7609 98.2066 76.4986 98.6746 76.1874 99.0962C75.4168 100.179 74.4889 100.753 73.4013 100.822C72.8526 100.857 72.4105 100.714 72.0685 100.395C71.7272 100.079 71.536 99.6287 71.4998 99.0534L71.5137 98.6853L71.7339 90.8265C71.7177 90.5824 71.8392 90.454 72.0952 90.4375L74.1341 90.3094C74.354 90.2944 74.4692 90.41 74.486 90.6527L74.3122 96.8368L74.2951 97.0084L74.3639 97.6218C74.3672 97.7092 74.471 97.7488 74.6718 97.7363C74.8982 97.7224 75.1929 97.5171 75.5554 97.1248C75.7164 96.9257 75.8813 96.6797 76.0485 96.3881C76.2185 96.096 76.4087 95.7426 76.6142 95.3232C77.0846 94.3687 77.4001 93.5599 77.5578 92.8931C77.638 92.5656 77.6884 92.2058 77.718 91.8088C77.7443 91.412 77.7451 90.9916 77.7166 90.5378C77.6972 90.2358 77.8197 90.0767 78.0797 90.0602L80.032 89.9373C80.2511 89.9233 80.3688 90.0386 80.3827 90.283L80.1165 99.8268C80.1308 100.071 80.0061 100.201 79.7384 100.218L77.7898 100.341C77.5801 100.354 77.469 100.238 77.4521 99.9957L77.5497 95.9984V95.9984ZM66.0839 88.7042C66.0374 88.1393 66.0517 87.7718 66.1194 87.6001C66.2269 87.299 66.5224 87.1273 67.0019 87.0878L68.3106 86.9835C68.6111 86.9598 68.8182 86.9919 68.9257 87.0775C69.0504 87.1438 69.1239 87.3088 69.1466 87.5723L69.1616 88.4562C69.1433 88.6838 69.0683 88.8836 68.9326 89.0556C68.7973 89.1672 68.5863 89.2367 68.2941 89.2599L66.9994 89.3645C66.8944 89.3722 66.7938 89.3653 66.6852 89.3433C66.5795 89.325 66.476 89.2901 66.3674 89.2441C66.2017 89.1442 66.1044 88.9648 66.0839 88.7042H66.0839ZM69.0307 90.9224L68.9103 101.927C68.951 102.43 68.8928 102.891 68.7381 103.31C68.5794 103.728 68.33 104.098 67.992 104.416C67.3834 105.015 66.5367 105.357 65.453 105.446C65.0247 105.48 64.5903 105.478 64.1448 105.444C63.4967 105.389 63.1617 105.221 63.1383 104.941L63.1477 104.187L63.1529 103.56C63.1408 103.405 63.2228 103.295 63.4041 103.227L63.6971 103.222L64.0292 103.331C64.2991 103.417 64.4916 103.453 64.6096 103.443C65.0741 103.406 65.4377 103.218 65.7043 102.875C65.9672 102.535 66.1147 102.084 66.1391 101.519L66.2474 91.1468C66.2255 90.892 66.3433 90.7525 66.5978 90.7331L68.6536 90.5666C68.884 90.548 69.0094 90.6677 69.0307 90.9224H69.0307Z" fill="#FFF500"/>
<path fill-rule="evenodd" clip-rule="evenodd" d="M92.5887 9.75785H92.5709C92.1959 9.75857 91.8383 9.78233 91.4956 9.82995C93.6487 14.6134 92.998 20.3496 90.6642 25.8629C89.9291 27.5953 88.9167 29.1511 87.6809 30.4974L87.8579 30.6988C89.8165 32.8983 92.1082 34.2596 94.9755 34.6219C103.964 35.756 111.479 27.5493 110.392 19.8284C106.17 19.2034 101.514 15.9957 100.784 10.9999C99.7542 11.035 98.8329 11.1163 98.0254 10.8088C95.8159 10.1157 94.0659 9.75781 92.5887 9.75781L92.5887 9.75785Z" fill="url(#paint1_radial)"/>
<path d="M88.1891 29.9178C89.1953 28.7108 90.0317 27.3531 90.6652 25.8633C92.9272 20.5158 93.609 14.9549 91.68 10.2614C91.8172 10.0723 92.0692 10.1389 92.4002 10.6798C92.9858 11.6447 93.3859 12.7094 93.6521 13.8226C94.5767 17.6883 94.0684 20.982 93.2513 24.7947C92.2978 29.2627 91.717 32.9495 98.5673 33.1174L92.1695 32.9919L88.1891 29.9178L88.1891 29.9178Z" fill="#99CAB1"/>
<path d="M94.9756 34.6216C92.1082 34.2593 89.8165 32.8983 87.8577 30.6984L87.6813 30.4979C88.1019 30.0394 88.4969 29.5559 88.8645 29.0498L88.9099 29.1007C90.8673 31.2994 93.159 32.6597 96.027 33.0227C101.262 33.684 105.997 31.1731 108.823 27.4355C106.233 32.0247 100.928 35.3733 94.9756 34.6216V34.6216Z" fill="#99CAB1"/>
<path d="M107.127 7.54912L107.09 7.53408C105.673 6.92327 104.185 6.90138 102.593 7.08614C102.242 7.10523 101.446 7.46561 101.537 7.50514C101.339 8.98217 101.385 10.5113 101.878 11.9433C102.595 13.9751 104.162 15.3913 106.009 16.4007C106.094 16.4604 106.205 16.509 106.315 16.5573C108.008 17.3694 111.136 18.0025 113.413 17.817C113.779 17.7643 114.142 17.7335 114.444 17.6534C113.816 17.3009 113.349 16.7019 112.99 16.0962C112.572 15.4375 112.244 14.6364 111.89 13.8239C111.173 12.1083 110.478 10.2718 109.378 9.13704C109.334 9.11868 109.302 9.07334 109.265 9.03268C108.568 8.34614 107.857 7.86935 107.127 7.54911V7.54912Z" fill="#007A3D"/>
<path d="M99.9429 7.03781C99.9419 6.40511 98.5382 6.32751 98.2628 6.70149C98.3371 7.07557 99.2923 7.05544 99.4943 7.02318C99.3483 7.19777 98.4592 7.20732 98.2018 6.99797C98.4179 8.31835 98.5111 9.15387 98.1111 10.359C97.995 10.6972 98.8114 10.9599 98.9731 10.5906C99.4002 9.62411 99.8589 8.7026 99.9429 7.0378V7.03781Z" fill="#E15616"/>
<path fill-rule="evenodd" clip-rule="evenodd" d="M108.298 21.2463C109.228 23.6821 106.824 27.6159 104.93 28.4682C105.974 26.499 105.936 24.5879 105.482 22.3698C104.817 19.1247 107.514 19.1918 108.298 21.2463L108.298 21.2463Z" fill="white"/>
<path fill-rule="evenodd" clip-rule="evenodd" d="M94.7153 10.3647C95.4197 10.8664 95.8425 11.3081 96.2755 11.5932C97.6266 12.4544 98.8846 12.443 100.54 11.3938C98.4257 12.1693 97.7871 11.516 96.702 10.9773C95.8345 10.5711 95.581 10.446 94.7153 10.3648V10.3647Z" fill="white"/>
<path fill-rule="evenodd" clip-rule="evenodd" d="M69.9072 6.6482C69.6505 6.67714 69.3989 6.71044 69.1495 6.74706C68.7384 7.49543 68.2513 8.20324 67.6792 8.85316C65.5934 11.2187 62.7516 12.1176 59.704 12.6051C59.3364 12.6633 59.3642 12.661 59.2545 12.6588C59.2084 12.6578 59.1382 12.6566 59.0039 12.6599L58.7724 12.6643C56.5386 16.2255 56.5494 20.9974 59.2647 26.0686C63.2341 33.4838 73.0274 37.8446 81.3548 33.7711C86.9075 31.056 89.6406 25.2693 89.774 19.3506C89.9094 13.2653 87.279 7.05125 80.6998 4.8913C79.4844 4.48547 78.4245 4.32478 77.4809 4.3252C73.9811 4.3252 72.094 6.53669 69.9072 6.64832L69.9072 6.6482Z" fill="url(#paint2_radial)"/>
<path d="M81.3562 33.7703C73.4724 37.6261 64.2785 33.9254 59.9523 27.2309C64.7116 32.4122 72.6487 34.8562 79.5719 31.4687C85.1229 28.7537 87.8558 22.9673 87.9908 17.0485C88.0624 13.8647 87.3744 10.6456 85.7612 7.99121C88.656 10.9358 89.8674 15.173 89.7745 19.3504C89.6417 25.2688 86.9078 31.0562 81.3563 33.7703L81.3562 33.7703Z" fill="#EB891B"/>
<path fill-rule="evenodd" clip-rule="evenodd" d="M65.0442 14.9177C66.3444 12.8204 65.3832 11.9486 64.1427 12.0935C63.8892 12.1222 63.6507 12.1836 63.4265 12.2718C60.6627 13.3528 60.5215 17.5589 61.377 19.9641C61.7493 21.0133 62.3615 21.9765 63.2568 22.7761C62.6153 20.0365 63.2872 17.7522 65.0442 14.9177L65.0442 14.9177Z" fill="white"/>
<path d="M69.578 2.25497C66.922 2.16234 62.7207 2.75115 59.51 5.61599C62.9951 3.59143 67.5222 2.91921 70.1076 3.04473C69.5458 4.91337 68.6618 6.70545 67.2969 8.13268C62.9849 12.561 53.6088 11.5827 49.1417 7.84833C50.9824 7.49811 52.9944 6.01631 54.2766 4.73068C58.7353 0.258929 62.9445 -1.9756 69.578 2.25496V2.25497Z" fill="#007A3D"/>
<path fill-rule="evenodd" clip-rule="evenodd" d="M68.0523 8.70636C69.0884 8.7879 69.8082 8.98697 70.4326 9.01259C72.3596 9.05761 73.6122 8.22543 74.5672 6.01611C72.9678 8.23062 71.8926 7.94399 70.4494 8.06993C69.3094 8.19877 68.9714 8.23062 68.0523 8.70636V8.70636Z" fill="#E15616"/>
<path d="M70.7013 1.10933C70.9105 0.207951 72.9344 0.782558 73.2058 1.45188C72.9761 1.94671 71.624 1.45229 71.3453 1.30841C71.4934 1.62865 72.7555 2.07514 73.196 1.90314C72.4465 3.67624 71.8485 5.86584 72.0475 8.18865C72.0752 8.72291 70.7718 8.70133 70.7408 8.09788C70.4236 5.4871 70.2675 3.52074 70.7013 1.10934V1.10933Z" fill="#E15616"/>
<path d="M80.6576 10.3129C86.7039 13.3359 85.1945 31.0061 70.5091 32.8645C68.1026 33.1689 75.9243 35.7856 78.9463 34.6296C87.7752 31.2546 90.7277 16.1874 81.6436 9.91251C80.6499 9.22556 79.9185 9.94218 80.6576 10.3128L80.6576 10.3129Z" fill="#EB891B"/>
<path d="M59.1182 32.4402C59.0671 32.1386 59.0228 31.8356 58.9738 31.5376C57.6169 23.4272 54.3329 20.0594 48.8623 18.3003C44.6658 16.9507 40.5615 16.9067 36.372 16.0563C34.3089 15.6372 32.2432 14.943 30.9555 13.624C30.9526 14.3081 31.0813 15.0484 31.2082 15.8333C33.8945 29.4056 44.9186 40.0087 58.7153 33.8429C56.1504 30.6594 50.6028 25.9197 44.4995 23.7862C51.3533 24.7318 56.4404 29.1776 59.1182 32.4402L59.1182 32.4402Z" fill="#68B92E"/>
<path fill-rule="evenodd" clip-rule="evenodd" d="M58.7153 33.8432C56.15 30.6597 50.6029 25.9201 44.4996 23.7861C51.3534 24.7318 56.4404 29.1779 59.1184 32.4405C59.0672 32.1389 59.0229 31.8359 58.9743 31.5381C54.9998 13.7459 42.823 21.2218 34.1869 16.2666C36.4961 27.3283 46.0525 36.267 58.7153 33.8432L58.7153 33.8432Z" fill="url(#paint3_linear)"/>
<path fill-rule="evenodd" clip-rule="evenodd" d="M32.7557 15.6157C43.4627 18.8648 53.9813 17.2242 57.1054 27.0207C52.0143 18.8483 40.8715 19.4174 32.7557 15.6157Z" fill="white"/>
<path d="M31.2082 15.8335C33.8945 29.4052 44.9185 40.0089 58.7152 33.843C46.4163 37.8921 35.1355 27.6487 31.2082 15.8335Z" fill="#4CA277"/>
<path d="M136.451 19.2852C131.467 19.5267 127.379 17.4477 121.36 18.4335C117.145 19.1231 113.358 21.4747 110.973 26.9419C110.628 27.7306 110.369 28.5207 110.063 29.3178C112.94 26.3988 118.723 22.8727 125.211 23.6709C119.129 24.1997 113.213 27.731 110.052 30.7799C121.814 40.8303 137.429 31.6018 140.18 18.285C139.141 18.9452 137.826 19.2185 136.451 19.2852L136.451 19.2852Z" fill="#68B92E"/>
<path d="M110.052 30.7794C121.814 40.83 137.429 31.6014 140.18 18.2847C137.281 29.5949 121.626 38.2811 110.052 30.7794Z" fill="#4CA277"/>
<path fill-rule="evenodd" clip-rule="evenodd" d="M135.412 19.8376C126.261 19.2064 118.437 15.4154 111.535 26.4767C118.608 16.2694 128.117 21.2166 135.412 19.8376Z" fill="white"/>
<path d="M26.2068 35.0714C23.3697 32.5407 20.6464 29.0974 16.0389 29.2174C20.9368 31.8773 22.3329 35.8267 26.6844 37.6196C28.7446 38.4686 32.7443 38.5253 35.6998 36.7673C32.6511 38.5236 28.9304 37.4996 26.2068 35.0714L26.2068 35.0714Z" fill="#66AF8B"/>
<path d="M36.6306 36.132C36.8314 35.9718 37.0241 35.8005 37.2077 35.6172C37.0201 35.8042 36.8259 35.9732 36.6306 36.132Z" fill="#66AF8B"/>
<path d="M36.0105 36.5835C36.0251 36.5738 36.0396 36.5619 36.0542 36.5522C36.0396 36.5612 36.0251 36.5741 36.0105 36.5835Z" fill="#66AF8B"/>
<path d="M25.54 23.9402C24.463 22.8602 23.4523 21.4168 21.6043 21.3594C23.5043 22.5377 23.9717 24.1532 25.6731 24.9711C26.4777 25.3587 28.0713 25.4677 29.2946 24.8346C28.034 25.4625 26.5725 24.9736 25.54 23.9402V23.9402Z" fill="#7FBC9E"/>
<path d="M121.98 14.8447C123.432 13.0247 124.72 10.6664 127.515 10.2661C124.832 12.3751 124.396 14.9039 121.952 16.4326C120.797 17.1558 118.397 17.5891 116.44 16.8363C118.455 17.5762 120.587 16.587 121.98 14.8447L121.98 14.8447Z" fill="#7FBC9E"/>
<path fill-rule="evenodd" clip-rule="evenodd" d="M133.249 34.8004C133.512 35.0679 133.803 35.3 134.114 35.5053C134.182 35.551 134.256 35.581 134.329 35.6246C136.412 36.885 139.237 36.8788 140.703 36.291C143.797 35.0467 144.811 32.2511 148.304 30.3945C145.98 29.2684 143.578 28.7111 141.391 28.7114C137.187 28.7114 133.776 30.7696 133.249 34.8004L133.249 34.8004Z" fill="url(#paint4_linear)"/>
<path d="M141.056 34.4845C143.086 32.7067 145.038 30.2796 148.304 30.3946C144.812 32.2507 143.797 35.0467 140.703 36.2909C139.237 36.8787 136.412 36.885 134.329 35.6245C136.479 36.8795 139.111 36.1874 141.056 34.4845L141.056 34.4845Z" fill="#7FBC9E"/>
<path d="M137.782 68.2067C131.531 68.7794 126.786 72.4676 122.704 77.3518C124.724 75.5762 126.878 74.1796 129.384 73.4447C132.234 72.6396 135.29 72.7845 138.203 72.8361C133.911 73.5032 129.476 74.6477 125.588 76.864C123.629 78.0054 121.993 79.3621 120.268 80.8789C124.18 78.6919 127.787 78.4157 132.081 78.6715C135.567 78.8735 138.888 79.2683 142.371 78.5818C148.737 77.3759 154.144 73.6427 157.812 67.8081C152.199 71.1183 145.481 68.0237 139.42 68.1144C138.879 68.1233 138.334 68.154 137.782 68.2067L137.782 68.2067Z" stroke="#0C1C8C" stroke-width="0.345235" stroke-linecap="round" stroke-linejoin="round"/>
</g>
<defs>
<linearGradient id="paint0_linear" x1="49.3975" y1="80.6792" x2="49.3975" y2="48.768" gradientUnits="userSpaceOnUse">
<stop stop-color="#FAFAFD"/>
<stop offset="1" stop-color="#5560AE"/>
</linearGradient>
<radialGradient id="paint1_radial" cx="0" cy="0" r="1" gradientUnits="userSpaceOnUse" gradientTransform="translate(103.626 20.9371) scale(7.27496 7.27953)">
<stop stop-color="#91C81F"/>
<stop offset="1" stop-color="#00A539"/>
</radialGradient>
<radialGradient id="paint2_radial" cx="0" cy="0" r="1" gradientUnits="userSpaceOnUse" gradientTransform="translate(69.8869 18.0679) scale(7.70479 7.70963)">
<stop stop-color="#FFF000"/>
<stop offset="1" stop-color="#F3AE00"/>
</radialGradient>
<linearGradient id="paint3_linear" x1="47.8419" y1="13.8056" x2="45.4605" y2="36.207" gradientUnits="userSpaceOnUse">
<stop stop-color="#68B92E"/>
<stop offset="1" stop-color="#00A13A"/>
</linearGradient>
<linearGradient id="paint4_linear" x1="140.009" y1="28.3945" x2="141.548" y2="37.2013" gradientUnits="userSpaceOnUse">
<stop stop-color="#BBD900"/>
<stop offset="1" stop-color="#00A13A"/>
</linearGradient>
<clipPath id="clip0">
<rect width="161" height="107" fill="white"/>
</clipPath>
</defs>
</svg>
