<svg width="163" height="15" viewBox="0 0 163 15" fill="none" xmlns="http://www.w3.org/2000/svg">
<path d="M7.456 0.535999V1.8H1.952V5.808H6.656V7.072H1.952V12H0.392V0.535999H7.456ZM11.948 3.768C12.54 3.768 13.0733 3.86667 13.548 4.064C14.028 4.26133 14.4333 4.54133 14.764 4.904C15.1 5.26667 15.356 5.70667 15.532 6.224C15.7133 6.736 15.804 7.30933 15.804 7.944C15.804 8.584 15.7133 9.16 15.532 9.672C15.356 10.184 15.1 10.6213 14.764 10.984C14.4333 11.3467 14.028 11.6267 13.548 11.824C13.0733 12.016 12.54 12.112 11.948 12.112C11.356 12.112 10.82 12.016 10.34 11.824C9.86533 11.6267 9.46 11.3467 9.124 10.984C8.788 10.6213 8.52933 10.184 8.348 9.672C8.16667 9.16 8.076 8.584 8.076 7.944C8.076 7.30933 8.16667 6.736 8.348 6.224C8.52933 5.70667 8.788 5.26667 9.124 4.904C9.46 4.54133 9.86533 4.26133 10.34 4.064C10.82 3.86667 11.356 3.768 11.948 3.768ZM11.948 11C12.748 11 13.3453 10.7333 13.74 10.2C14.1347 9.66133 14.332 8.912 14.332 7.952C14.332 6.98667 14.1347 6.23467 13.74 5.696C13.3453 5.15733 12.748 4.888 11.948 4.888C11.5427 4.888 11.1907 4.95733 10.892 5.096C10.5933 5.23467 10.3427 5.43467 10.14 5.696C9.94267 5.95733 9.79333 6.28 9.692 6.664C9.596 7.04267 9.548 7.472 9.548 7.952C9.548 8.432 9.596 8.86133 9.692 9.24C9.79333 9.61867 9.94267 9.93867 10.14 10.2C10.3427 10.456 10.5933 10.6533 10.892 10.792C11.1907 10.9307 11.5427 11 11.948 11ZM20.0146 12.128C19.3746 12.128 18.8813 11.9493 18.5346 11.592C18.1933 11.2347 18.0226 10.72 18.0226 10.048V5.088H17.0466C16.9613 5.088 16.8893 5.064 16.8306 5.016C16.772 4.96267 16.7426 4.88267 16.7426 4.776V4.208L18.0706 4.04L18.3986 1.536C18.4093 1.456 18.444 1.392 18.5026 1.344C18.5613 1.29067 18.636 1.264 18.7266 1.264H19.4466V4.056H21.7666V5.088H19.4466V9.952C19.4466 10.2933 19.5293 10.5467 19.6946 10.712C19.86 10.8773 20.0733 10.96 20.3346 10.96C20.484 10.96 20.612 10.9413 20.7186 10.904C20.8306 10.8613 20.9266 10.816 21.0066 10.768C21.0866 10.72 21.1533 10.6773 21.2066 10.64C21.2653 10.5973 21.316 10.576 21.3586 10.576C21.4333 10.576 21.5 10.6213 21.5586 10.712L21.9746 11.392C21.7293 11.6213 21.4333 11.8027 21.0866 11.936C20.74 12.064 20.3826 12.128 20.0146 12.128ZM26.8074 3.768C27.3994 3.768 27.9327 3.86667 28.4074 4.064C28.8874 4.26133 29.2927 4.54133 29.6234 4.904C29.9594 5.26667 30.2154 5.70667 30.3914 6.224C30.5727 6.736 30.6634 7.30933 30.6634 7.944C30.6634 8.584 30.5727 9.16 30.3914 9.672C30.2154 10.184 29.9594 10.6213 29.6234 10.984C29.2927 11.3467 28.8874 11.6267 28.4074 11.824C27.9327 12.016 27.3994 12.112 26.8074 12.112C26.2154 12.112 25.6794 12.016 25.1994 11.824C24.7247 11.6267 24.3194 11.3467 23.9834 10.984C23.6474 10.6213 23.3887 10.184 23.2074 9.672C23.026 9.16 22.9354 8.584 22.9354 7.944C22.9354 7.30933 23.026 6.736 23.2074 6.224C23.3887 5.70667 23.6474 5.26667 23.9834 4.904C24.3194 4.54133 24.7247 4.26133 25.1994 4.064C25.6794 3.86667 26.2154 3.768 26.8074 3.768ZM26.8074 11C27.6074 11 28.2047 10.7333 28.5994 10.2C28.994 9.66133 29.1914 8.912 29.1914 7.952C29.1914 6.98667 28.994 6.23467 28.5994 5.696C28.2047 5.15733 27.6074 4.888 26.8074 4.888C26.402 4.888 26.05 4.95733 25.7514 5.096C25.4527 5.23467 25.202 5.43467 24.9994 5.696C24.802 5.95733 24.6527 6.28 24.5514 6.664C24.4554 7.04267 24.4074 7.472 24.4074 7.952C24.4074 8.432 24.4554 8.86133 24.5514 9.24C24.6527 9.61867 24.802 9.93867 24.9994 10.2C25.202 10.456 25.4527 10.6533 25.7514 10.792C26.05 10.9307 26.402 11 26.8074 11ZM35.146 3.76C35.498 3.76 35.826 3.8 36.13 3.88C36.4393 3.95467 36.7193 4.06667 36.97 4.216H39.17V4.744C39.17 4.92 39.058 5.032 38.834 5.08L37.914 5.208C38.0953 5.55467 38.186 5.94133 38.186 6.368C38.186 6.76267 38.1087 7.12267 37.954 7.448C37.8047 7.768 37.594 8.04267 37.322 8.272C37.0553 8.50133 36.7353 8.67733 36.362 8.8C35.994 8.92267 35.5887 8.984 35.146 8.984C34.7673 8.984 34.41 8.93867 34.074 8.848C33.9033 8.95467 33.7727 9.06933 33.682 9.192C33.5967 9.31467 33.554 9.43467 33.554 9.552C33.554 9.744 33.6313 9.89067 33.786 9.992C33.9407 10.088 34.146 10.1573 34.402 10.2C34.658 10.2427 34.9487 10.2693 35.274 10.28C35.5993 10.2907 35.93 10.3093 36.266 10.336C36.6073 10.3573 36.9407 10.3973 37.266 10.456C37.5913 10.5147 37.882 10.6107 38.138 10.744C38.394 10.8773 38.5993 11.0613 38.754 11.296C38.9087 11.5307 38.986 11.8347 38.986 12.208C38.986 12.5547 38.898 12.8907 38.722 13.216C38.5513 13.5413 38.3033 13.8293 37.978 14.08C37.6527 14.336 37.2553 14.5387 36.786 14.688C36.3167 14.8427 35.786 14.92 35.194 14.92C34.602 14.92 34.082 14.8613 33.634 14.744C33.1913 14.6267 32.8233 14.4693 32.53 14.272C32.2367 14.0747 32.0153 13.8453 31.866 13.584C31.722 13.328 31.65 13.0587 31.65 12.776C31.65 12.376 31.7753 12.0373 32.026 11.76C32.282 11.4773 32.6313 11.2533 33.074 11.088C32.8447 10.9813 32.6607 10.84 32.522 10.664C32.3887 10.4827 32.322 10.2427 32.322 9.944C32.322 9.82667 32.3433 9.70667 32.386 9.584C32.4287 9.456 32.4927 9.33067 32.578 9.208C32.6687 9.08533 32.778 8.968 32.906 8.856C33.034 8.744 33.1833 8.64533 33.354 8.56C32.954 8.336 32.6393 8.04 32.41 7.672C32.186 7.29867 32.074 6.864 32.074 6.368C32.074 5.97333 32.1487 5.616 32.298 5.296C32.4527 4.97067 32.666 4.696 32.938 4.472C33.21 4.24267 33.5327 4.06667 33.906 3.944C34.2847 3.82133 34.698 3.76 35.146 3.76ZM37.674 12.44C37.674 12.2373 37.618 12.0747 37.506 11.952C37.394 11.8293 37.242 11.736 37.05 11.672C36.858 11.6027 36.6367 11.552 36.386 11.52C36.1353 11.488 35.8713 11.4667 35.594 11.456C35.3167 11.44 35.034 11.424 34.746 11.408C34.458 11.392 34.1833 11.3627 33.922 11.32C33.618 11.464 33.37 11.64 33.178 11.848C32.9913 12.056 32.898 12.304 32.898 12.592C32.898 12.7733 32.9433 12.9413 33.034 13.096C33.13 13.256 33.274 13.392 33.466 13.504C33.658 13.6213 33.898 13.712 34.186 13.776C34.4793 13.8453 34.8233 13.88 35.218 13.88C35.602 13.88 35.946 13.8453 36.25 13.776C36.554 13.7067 36.81 13.608 37.018 13.48C37.2313 13.352 37.394 13.2 37.506 13.024C37.618 12.848 37.674 12.6533 37.674 12.44ZM35.146 8.04C35.434 8.04 35.6873 8 35.906 7.92C36.13 7.84 36.3167 7.728 36.466 7.584C36.6153 7.44 36.7273 7.26933 36.802 7.072C36.8767 6.86933 36.914 6.648 36.914 6.408C36.914 5.912 36.762 5.51733 36.458 5.224C36.1593 4.93067 35.722 4.784 35.146 4.784C34.5753 4.784 34.138 4.93067 33.834 5.224C33.5353 5.51733 33.386 5.912 33.386 6.408C33.386 6.648 33.4233 6.86933 33.498 7.072C33.578 7.26933 33.6927 7.44 33.842 7.584C33.9913 7.728 34.1753 7.84 34.394 7.92C34.6127 8 34.8633 8.04 35.146 8.04ZM40.5899 12V3.896H41.4059C41.5605 3.896 41.6672 3.92533 41.7259 3.984C41.7845 4.04267 41.8245 4.144 41.8459 4.288L41.9419 5.552C42.2192 4.98667 42.5605 4.54667 42.9659 4.232C43.3765 3.912 43.8565 3.752 44.4059 3.752C44.6299 3.752 44.8325 3.77867 45.0139 3.832C45.1952 3.88 45.3632 3.94933 45.5179 4.04L45.3339 5.104C45.2965 5.23733 45.2139 5.304 45.0859 5.304C45.0112 5.304 44.8965 5.28 44.7419 5.232C44.5872 5.17867 44.3712 5.152 44.0939 5.152C43.5979 5.152 43.1819 5.296 42.8459 5.584C42.5152 5.872 42.2379 6.29067 42.0139 6.84V12H40.5899ZM52.6981 12H52.0661C51.9275 12 51.8155 11.9787 51.7301 11.936C51.6448 11.8933 51.5888 11.8027 51.5621 11.664L51.4021 10.912C51.1888 11.104 50.9808 11.2773 50.7781 11.432C50.5755 11.5813 50.3621 11.7093 50.1381 11.816C49.9141 11.9173 49.6741 11.9947 49.4181 12.048C49.1675 12.1013 48.8875 12.128 48.5781 12.128C48.2635 12.128 47.9675 12.0853 47.6901 12C47.4181 11.9093 47.1808 11.776 46.9781 11.6C46.7755 11.424 46.6128 11.2027 46.4901 10.936C46.3728 10.664 46.3141 10.344 46.3141 9.976C46.3141 9.656 46.4021 9.34933 46.5781 9.056C46.7541 8.75733 47.0368 8.49333 47.4261 8.264C47.8208 8.03467 48.3355 7.848 48.9701 7.704C49.6048 7.55467 50.3808 7.46933 51.2981 7.448V6.816C51.2981 6.18667 51.1621 5.712 50.8901 5.392C50.6235 5.06667 50.2261 4.904 49.6981 4.904C49.3515 4.904 49.0581 4.94933 48.8181 5.04C48.5835 5.12533 48.3781 5.224 48.2021 5.336C48.0315 5.44267 47.8821 5.54133 47.7541 5.632C47.6315 5.71733 47.5088 5.76 47.3861 5.76C47.2901 5.76 47.2048 5.736 47.1301 5.688C47.0608 5.63467 47.0048 5.57067 46.9621 5.496L46.7061 5.04C47.1541 4.608 47.6368 4.28533 48.1541 4.072C48.6715 3.85867 49.2448 3.752 49.8741 3.752C50.3275 3.752 50.7301 3.82667 51.0821 3.976C51.4341 4.12533 51.7301 4.33333 51.9701 4.6C52.2101 4.86667 52.3915 5.18933 52.5141 5.568C52.6368 5.94667 52.6981 6.36267 52.6981 6.816V12ZM49.0021 11.128C49.2528 11.128 49.4821 11.104 49.6901 11.056C49.8981 11.0027 50.0928 10.9307 50.2741 10.84C50.4608 10.744 50.6368 10.6293 50.8021 10.496C50.9728 10.3627 51.1381 10.2107 51.2981 10.04V8.352C50.6421 8.37333 50.0848 8.42667 49.6261 8.512C49.1675 8.592 48.7941 8.69867 48.5061 8.832C48.2181 8.96533 48.0075 9.12267 47.8741 9.304C47.7461 9.48533 47.6821 9.688 47.6821 9.912C47.6821 10.1253 47.7168 10.3093 47.7861 10.464C47.8555 10.6187 47.9488 10.7467 48.0661 10.848C48.1835 10.944 48.3221 11.016 48.4821 11.064C48.6421 11.1067 48.8155 11.128 49.0021 11.128ZM55.1755 12V5.112L54.2795 5.008C54.1675 4.98133 54.0742 4.94133 53.9995 4.888C53.9302 4.82933 53.8955 4.74667 53.8955 4.64V4.056H55.1755V3.272C55.1755 2.808 55.2395 2.39733 55.3675 2.04C55.5008 1.67733 55.6875 1.37333 55.9275 1.128C56.1728 0.877333 56.4662 0.688 56.8075 0.559999C57.1488 0.431999 57.5328 0.367999 57.9595 0.367999C58.3222 0.367999 58.6582 0.421333 58.9675 0.528L58.9355 1.24C58.9302 1.34667 58.8848 1.41067 58.7995 1.432C58.7142 1.45333 58.5942 1.464 58.4395 1.464H58.1915C57.9462 1.464 57.7222 1.496 57.5195 1.56C57.3222 1.624 57.1515 1.728 57.0075 1.872C56.8635 2.016 56.7515 2.20533 56.6715 2.44C56.5968 2.67467 56.5595 2.96533 56.5595 3.312V4.056H58.9035V5.088H56.6075V12H55.1755ZM58.7833 11.016C58.7833 10.8933 58.8046 10.7787 58.8473 10.672C58.8953 10.56 58.9593 10.464 59.0393 10.384C59.1246 10.2987 59.2259 10.232 59.3433 10.184C59.4606 10.136 59.5886 10.112 59.7273 10.112C59.8873 10.112 60.0286 10.1413 60.1513 10.2C60.2793 10.2587 60.3833 10.3413 60.4633 10.448C60.5486 10.5493 60.6126 10.6693 60.6553 10.808C60.6979 10.9413 60.7193 11.088 60.7193 11.248C60.7193 11.488 60.6846 11.7387 60.6153 12C60.5459 12.256 60.4473 12.5093 60.3193 12.76C60.1913 13.016 60.0313 13.264 59.8393 13.504C59.6526 13.744 59.4393 13.9653 59.1993 14.168L58.9593 13.936C58.8899 13.872 58.8553 13.7973 58.8553 13.712C58.8553 13.6427 58.8926 13.5707 58.9673 13.496C59.0206 13.4373 59.0873 13.3573 59.1673 13.256C59.2526 13.16 59.3379 13.048 59.4233 12.92C59.5086 12.792 59.5859 12.6507 59.6553 12.496C59.7299 12.3413 59.7833 12.176 59.8153 12H59.7113C59.5726 12 59.4473 11.976 59.3353 11.928C59.2233 11.88 59.1246 11.8133 59.0393 11.728C58.9593 11.6373 58.8953 11.5333 58.8473 11.416C58.8046 11.2933 58.7833 11.16 58.7833 11.016ZM65.9076 12V0.535999H69.5636C70.2676 0.535999 70.873 0.605333 71.3796 0.743999C71.8916 0.882666 72.3103 1.08 72.6356 1.336C72.9663 1.592 73.209 1.90667 73.3636 2.28C73.5236 2.648 73.6036 3.064 73.6036 3.528C73.6036 3.81067 73.5583 4.08267 73.4676 4.344C73.3823 4.60533 73.249 4.848 73.0676 5.072C72.8916 5.296 72.6676 5.496 72.3956 5.672C72.129 5.848 71.8143 5.992 71.4516 6.104C72.289 6.26933 72.921 6.57067 73.3476 7.008C73.7743 7.44533 73.9876 8.02133 73.9876 8.736C73.9876 9.22133 73.897 9.664 73.7156 10.064C73.5396 10.464 73.2783 10.808 72.9316 11.096C72.5903 11.384 72.169 11.608 71.6676 11.768C71.1716 11.9227 70.6036 12 69.9636 12H65.9076ZM67.4596 6.776V10.768H69.9396C70.3823 10.768 70.761 10.7173 71.0756 10.616C71.3956 10.5147 71.657 10.3733 71.8596 10.192C72.0676 10.0053 72.2196 9.78667 72.3156 9.536C72.4116 9.28 72.4596 9 72.4596 8.696C72.4596 8.104 72.249 7.63733 71.8276 7.296C71.4116 6.94933 70.7796 6.776 69.9316 6.776H67.4596ZM67.4596 5.672H69.5076C69.945 5.672 70.3236 5.624 70.6436 5.528C70.9636 5.432 71.2276 5.29867 71.4356 5.128C71.649 4.95733 71.8063 4.752 71.9076 4.512C72.009 4.26667 72.0596 4 72.0596 3.712C72.0596 3.04 71.857 2.54667 71.4516 2.232C71.0463 1.91733 70.417 1.76 69.5636 1.76H67.4596V5.672ZM79.323 3.768C79.915 3.768 80.4483 3.86667 80.923 4.064C81.403 4.26133 81.8083 4.54133 82.139 4.904C82.475 5.26667 82.731 5.70667 82.907 6.224C83.0883 6.736 83.179 7.30933 83.179 7.944C83.179 8.584 83.0883 9.16 82.907 9.672C82.731 10.184 82.475 10.6213 82.139 10.984C81.8083 11.3467 81.403 11.6267 80.923 11.824C80.4483 12.016 79.915 12.112 79.323 12.112C78.731 12.112 78.195 12.016 77.715 11.824C77.2403 11.6267 76.835 11.3467 76.499 10.984C76.163 10.6213 75.9043 10.184 75.723 9.672C75.5417 9.16 75.451 8.584 75.451 7.944C75.451 7.30933 75.5417 6.736 75.723 6.224C75.9043 5.70667 76.163 5.26667 76.499 4.904C76.835 4.54133 77.2403 4.26133 77.715 4.064C78.195 3.86667 78.731 3.768 79.323 3.768ZM79.323 11C80.123 11 80.7203 10.7333 81.115 10.2C81.5097 9.66133 81.707 8.912 81.707 7.952C81.707 6.98667 81.5097 6.23467 81.115 5.696C80.7203 5.15733 80.123 4.888 79.323 4.888C78.9177 4.888 78.5657 4.95733 78.267 5.096C77.9683 5.23467 77.7177 5.43467 77.515 5.696C77.3177 5.95733 77.1683 6.28 77.067 6.664C76.971 7.04267 76.923 7.472 76.923 7.952C76.923 8.432 76.971 8.86133 77.067 9.24C77.1683 9.61867 77.3177 9.93867 77.515 10.2C77.7177 10.456 77.9683 10.6533 78.267 10.792C78.5657 10.9307 78.9177 11 79.323 11ZM89.5736 5.232C89.5096 5.34933 89.411 5.408 89.2776 5.408C89.1976 5.408 89.107 5.37867 89.0056 5.32C88.9043 5.26133 88.779 5.19733 88.6296 5.128C88.4856 5.05333 88.3123 4.98667 88.1096 4.928C87.907 4.864 87.667 4.832 87.3896 4.832C87.1496 4.832 86.9336 4.864 86.7416 4.928C86.5496 4.98667 86.3843 5.06933 86.2456 5.176C86.1123 5.28267 86.0083 5.408 85.9336 5.552C85.8643 5.69067 85.8296 5.84267 85.8296 6.008C85.8296 6.216 85.8883 6.38933 86.0056 6.528C86.1283 6.66667 86.2883 6.78667 86.4856 6.888C86.683 6.98933 86.907 7.08 87.1576 7.16C87.4083 7.23467 87.6643 7.31733 87.9256 7.408C88.1923 7.49333 88.451 7.58933 88.7016 7.696C88.9523 7.80267 89.1763 7.936 89.3736 8.096C89.571 8.256 89.7283 8.45333 89.8456 8.688C89.9683 8.91733 90.0296 9.19467 90.0296 9.52C90.0296 9.89333 89.963 10.24 89.8296 10.56C89.6963 10.8747 89.499 11.1493 89.2376 11.384C88.9763 11.6133 88.6563 11.7947 88.2776 11.928C87.899 12.0613 87.4616 12.128 86.9656 12.128C86.4003 12.128 85.8883 12.0373 85.4296 11.856C84.971 11.6693 84.5816 11.432 84.2616 11.144L84.5976 10.6C84.6403 10.5307 84.691 10.4773 84.7496 10.44C84.8083 10.4027 84.8856 10.384 84.9816 10.384C85.0776 10.384 85.179 10.4213 85.2856 10.496C85.3923 10.5707 85.5203 10.6533 85.6696 10.744C85.8243 10.8347 86.0083 10.9173 86.2216 10.992C86.4403 11.0667 86.7123 11.104 87.0376 11.104C87.315 11.104 87.5576 11.0693 87.7656 11C87.9736 10.9253 88.147 10.8267 88.2856 10.704C88.4243 10.5813 88.5256 10.44 88.5896 10.28C88.659 10.12 88.6936 9.94933 88.6936 9.768C88.6936 9.544 88.6323 9.36 88.5096 9.216C88.3923 9.06667 88.235 8.94133 88.0376 8.84C87.8403 8.73333 87.6136 8.64267 87.3576 8.568C87.107 8.488 86.8483 8.40533 86.5816 8.32C86.3203 8.23467 86.0616 8.13867 85.8056 8.032C85.555 7.92 85.331 7.78133 85.1336 7.616C84.9363 7.45067 84.7763 7.248 84.6536 7.008C84.5363 6.76267 84.4776 6.46667 84.4776 6.12C84.4776 5.81067 84.5416 5.51467 84.6696 5.232C84.7976 4.944 84.9843 4.69333 85.2296 4.48C85.475 4.26133 85.7763 4.088 86.1336 3.96C86.491 3.832 86.899 3.768 87.3576 3.768C87.891 3.768 88.3683 3.85333 88.7896 4.024C89.2163 4.18933 89.5843 4.41867 89.8936 4.712L89.5736 5.232ZM91.8711 12V0.216H93.2951V4.984C93.6418 4.616 94.0258 4.32267 94.4471 4.104C94.8685 3.88 95.3538 3.768 95.9031 3.768C96.3458 3.768 96.7351 3.84267 97.0711 3.992C97.4125 4.136 97.6951 4.344 97.9191 4.616C98.1485 4.88267 98.3218 5.20533 98.4391 5.584C98.5565 5.96267 98.6151 6.38133 98.6151 6.84V12H97.1911V6.84C97.1911 6.22667 97.0498 5.752 96.7671 5.416C96.4898 5.07467 96.0631 4.904 95.4871 4.904C95.0658 4.904 94.6711 5.00533 94.3031 5.208C93.9405 5.41067 93.6045 5.68533 93.2951 6.032V12H91.8711ZM109.56 12C109.357 12 109.229 11.9013 109.176 11.704L109.048 10.72C108.701 11.1413 108.304 11.48 107.856 11.736C107.413 11.9867 106.904 12.112 106.328 12.112C105.864 12.112 105.442 12.024 105.064 11.848C104.685 11.6667 104.362 11.4027 104.096 11.056C103.829 10.7093 103.624 10.2773 103.48 9.76C103.336 9.24267 103.264 8.648 103.264 7.976C103.264 7.37867 103.344 6.824 103.504 6.312C103.664 5.79467 103.893 5.34667 104.192 4.968C104.496 4.58933 104.864 4.29333 105.296 4.08C105.728 3.86133 106.218 3.752 106.768 3.752C107.264 3.752 107.688 3.83733 108.04 4.008C108.392 4.17333 108.706 4.408 108.984 4.712V0.216H110.408V12H109.56ZM106.799 10.96C107.264 10.96 107.669 10.8533 108.016 10.64C108.368 10.4267 108.69 10.1253 108.984 9.736V5.816C108.722 5.464 108.434 5.21867 108.12 5.08C107.81 4.936 107.466 4.864 107.088 4.864C106.33 4.864 105.749 5.13333 105.344 5.672C104.938 6.21067 104.736 6.97867 104.736 7.976C104.736 8.504 104.781 8.95733 104.872 9.336C104.962 9.70933 105.096 10.0187 105.272 10.264C105.448 10.504 105.664 10.68 105.92 10.792C106.176 10.904 106.469 10.96 106.799 10.96ZM114.377 3.896V12H112.953V3.896H114.377ZM114.697 1.352C114.697 1.49067 114.668 1.62133 114.609 1.744C114.556 1.86133 114.481 1.968 114.385 2.064C114.294 2.15467 114.188 2.22667 114.065 2.28C113.942 2.33333 113.812 2.36 113.673 2.36C113.534 2.36 113.404 2.33333 113.281 2.28C113.164 2.22667 113.057 2.15467 112.961 2.064C112.87 1.968 112.798 1.86133 112.745 1.744C112.692 1.62133 112.665 1.49067 112.665 1.352C112.665 1.21333 112.692 1.08267 112.745 0.959999C112.798 0.831999 112.87 0.722666 112.961 0.631999C113.057 0.536 113.164 0.461333 113.281 0.407999C113.404 0.354666 113.534 0.327999 113.673 0.327999C113.812 0.327999 113.942 0.354666 114.065 0.407999C114.188 0.461333 114.294 0.536 114.385 0.631999C114.481 0.722666 114.556 0.831999 114.609 0.959999C114.668 1.08267 114.697 1.21333 114.697 1.352ZM122.543 4.504C122.543 4.60533 122.524 4.704 122.487 4.8C122.449 4.89067 122.401 4.97333 122.343 5.048L117.959 10.888H122.383V12H116.279V11.408C116.279 11.3387 116.295 11.2587 116.327 11.168C116.364 11.072 116.415 10.9813 116.479 10.896L120.887 5.016H116.527V3.896H122.543V4.504ZM130.229 12H129.597C129.459 12 129.347 11.9787 129.261 11.936C129.176 11.8933 129.12 11.8027 129.093 11.664L128.933 10.912C128.72 11.104 128.512 11.2773 128.309 11.432C128.107 11.5813 127.893 11.7093 127.669 11.816C127.445 11.9173 127.205 11.9947 126.949 12.048C126.699 12.1013 126.419 12.128 126.109 12.128C125.795 12.128 125.499 12.0853 125.221 12C124.949 11.9093 124.712 11.776 124.509 11.6C124.307 11.424 124.144 11.2027 124.021 10.936C123.904 10.664 123.845 10.344 123.845 9.976C123.845 9.656 123.933 9.34933 124.109 9.056C124.285 8.75733 124.568 8.49333 124.957 8.264C125.352 8.03467 125.867 7.848 126.501 7.704C127.136 7.55467 127.912 7.46933 128.829 7.448V6.816C128.829 6.18667 128.693 5.712 128.421 5.392C128.155 5.06667 127.757 4.904 127.229 4.904C126.883 4.904 126.589 4.94933 126.349 5.04C126.115 5.12533 125.909 5.224 125.733 5.336C125.563 5.44267 125.413 5.54133 125.285 5.632C125.163 5.71733 125.04 5.76 124.917 5.76C124.821 5.76 124.736 5.736 124.661 5.688C124.592 5.63467 124.536 5.57067 124.493 5.496L124.237 5.04C124.685 4.608 125.168 4.28533 125.685 4.072C126.203 3.85867 126.776 3.752 127.405 3.752C127.859 3.752 128.261 3.82667 128.613 3.976C128.965 4.12533 129.261 4.33333 129.501 4.6C129.741 4.86667 129.923 5.18933 130.045 5.568C130.168 5.94667 130.229 6.36267 130.229 6.816V12ZM126.533 11.128C126.784 11.128 127.013 11.104 127.221 11.056C127.429 11.0027 127.624 10.9307 127.805 10.84C127.992 10.744 128.168 10.6293 128.333 10.496C128.504 10.3627 128.669 10.2107 128.829 10.04V8.352C128.173 8.37333 127.616 8.42667 127.157 8.512C126.699 8.592 126.325 8.69867 126.037 8.832C125.749 8.96533 125.539 9.12267 125.405 9.304C125.277 9.48533 125.213 9.688 125.213 9.912C125.213 10.1253 125.248 10.3093 125.317 10.464C125.387 10.6187 125.48 10.7467 125.597 10.848C125.715 10.944 125.853 11.016 126.013 11.064C126.173 11.1067 126.347 11.128 126.533 11.128ZM134.513 14.392C134.465 14.4987 134.403 14.584 134.329 14.648C134.259 14.712 134.15 14.744 134.001 14.744H132.945L134.425 11.528L131.081 3.896H132.313C132.435 3.896 132.531 3.928 132.601 3.992C132.67 4.05067 132.721 4.11733 132.753 4.192L134.921 9.296C134.969 9.41333 135.009 9.53067 135.041 9.648C135.078 9.76533 135.11 9.88533 135.137 10.008C135.174 9.88533 135.211 9.76533 135.249 9.648C135.286 9.53067 135.329 9.41067 135.377 9.288L137.481 4.192C137.513 4.10667 137.566 4.03733 137.641 3.984C137.721 3.92533 137.806 3.896 137.897 3.896H139.033L134.513 14.392ZM140.324 12V3.896H141.172C141.375 3.896 141.503 3.99467 141.556 4.192L141.668 5.072C142.02 4.68267 142.412 4.368 142.844 4.128C143.282 3.888 143.786 3.768 144.356 3.768C144.799 3.768 145.188 3.84267 145.524 3.992C145.866 4.136 146.148 4.344 146.372 4.616C146.602 4.88267 146.775 5.20533 146.892 5.584C147.01 5.96267 147.068 6.38133 147.068 6.84V12H145.644V6.84C145.644 6.22667 145.503 5.752 145.22 5.416C144.943 5.07467 144.516 4.904 143.94 4.904C143.519 4.904 143.124 5.00533 142.756 5.208C142.394 5.41067 142.058 5.68533 141.748 6.032V12H140.324ZM152.423 3.768C152.908 3.768 153.356 3.85067 153.767 4.016C154.178 4.176 154.532 4.41067 154.831 4.72C155.13 5.024 155.362 5.40267 155.527 5.856C155.698 6.304 155.783 6.816 155.783 7.392C155.783 7.616 155.759 7.76533 155.711 7.84C155.663 7.91467 155.572 7.952 155.439 7.952H150.047C150.058 8.464 150.127 8.90933 150.255 9.288C150.383 9.66667 150.559 9.984 150.783 10.24C151.007 10.4907 151.274 10.68 151.583 10.808C151.892 10.9307 152.239 10.992 152.623 10.992C152.98 10.992 153.287 10.952 153.543 10.872C153.804 10.7867 154.028 10.696 154.215 10.6C154.402 10.504 154.556 10.416 154.679 10.336C154.807 10.2507 154.916 10.208 155.007 10.208C155.124 10.208 155.215 10.2533 155.279 10.344L155.679 10.864C155.503 11.0773 155.292 11.264 155.047 11.424C154.802 11.5787 154.538 11.7067 154.255 11.808C153.978 11.9093 153.69 11.984 153.391 12.032C153.092 12.0853 152.796 12.112 152.503 12.112C151.943 12.112 151.426 12.0187 150.951 11.832C150.482 11.64 150.074 11.3627 149.727 11C149.386 10.632 149.119 10.1787 148.927 9.64C148.735 9.10133 148.639 8.48267 148.639 7.784C148.639 7.21867 148.724 6.69067 148.895 6.2C149.071 5.70933 149.322 5.28533 149.647 4.928C149.972 4.56533 150.37 4.28267 150.839 4.08C151.308 3.872 151.836 3.768 152.423 3.768ZM152.455 4.816C151.767 4.816 151.226 5.016 150.831 5.416C150.436 5.81067 150.191 6.36 150.095 7.064H154.503C154.503 6.73333 154.458 6.432 154.367 6.16C154.276 5.88267 154.143 5.64533 153.967 5.448C153.791 5.24533 153.575 5.09067 153.319 4.984C153.068 4.872 152.78 4.816 152.455 4.816ZM157.606 12V3.896H158.422C158.576 3.896 158.683 3.92533 158.742 3.984C158.8 4.04267 158.84 4.144 158.862 4.288L158.958 5.552C159.235 4.98667 159.576 4.54667 159.982 4.232C160.392 3.912 160.872 3.752 161.422 3.752C161.646 3.752 161.848 3.77867 162.03 3.832C162.211 3.88 162.379 3.94933 162.534 4.04L162.35 5.104C162.312 5.23733 162.23 5.304 162.102 5.304C162.027 5.304 161.912 5.28 161.758 5.232C161.603 5.17867 161.387 5.152 161.11 5.152C160.614 5.152 160.198 5.296 159.862 5.584C159.531 5.872 159.254 6.29067 159.03 6.84V12H157.606Z" fill="#EC681F"/>
</svg>
