<svg width="132" height="34" viewBox="0 0 132 34" fill="none" xmlns="http://www.w3.org/2000/svg">
<path d="M6.4695 7.856C6.54417 7.984 6.60817 8.12 6.6615 8.264C6.72017 8.40267 6.77617 8.544 6.8295 8.688C6.88283 8.53867 6.93883 8.39733 6.9975 8.264C7.05617 8.12533 7.12283 7.98667 7.1975 7.848L11.0775 0.799999C11.1468 0.677333 11.2188 0.602666 11.2935 0.575999C11.3682 0.549333 11.4748 0.535999 11.6135 0.535999H12.7575V12H11.3975V3.576C11.3975 3.464 11.4002 3.344 11.4055 3.216C11.4108 3.088 11.4188 2.95733 11.4295 2.824L7.5015 9.992C7.36817 10.232 7.1815 10.352 6.9415 10.352H6.7175C6.4775 10.352 6.29083 10.232 6.1575 9.992L2.1415 2.8C2.1575 2.93867 2.16817 3.07467 2.1735 3.208C2.18417 3.34133 2.1895 3.464 2.1895 3.576V12H0.8295V0.535999H1.9735C2.11217 0.535999 2.21883 0.549333 2.2935 0.575999C2.36817 0.602666 2.44017 0.677333 2.5095 0.799999L6.4695 7.856ZM16.9083 3.896V12H15.4843V3.896H16.9083ZM17.2283 1.352C17.2283 1.49067 17.1989 1.62133 17.1403 1.744C17.0869 1.86133 17.0123 1.968 16.9163 2.064C16.8256 2.15467 16.7189 2.22667 16.5963 2.28C16.4736 2.33333 16.3429 2.36 16.2043 2.36C16.0656 2.36 15.9349 2.33333 15.8123 2.28C15.6949 2.22667 15.5883 2.15467 15.4923 2.064C15.4016 1.968 15.3296 1.86133 15.2763 1.744C15.2229 1.62133 15.1963 1.49067 15.1963 1.352C15.1963 1.21333 15.2229 1.08267 15.2763 0.959999C15.3296 0.831999 15.4016 0.722666 15.4923 0.631999C15.5883 0.536 15.6949 0.461333 15.8123 0.407999C15.9349 0.354666 16.0656 0.327999 16.2043 0.327999C16.3429 0.327999 16.4736 0.354666 16.5963 0.407999C16.7189 0.461333 16.8256 0.536 16.9163 0.631999C17.0123 0.722666 17.0869 0.831999 17.1403 0.959999C17.1989 1.08267 17.2283 1.21333 17.2283 1.352ZM25.074 4.504C25.074 4.60533 25.0553 4.704 25.018 4.8C24.9807 4.89067 24.9327 4.97333 24.874 5.048L20.49 10.888H24.914V12H18.81V11.408C18.81 11.3387 18.826 11.2587 18.858 11.168C18.8953 11.072 18.946 10.9813 19.01 10.896L23.418 5.016H19.058V3.896H25.074V4.504ZM28.3926 0.216V12H26.9686V0.216H28.3926ZM36.8544 12H36.2224C36.0837 12 35.9717 11.9787 35.8864 11.936C35.801 11.8933 35.745 11.8027 35.7184 11.664L35.5584 10.912C35.345 11.104 35.137 11.2773 34.9344 11.432C34.7317 11.5813 34.5184 11.7093 34.2944 11.816C34.0704 11.9173 33.8304 11.9947 33.5744 12.048C33.3237 12.1013 33.0437 12.128 32.7344 12.128C32.4197 12.128 32.1237 12.0853 31.8464 12C31.5744 11.9093 31.337 11.776 31.1344 11.6C30.9317 11.424 30.769 11.2027 30.6464 10.936C30.529 10.664 30.4704 10.344 30.4704 9.976C30.4704 9.656 30.5584 9.34933 30.7344 9.056C30.9104 8.75733 31.193 8.49333 31.5824 8.264C31.977 8.03467 32.4917 7.848 33.1264 7.704C33.761 7.55467 34.537 7.46933 35.4544 7.448V6.816C35.4544 6.18667 35.3184 5.712 35.0464 5.392C34.7797 5.06667 34.3824 4.904 33.8544 4.904C33.5077 4.904 33.2144 4.94933 32.9744 5.04C32.7397 5.12533 32.5344 5.224 32.3584 5.336C32.1877 5.44267 32.0384 5.54133 31.9104 5.632C31.7877 5.71733 31.665 5.76 31.5424 5.76C31.4464 5.76 31.361 5.736 31.2864 5.688C31.217 5.63467 31.161 5.57067 31.1184 5.496L30.8624 5.04C31.3104 4.608 31.793 4.28533 32.3104 4.072C32.8277 3.85867 33.401 3.752 34.0304 3.752C34.4837 3.752 34.8864 3.82667 35.2384 3.976C35.5904 4.12533 35.8864 4.33333 36.1264 4.6C36.3664 4.86667 36.5477 5.18933 36.6704 5.568C36.793 5.94667 36.8544 6.36267 36.8544 6.816V12ZM33.1584 11.128C33.409 11.128 33.6384 11.104 33.8464 11.056C34.0544 11.0027 34.249 10.9307 34.4304 10.84C34.617 10.744 34.793 10.6293 34.9584 10.496C35.129 10.3627 35.2944 10.2107 35.4544 10.04V8.352C34.7984 8.37333 34.241 8.42667 33.7824 8.512C33.3237 8.592 32.9504 8.69867 32.6624 8.832C32.3744 8.96533 32.1637 9.12267 32.0304 9.304C31.9024 9.48533 31.8384 9.688 31.8384 9.912C31.8384 10.1253 31.873 10.3093 31.9424 10.464C32.0117 10.6187 32.105 10.7467 32.2224 10.848C32.3397 10.944 32.4784 11.016 32.6384 11.064C32.7984 11.1067 32.9717 11.128 33.1584 11.128ZM39.0118 12V3.896H39.8278C39.9824 3.896 40.0891 3.92533 40.1478 3.984C40.2064 4.04267 40.2464 4.144 40.2678 4.288L40.3638 5.552C40.6411 4.98667 40.9824 4.54667 41.3878 4.232C41.7984 3.912 42.2784 3.752 42.8278 3.752C43.0518 3.752 43.2544 3.77867 43.4358 3.832C43.6171 3.88 43.7851 3.94933 43.9398 4.04L43.7558 5.104C43.7184 5.23733 43.6358 5.304 43.5078 5.304C43.4331 5.304 43.3184 5.28 43.1638 5.232C43.0091 5.17867 42.7931 5.152 42.5158 5.152C42.0198 5.152 41.6038 5.296 41.2678 5.584C40.9371 5.872 40.6598 6.29067 40.4358 6.84V12H39.0118ZM48.6066 12V0.216H50.0386V5.064C50.3746 4.67467 50.7586 4.36267 51.1906 4.128C51.628 3.888 52.1266 3.768 52.6866 3.768C53.156 3.768 53.58 3.856 53.9586 4.032C54.3373 4.208 54.66 4.472 54.9266 4.824C55.1933 5.17067 55.3986 5.60267 55.5426 6.12C55.6866 6.632 55.7586 7.224 55.7586 7.896C55.7586 8.49333 55.6786 9.05067 55.5186 9.568C55.3586 10.08 55.1266 10.5253 54.8226 10.904C54.524 11.2773 54.156 11.5733 53.7186 11.792C53.2866 12.0053 52.7986 12.112 52.2546 12.112C51.732 12.112 51.2866 12.0107 50.9186 11.808C50.556 11.6053 50.2386 11.3227 49.9666 10.96L49.8946 11.696C49.852 11.8987 49.7293 12 49.5266 12H48.6066ZM52.2226 4.904C51.7586 4.904 51.3506 5.01067 50.9986 5.224C50.652 5.43733 50.332 5.73867 50.0386 6.128V10.048C50.2946 10.4 50.5773 10.648 50.8866 10.792C51.2013 10.936 51.5506 11.008 51.9346 11.008C52.692 11.008 53.2733 10.7387 53.6786 10.2C54.084 9.66133 54.2866 8.89333 54.2866 7.896C54.2866 7.368 54.2386 6.91467 54.1426 6.536C54.052 6.15733 53.9186 5.848 53.7426 5.608C53.5666 5.36267 53.3506 5.184 53.0946 5.072C52.8386 4.96 52.548 4.904 52.2226 4.904ZM59.0801 3.896V12H57.6561V3.896H59.0801ZM59.4001 1.352C59.4001 1.49067 59.3708 1.62133 59.3121 1.744C59.2588 1.86133 59.1841 1.968 59.0881 2.064C58.9975 2.15467 58.8908 2.22667 58.7681 2.28C58.6455 2.33333 58.5148 2.36 58.3761 2.36C58.2375 2.36 58.1068 2.33333 57.9841 2.28C57.8668 2.22667 57.7601 2.15467 57.6641 2.064C57.5735 1.968 57.5015 1.86133 57.4481 1.744C57.3948 1.62133 57.3681 1.49067 57.3681 1.352C57.3681 1.21333 57.3948 1.08267 57.4481 0.959999C57.5015 0.831999 57.5735 0.722666 57.6641 0.631999C57.7601 0.536 57.8668 0.461333 57.9841 0.407999C58.1068 0.354666 58.2375 0.327999 58.3761 0.327999C58.5148 0.327999 58.6455 0.354666 58.7681 0.407999C58.8908 0.461333 58.9975 0.536 59.0881 0.631999C59.1841 0.722666 59.2588 0.831999 59.3121 0.959999C59.3708 1.08267 59.4001 1.21333 59.4001 1.352ZM63.1739 0.216V12H61.7499V0.216H63.1739ZM71.6356 12H71.0036C70.865 12 70.753 11.9787 70.6676 11.936C70.5823 11.8933 70.5263 11.8027 70.4996 11.664L70.3396 10.912C70.1263 11.104 69.9183 11.2773 69.7156 11.432C69.513 11.5813 69.2996 11.7093 69.0756 11.816C68.8516 11.9173 68.6116 11.9947 68.3556 12.048C68.105 12.1013 67.825 12.128 67.5156 12.128C67.201 12.128 66.905 12.0853 66.6276 12C66.3556 11.9093 66.1183 11.776 65.9156 11.6C65.713 11.424 65.5503 11.2027 65.4276 10.936C65.3103 10.664 65.2516 10.344 65.2516 9.976C65.2516 9.656 65.3396 9.34933 65.5156 9.056C65.6916 8.75733 65.9743 8.49333 66.3636 8.264C66.7583 8.03467 67.273 7.848 67.9076 7.704C68.5423 7.55467 69.3183 7.46933 70.2356 7.448V6.816C70.2356 6.18667 70.0996 5.712 69.8276 5.392C69.561 5.06667 69.1636 4.904 68.6356 4.904C68.289 4.904 67.9956 4.94933 67.7556 5.04C67.521 5.12533 67.3156 5.224 67.1396 5.336C66.969 5.44267 66.8196 5.54133 66.6916 5.632C66.569 5.71733 66.4463 5.76 66.3236 5.76C66.2276 5.76 66.1423 5.736 66.0676 5.688C65.9983 5.63467 65.9423 5.57067 65.8996 5.496L65.6436 5.04C66.0916 4.608 66.5743 4.28533 67.0916 4.072C67.609 3.85867 68.1823 3.752 68.8116 3.752C69.265 3.752 69.6676 3.82667 70.0196 3.976C70.3716 4.12533 70.6676 4.33333 70.9076 4.6C71.1476 4.86667 71.329 5.18933 71.4516 5.568C71.5743 5.94667 71.6356 6.36267 71.6356 6.816V12ZM67.9396 11.128C68.1903 11.128 68.4196 11.104 68.6276 11.056C68.8356 11.0027 69.0303 10.9307 69.2116 10.84C69.3983 10.744 69.5743 10.6293 69.7396 10.496C69.9103 10.3627 70.0756 10.2107 70.2356 10.04V8.352C69.5796 8.37333 69.0223 8.42667 68.5636 8.512C68.105 8.592 67.7316 8.69867 67.4436 8.832C67.1556 8.96533 66.945 9.12267 66.8116 9.304C66.6836 9.48533 66.6196 9.688 66.6196 9.912C66.6196 10.1253 66.6543 10.3093 66.7236 10.464C66.793 10.6187 66.8863 10.7467 67.0036 10.848C67.121 10.944 67.2596 11.016 67.4196 11.064C67.5796 11.1067 67.753 11.128 67.9396 11.128ZM73.793 12V3.896H74.641C74.8437 3.896 74.9717 3.99467 75.025 4.192L75.137 5.072C75.489 4.68267 75.881 4.368 76.313 4.128C76.7503 3.888 77.2543 3.768 77.825 3.768C78.2677 3.768 78.657 3.84267 78.993 3.992C79.3343 4.136 79.617 4.344 79.841 4.616C80.0703 4.88267 80.2437 5.20533 80.361 5.584C80.4783 5.96267 80.537 6.38133 80.537 6.84V12H79.113V6.84C79.113 6.22667 78.9717 5.752 78.689 5.416C78.4117 5.07467 77.985 4.904 77.409 4.904C76.9877 4.904 76.593 5.00533 76.225 5.208C75.8623 5.41067 75.5263 5.68533 75.217 6.032V12H73.793ZM87.3614 3.896V12H85.9374V3.896H87.3614ZM87.6814 1.352C87.6814 1.49067 87.652 1.62133 87.5934 1.744C87.54 1.86133 87.4654 1.968 87.3694 2.064C87.2787 2.15467 87.172 2.22667 87.0494 2.28C86.9267 2.33333 86.796 2.36 86.6574 2.36C86.5187 2.36 86.388 2.33333 86.2654 2.28C86.148 2.22667 86.0414 2.15467 85.9454 2.064C85.8547 1.968 85.7827 1.86133 85.7294 1.744C85.676 1.62133 85.6494 1.49067 85.6494 1.352C85.6494 1.21333 85.676 1.08267 85.7294 0.959999C85.7827 0.831999 85.8547 0.722666 85.9454 0.631999C86.0414 0.536 86.148 0.461333 86.2654 0.407999C86.388 0.354666 86.5187 0.327999 86.6574 0.327999C86.796 0.327999 86.9267 0.354666 87.0494 0.407999C87.172 0.461333 87.2787 0.536 87.3694 0.631999C87.4654 0.722666 87.54 0.831999 87.5934 0.959999C87.652 1.08267 87.6814 1.21333 87.6814 1.352ZM94.5111 5.232C94.4471 5.34933 94.3485 5.408 94.2151 5.408C94.1351 5.408 94.0445 5.37867 93.9431 5.32C93.8418 5.26133 93.7165 5.19733 93.5671 5.128C93.4231 5.05333 93.2498 4.98667 93.0471 4.928C92.8445 4.864 92.6045 4.832 92.3271 4.832C92.0871 4.832 91.8711 4.864 91.6791 4.928C91.4871 4.98667 91.3218 5.06933 91.1831 5.176C91.0498 5.28267 90.9458 5.408 90.8711 5.552C90.8018 5.69067 90.7671 5.84267 90.7671 6.008C90.7671 6.216 90.8258 6.38933 90.9431 6.528C91.0658 6.66667 91.2258 6.78667 91.4231 6.888C91.6205 6.98933 91.8445 7.08 92.0951 7.16C92.3458 7.23467 92.6018 7.31733 92.8631 7.408C93.1298 7.49333 93.3885 7.58933 93.6391 7.696C93.8898 7.80267 94.1138 7.936 94.3111 8.096C94.5085 8.256 94.6658 8.45333 94.7831 8.688C94.9058 8.91733 94.9671 9.19467 94.9671 9.52C94.9671 9.89333 94.9005 10.24 94.7671 10.56C94.6338 10.8747 94.4365 11.1493 94.1751 11.384C93.9138 11.6133 93.5938 11.7947 93.2151 11.928C92.8365 12.0613 92.3991 12.128 91.9031 12.128C91.3378 12.128 90.8258 12.0373 90.3671 11.856C89.9085 11.6693 89.5191 11.432 89.1991 11.144L89.5351 10.6C89.5778 10.5307 89.6285 10.4773 89.6871 10.44C89.7458 10.4027 89.8231 10.384 89.9191 10.384C90.0151 10.384 90.1165 10.4213 90.2231 10.496C90.3298 10.5707 90.4578 10.6533 90.6071 10.744C90.7618 10.8347 90.9458 10.9173 91.1591 10.992C91.3778 11.0667 91.6498 11.104 91.9751 11.104C92.2525 11.104 92.4951 11.0693 92.7031 11C92.9111 10.9253 93.0845 10.8267 93.2231 10.704C93.3618 10.5813 93.4631 10.44 93.5271 10.28C93.5965 10.12 93.6311 9.94933 93.6311 9.768C93.6311 9.544 93.5698 9.36 93.4471 9.216C93.3298 9.06667 93.1725 8.94133 92.9751 8.84C92.7778 8.73333 92.5511 8.64267 92.2951 8.568C92.0445 8.488 91.7858 8.40533 91.5191 8.32C91.2578 8.23467 90.9991 8.13867 90.7431 8.032C90.4925 7.92 90.2685 7.78133 90.0711 7.616C89.8738 7.45067 89.7138 7.248 89.5911 7.008C89.4738 6.76267 89.4151 6.46667 89.4151 6.12C89.4151 5.81067 89.4791 5.51467 89.6071 5.232C89.7351 4.944 89.9218 4.69333 90.1671 4.48C90.4125 4.26133 90.7138 4.088 91.0711 3.96C91.4285 3.832 91.8365 3.768 92.2951 3.768C92.8285 3.768 93.3058 3.85333 93.7271 4.024C94.1538 4.18933 94.5218 4.41867 94.8311 4.712L94.5111 5.232ZM96.8086 12V0.216H98.2326V4.984C98.5793 4.616 98.9633 4.32267 99.3846 4.104C99.806 3.88 100.291 3.768 100.841 3.768C101.283 3.768 101.673 3.84267 102.009 3.992C102.35 4.136 102.633 4.344 102.857 4.616C103.086 4.88267 103.259 5.20533 103.377 5.584C103.494 5.96267 103.553 6.38133 103.553 6.84V12H102.129V6.84C102.129 6.22667 101.987 5.752 101.705 5.416C101.427 5.07467 101.001 4.904 100.425 4.904C100.003 4.904 99.6086 5.00533 99.2406 5.208C98.878 5.41067 98.542 5.68533 98.2326 6.032V12H96.8086ZM107.283 0.216V12H105.859V0.216H107.283ZM115.745 12H115.113C114.974 12 114.862 11.9787 114.777 11.936C114.692 11.8933 114.636 11.8027 114.609 11.664L114.449 10.912C114.236 11.104 114.028 11.2773 113.825 11.432C113.622 11.5813 113.409 11.7093 113.185 11.816C112.961 11.9173 112.721 11.9947 112.465 12.048C112.214 12.1013 111.934 12.128 111.625 12.128C111.31 12.128 111.014 12.0853 110.737 12C110.465 11.9093 110.228 11.776 110.025 11.6C109.822 11.424 109.66 11.2027 109.537 10.936C109.42 10.664 109.361 10.344 109.361 9.976C109.361 9.656 109.449 9.34933 109.625 9.056C109.801 8.75733 110.084 8.49333 110.473 8.264C110.868 8.03467 111.382 7.848 112.017 7.704C112.652 7.55467 113.428 7.46933 114.345 7.448V6.816C114.345 6.18667 114.209 5.712 113.937 5.392C113.67 5.06667 113.273 4.904 112.745 4.904C112.398 4.904 112.105 4.94933 111.865 5.04C111.63 5.12533 111.425 5.224 111.249 5.336C111.078 5.44267 110.929 5.54133 110.801 5.632C110.678 5.71733 110.556 5.76 110.433 5.76C110.337 5.76 110.252 5.736 110.177 5.688C110.108 5.63467 110.052 5.57067 110.009 5.496L109.753 5.04C110.201 4.608 110.684 4.28533 111.201 4.072C111.718 3.85867 112.292 3.752 112.921 3.752C113.374 3.752 113.777 3.82667 114.129 3.976C114.481 4.12533 114.777 4.33333 115.017 4.6C115.257 4.86667 115.438 5.18933 115.561 5.568C115.684 5.94667 115.745 6.36267 115.745 6.816V12ZM112.049 11.128C112.3 11.128 112.529 11.104 112.737 11.056C112.945 11.0027 113.14 10.9307 113.321 10.84C113.508 10.744 113.684 10.6293 113.849 10.496C114.02 10.3627 114.185 10.2107 114.345 10.04V8.352C113.689 8.37333 113.132 8.42667 112.673 8.512C112.214 8.592 111.841 8.69867 111.553 8.832C111.265 8.96533 111.054 9.12267 110.921 9.304C110.793 9.48533 110.729 9.688 110.729 9.912C110.729 10.1253 110.764 10.3093 110.833 10.464C110.902 10.6187 110.996 10.7467 111.113 10.848C111.23 10.944 111.369 11.016 111.529 11.064C111.689 11.1067 111.862 11.128 112.049 11.128ZM122.542 5.232C122.478 5.34933 122.38 5.408 122.246 5.408C122.166 5.408 122.076 5.37867 121.974 5.32C121.873 5.26133 121.748 5.19733 121.598 5.128C121.454 5.05333 121.281 4.98667 121.078 4.928C120.876 4.864 120.636 4.832 120.358 4.832C120.118 4.832 119.902 4.864 119.71 4.928C119.518 4.98667 119.353 5.06933 119.214 5.176C119.081 5.28267 118.977 5.408 118.902 5.552C118.833 5.69067 118.798 5.84267 118.798 6.008C118.798 6.216 118.857 6.38933 118.974 6.528C119.097 6.66667 119.257 6.78667 119.454 6.888C119.652 6.98933 119.876 7.08 120.126 7.16C120.377 7.23467 120.633 7.31733 120.894 7.408C121.161 7.49333 121.42 7.58933 121.67 7.696C121.921 7.80267 122.145 7.936 122.342 8.096C122.54 8.256 122.697 8.45333 122.814 8.688C122.937 8.91733 122.998 9.19467 122.998 9.52C122.998 9.89333 122.932 10.24 122.798 10.56C122.665 10.8747 122.468 11.1493 122.206 11.384C121.945 11.6133 121.625 11.7947 121.246 11.928C120.868 12.0613 120.43 12.128 119.934 12.128C119.369 12.128 118.857 12.0373 118.398 11.856C117.94 11.6693 117.55 11.432 117.23 11.144L117.566 10.6C117.609 10.5307 117.66 10.4773 117.718 10.44C117.777 10.4027 117.854 10.384 117.95 10.384C118.046 10.384 118.148 10.4213 118.254 10.496C118.361 10.5707 118.489 10.6533 118.638 10.744C118.793 10.8347 118.977 10.9173 119.19 10.992C119.409 11.0667 119.681 11.104 120.006 11.104C120.284 11.104 120.526 11.0693 120.734 11C120.942 10.9253 121.116 10.8267 121.254 10.704C121.393 10.5813 121.494 10.44 121.558 10.28C121.628 10.12 121.662 9.94933 121.662 9.768C121.662 9.544 121.601 9.36 121.478 9.216C121.361 9.06667 121.204 8.94133 121.006 8.84C120.809 8.73333 120.582 8.64267 120.326 8.568C120.076 8.488 119.817 8.40533 119.55 8.32C119.289 8.23467 119.03 8.13867 118.774 8.032C118.524 7.92 118.3 7.78133 118.102 7.616C117.905 7.45067 117.745 7.248 117.622 7.008C117.505 6.76267 117.446 6.46667 117.446 6.12C117.446 5.81067 117.51 5.51467 117.638 5.232C117.766 4.944 117.953 4.69333 118.198 4.48C118.444 4.26133 118.745 4.088 119.102 3.96C119.46 3.832 119.868 3.768 120.326 3.768C120.86 3.768 121.337 3.85333 121.758 4.024C122.185 4.18933 122.553 4.41867 122.862 4.712L122.542 5.232ZM124.84 12V0.216H126.264V4.984C126.611 4.616 126.995 4.32267 127.416 4.104C127.837 3.88 128.323 3.768 128.872 3.768C129.315 3.768 129.704 3.84267 130.04 3.992C130.381 4.136 130.664 4.344 130.888 4.616C131.117 4.88267 131.291 5.20533 131.408 5.584C131.525 5.96267 131.584 6.38133 131.584 6.84V12H130.16V6.84C130.16 6.22667 130.019 5.752 129.736 5.416C129.459 5.07467 129.032 4.904 128.456 4.904C128.035 4.904 127.64 5.00533 127.272 5.208C126.909 5.41067 126.573 5.68533 126.264 6.032V12H124.84ZM36.2539 31V22.896H37.1019C37.3046 22.896 37.4326 22.9947 37.4859 23.192L37.5899 24.024C37.8886 23.656 38.2219 23.3547 38.5899 23.12C38.9633 22.8853 39.3953 22.768 39.8859 22.768C40.4353 22.768 40.8779 22.92 41.2139 23.224C41.5553 23.528 41.8006 23.9387 41.9499 24.456C42.0619 24.1627 42.2086 23.9093 42.3899 23.696C42.5766 23.4827 42.7846 23.3067 43.0139 23.168C43.2433 23.0293 43.4859 22.928 43.7419 22.864C44.0033 22.8 44.2673 22.768 44.5339 22.768C44.9606 22.768 45.3393 22.8373 45.6699 22.976C46.0059 23.1093 46.2886 23.3067 46.5179 23.568C46.7526 23.8293 46.9313 24.152 47.0539 24.536C47.1766 24.9147 47.2379 25.3493 47.2379 25.84V31H45.8139V25.84C45.8139 25.2053 45.6753 24.7253 45.3979 24.4C45.1206 24.0693 44.7179 23.904 44.1899 23.904C43.9553 23.904 43.7313 23.9467 43.5179 24.032C43.3099 24.112 43.1259 24.232 42.9659 24.392C42.8059 24.552 42.6779 24.7547 42.5819 25C42.4913 25.24 42.4459 25.52 42.4459 25.84V31H41.0219V25.84C41.0219 25.1893 40.8913 24.704 40.6299 24.384C40.3686 24.064 39.9873 23.904 39.4859 23.904C39.1339 23.904 38.8059 24 38.5019 24.192C38.2033 24.3787 37.9286 24.6347 37.6779 24.96V31H36.2539ZM52.6026 22.768C53.0879 22.768 53.5359 22.8507 53.9466 23.016C54.3572 23.176 54.7119 23.4107 55.0106 23.72C55.3092 24.024 55.5412 24.4027 55.7066 24.856C55.8772 25.304 55.9626 25.816 55.9626 26.392C55.9626 26.616 55.9386 26.7653 55.8906 26.84C55.8426 26.9147 55.7519 26.952 55.6186 26.952H50.2266C50.2372 27.464 50.3066 27.9093 50.4346 28.288C50.5626 28.6667 50.7386 28.984 50.9626 29.24C51.1866 29.4907 51.4532 29.68 51.7626 29.808C52.0719 29.9307 52.4186 29.992 52.8026 29.992C53.1599 29.992 53.4666 29.952 53.7226 29.872C53.9839 29.7867 54.2079 29.696 54.3946 29.6C54.5812 29.504 54.7359 29.416 54.8586 29.336C54.9866 29.2507 55.0959 29.208 55.1866 29.208C55.3039 29.208 55.3946 29.2533 55.4586 29.344L55.8586 29.864C55.6826 30.0773 55.4719 30.264 55.2266 30.424C54.9812 30.5787 54.7172 30.7067 54.4346 30.808C54.1572 30.9093 53.8692 30.984 53.5706 31.032C53.2719 31.0853 52.9759 31.112 52.6826 31.112C52.1226 31.112 51.6052 31.0187 51.1306 30.832C50.6612 30.64 50.2532 30.3627 49.9066 30C49.5652 29.632 49.2986 29.1787 49.1066 28.64C48.9146 28.1013 48.8186 27.4827 48.8186 26.784C48.8186 26.2187 48.9039 25.6907 49.0746 25.2C49.2506 24.7093 49.5012 24.2853 49.8266 23.928C50.1519 23.5653 50.5492 23.2827 51.0186 23.08C51.4879 22.872 52.0159 22.768 52.6026 22.768ZM52.6346 23.816C51.9466 23.816 51.4052 24.016 51.0106 24.416C50.6159 24.8107 50.3706 25.36 50.2746 26.064H54.6826C54.6826 25.7333 54.6372 25.432 54.5466 25.16C54.4559 24.8827 54.3226 24.6453 54.1466 24.448C53.9706 24.2453 53.7546 24.0907 53.4986 23.984C53.2479 23.872 52.9599 23.816 52.6346 23.816ZM57.7852 31V22.896H58.6332C58.8359 22.896 58.9639 22.9947 59.0172 23.192L59.1292 24.072C59.4812 23.6827 59.8732 23.368 60.3052 23.128C60.7425 22.888 61.2465 22.768 61.8172 22.768C62.2599 22.768 62.6492 22.8427 62.9852 22.992C63.3265 23.136 63.6092 23.344 63.8332 23.616C64.0625 23.8827 64.2359 24.2053 64.3532 24.584C64.4705 24.9627 64.5292 25.3813 64.5292 25.84V31H63.1052V25.84C63.1052 25.2267 62.9639 24.752 62.6812 24.416C62.4039 24.0747 61.9772 23.904 61.4012 23.904C60.9799 23.904 60.5852 24.0053 60.2172 24.208C59.8545 24.4107 59.5185 24.6853 59.2092 25.032V31H57.7852ZM69.8838 22.768C70.3691 22.768 70.8171 22.8507 71.2278 23.016C71.6385 23.176 71.9931 23.4107 72.2918 23.72C72.5905 24.024 72.8225 24.4027 72.9878 24.856C73.1585 25.304 73.2438 25.816 73.2438 26.392C73.2438 26.616 73.2198 26.7653 73.1718 26.84C73.1238 26.9147 73.0331 26.952 72.8998 26.952H67.5078C67.5185 27.464 67.5878 27.9093 67.7158 28.288C67.8438 28.6667 68.0198 28.984 68.2438 29.24C68.4678 29.4907 68.7345 29.68 69.0438 29.808C69.3531 29.9307 69.6998 29.992 70.0838 29.992C70.4411 29.992 70.7478 29.952 71.0038 29.872C71.2651 29.7867 71.4891 29.696 71.6758 29.6C71.8625 29.504 72.0171 29.416 72.1398 29.336C72.2678 29.2507 72.3771 29.208 72.4678 29.208C72.5851 29.208 72.6758 29.2533 72.7398 29.344L73.1398 29.864C72.9638 30.0773 72.7531 30.264 72.5078 30.424C72.2625 30.5787 71.9985 30.7067 71.7158 30.808C71.4385 30.9093 71.1505 30.984 70.8518 31.032C70.5531 31.0853 70.2571 31.112 69.9638 31.112C69.4038 31.112 68.8865 31.0187 68.4118 30.832C67.9425 30.64 67.5345 30.3627 67.1878 30C66.8465 29.632 66.5798 29.1787 66.3878 28.64C66.1958 28.1013 66.0998 27.4827 66.0998 26.784C66.0998 26.2187 66.1851 25.6907 66.3558 25.2C66.5318 24.7093 66.7825 24.2853 67.1078 23.928C67.4331 23.5653 67.8305 23.2827 68.2998 23.08C68.7691 22.872 69.2971 22.768 69.8838 22.768ZM69.9158 23.816C69.2278 23.816 68.6865 24.016 68.2918 24.416C67.8971 24.8107 67.6518 25.36 67.5558 26.064H71.9638C71.9638 25.7333 71.9185 25.432 71.8278 25.16C71.7371 24.8827 71.6038 24.6453 71.4278 24.448C71.2518 24.2453 71.0358 24.0907 70.7798 23.984C70.5291 23.872 70.2411 23.816 69.9158 23.816ZM77.7944 22.76C78.1464 22.76 78.4744 22.8 78.7784 22.88C79.0878 22.9547 79.3678 23.0667 79.6184 23.216H81.8184V23.744C81.8184 23.92 81.7064 24.032 81.4824 24.08L80.5624 24.208C80.7438 24.5547 80.8344 24.9413 80.8344 25.368C80.8344 25.7627 80.7571 26.1227 80.6024 26.448C80.4531 26.768 80.2424 27.0427 79.9704 27.272C79.7038 27.5013 79.3838 27.6773 79.0104 27.8C78.6424 27.9227 78.2371 27.984 77.7944 27.984C77.4158 27.984 77.0584 27.9387 76.7224 27.848C76.5518 27.9547 76.4211 28.0693 76.3304 28.192C76.2451 28.3147 76.2024 28.4347 76.2024 28.552C76.2024 28.744 76.2798 28.8907 76.4344 28.992C76.5891 29.088 76.7944 29.1573 77.0504 29.2C77.3064 29.2427 77.5971 29.2693 77.9224 29.28C78.2478 29.2907 78.5784 29.3093 78.9144 29.336C79.2558 29.3573 79.5891 29.3973 79.9144 29.456C80.2398 29.5147 80.5304 29.6107 80.7864 29.744C81.0424 29.8773 81.2478 30.0613 81.4024 30.296C81.5571 30.5307 81.6344 30.8347 81.6344 31.208C81.6344 31.5547 81.5464 31.8907 81.3704 32.216C81.1998 32.5413 80.9518 32.8293 80.6264 33.08C80.3011 33.336 79.9038 33.5387 79.4344 33.688C78.9651 33.8427 78.4344 33.92 77.8424 33.92C77.2504 33.92 76.7304 33.8613 76.2824 33.744C75.8398 33.6267 75.4718 33.4693 75.1784 33.272C74.8851 33.0747 74.6638 32.8453 74.5144 32.584C74.3704 32.328 74.2984 32.0587 74.2984 31.776C74.2984 31.376 74.4238 31.0373 74.6744 30.76C74.9304 30.4773 75.2798 30.2533 75.7224 30.088C75.4931 29.9813 75.3091 29.84 75.1704 29.664C75.0371 29.4827 74.9704 29.2427 74.9704 28.944C74.9704 28.8267 74.9918 28.7067 75.0344 28.584C75.0771 28.456 75.1411 28.3307 75.2264 28.208C75.3171 28.0853 75.4264 27.968 75.5544 27.856C75.6824 27.744 75.8318 27.6453 76.0024 27.56C75.6024 27.336 75.2878 27.04 75.0584 26.672C74.8344 26.2987 74.7224 25.864 74.7224 25.368C74.7224 24.9733 74.7971 24.616 74.9464 24.296C75.1011 23.9707 75.3144 23.696 75.5864 23.472C75.8584 23.2427 76.1811 23.0667 76.5544 22.944C76.9331 22.8213 77.3464 22.76 77.7944 22.76ZM80.3224 31.44C80.3224 31.2373 80.2664 31.0747 80.1544 30.952C80.0424 30.8293 79.8904 30.736 79.6984 30.672C79.5064 30.6027 79.2851 30.552 79.0344 30.52C78.7838 30.488 78.5198 30.4667 78.2424 30.456C77.9651 30.44 77.6824 30.424 77.3944 30.408C77.1064 30.392 76.8318 30.3627 76.5704 30.32C76.2664 30.464 76.0184 30.64 75.8264 30.848C75.6398 31.056 75.5464 31.304 75.5464 31.592C75.5464 31.7733 75.5918 31.9413 75.6824 32.096C75.7784 32.256 75.9224 32.392 76.1144 32.504C76.3064 32.6213 76.5464 32.712 76.8344 32.776C77.1278 32.8453 77.4718 32.88 77.8664 32.88C78.2504 32.88 78.5944 32.8453 78.8984 32.776C79.2024 32.7067 79.4584 32.608 79.6664 32.48C79.8798 32.352 80.0424 32.2 80.1544 32.024C80.2664 31.848 80.3224 31.6533 80.3224 31.44ZM77.7944 27.04C78.0824 27.04 78.3358 27 78.5544 26.92C78.7784 26.84 78.9651 26.728 79.1144 26.584C79.2638 26.44 79.3758 26.2693 79.4504 26.072C79.5251 25.8693 79.5624 25.648 79.5624 25.408C79.5624 24.912 79.4104 24.5173 79.1064 24.224C78.8078 23.9307 78.3704 23.784 77.7944 23.784C77.2238 23.784 76.7864 23.9307 76.4824 24.224C76.1838 24.5173 76.0344 24.912 76.0344 25.408C76.0344 25.648 76.0718 25.8693 76.1464 26.072C76.2264 26.2693 76.3411 26.44 76.4904 26.584C76.6398 26.728 76.8238 26.84 77.0424 26.92C77.2611 27 77.5118 27.04 77.7944 27.04ZM86.4463 22.768C86.9316 22.768 87.3796 22.8507 87.7903 23.016C88.201 23.176 88.5556 23.4107 88.8543 23.72C89.153 24.024 89.385 24.4027 89.5503 24.856C89.721 25.304 89.8063 25.816 89.8063 26.392C89.8063 26.616 89.7823 26.7653 89.7343 26.84C89.6863 26.9147 89.5956 26.952 89.4623 26.952H84.0703C84.081 27.464 84.1503 27.9093 84.2783 28.288C84.4063 28.6667 84.5823 28.984 84.8063 29.24C85.0303 29.4907 85.297 29.68 85.6063 29.808C85.9156 29.9307 86.2623 29.992 86.6463 29.992C87.0036 29.992 87.3103 29.952 87.5663 29.872C87.8276 29.7867 88.0516 29.696 88.2383 29.6C88.425 29.504 88.5796 29.416 88.7023 29.336C88.8303 29.2507 88.9396 29.208 89.0303 29.208C89.1476 29.208 89.2383 29.2533 89.3023 29.344L89.7023 29.864C89.5263 30.0773 89.3156 30.264 89.0703 30.424C88.825 30.5787 88.561 30.7067 88.2783 30.808C88.001 30.9093 87.713 30.984 87.4143 31.032C87.1156 31.0853 86.8196 31.112 86.5263 31.112C85.9663 31.112 85.449 31.0187 84.9743 30.832C84.505 30.64 84.097 30.3627 83.7503 30C83.409 29.632 83.1423 29.1787 82.9503 28.64C82.7583 28.1013 82.6623 27.4827 82.6623 26.784C82.6623 26.2187 82.7476 25.6907 82.9183 25.2C83.0943 24.7093 83.345 24.2853 83.6703 23.928C83.9956 23.5653 84.393 23.2827 84.8623 23.08C85.3316 22.872 85.8596 22.768 86.4463 22.768ZM86.4783 23.816C85.7903 23.816 85.249 24.016 84.8543 24.416C84.4596 24.8107 84.2143 25.36 84.1183 26.064H88.5263C88.5263 25.7333 88.481 25.432 88.3903 25.16C88.2996 24.8827 88.1663 24.6453 87.9903 24.448C87.8143 24.2453 87.5983 24.0907 87.3423 23.984C87.0916 23.872 86.8036 23.816 86.4783 23.816ZM91.6289 31V22.896H92.4449C92.5996 22.896 92.7063 22.9253 92.7649 22.984C92.8236 23.0427 92.8636 23.144 92.8849 23.288L92.9809 24.552C93.2583 23.9867 93.5996 23.5467 94.0049 23.232C94.4156 22.912 94.8956 22.752 95.4449 22.752C95.6689 22.752 95.8716 22.7787 96.0529 22.832C96.2343 22.88 96.4023 22.9493 96.5569 23.04L96.3729 24.104C96.3356 24.2373 96.2529 24.304 96.1249 24.304C96.0503 24.304 95.9356 24.28 95.7809 24.232C95.6263 24.1787 95.4103 24.152 95.1329 24.152C94.6369 24.152 94.2209 24.296 93.8849 24.584C93.5543 24.872 93.2769 25.2907 93.0529 25.84V31H91.6289Z" fill="#EC681F"/>
</svg>
