<svg width="132" height="34" viewBox="0 0 132 34" fill="none" xmlns="http://www.w3.org/2000/svg">
<path d="M6.4695 7.856C6.54417 7.984 6.60817 8.12 6.6615 8.264C6.72017 8.40267 6.77617 8.544 6.8295 8.688C6.88283 8.53867 6.93883 8.39733 6.9975 8.264C7.05617 8.12533 7.12283 7.98667 7.1975 7.848L11.0775 0.799999C11.1468 0.677333 11.2188 0.602666 11.2935 0.575999C11.3682 0.549333 11.4748 0.535999 11.6135 0.535999H12.7575V12H11.3975V3.576C11.3975 3.464 11.4002 3.344 11.4055 3.216C11.4108 3.088 11.4188 2.95733 11.4295 2.824L7.5015 9.992C7.36817 10.232 7.1815 10.352 6.9415 10.352H6.7175C6.4775 10.352 6.29083 10.232 6.1575 9.992L2.1415 2.8C2.1575 2.93867 2.16817 3.07467 2.1735 3.208C2.18417 3.34133 2.1895 3.464 2.1895 3.576V12H0.8295V0.535999H1.9735C2.11217 0.535999 2.21883 0.549333 2.2935 0.575999C2.36817 0.602666 2.44017 0.677333 2.5095 0.799999L6.4695 7.856ZM16.9083 3.896V12H15.4843V3.896H16.9083ZM17.2283 1.352C17.2283 1.49067 17.1989 1.62133 17.1403 1.744C17.0869 1.86133 17.0123 1.968 16.9163 2.064C16.8256 2.15467 16.7189 2.22667 16.5963 2.28C16.4736 2.33333 16.3429 2.36 16.2043 2.36C16.0656 2.36 15.9349 2.33333 15.8123 2.28C15.6949 2.22667 15.5883 2.15467 15.4923 2.064C15.4016 1.968 15.3296 1.86133 15.2763 1.744C15.2229 1.62133 15.1963 1.49067 15.1963 1.352C15.1963 1.21333 15.2229 1.08267 15.2763 0.959999C15.3296 0.831999 15.4016 0.722666 15.4923 0.631999C15.5883 0.536 15.6949 0.461333 15.8123 0.407999C15.9349 0.354666 16.0656 0.327999 16.2043 0.327999C16.3429 0.327999 16.4736 0.354666 16.5963 0.407999C16.7189 0.461333 16.8256 0.536 16.9163 0.631999C17.0123 0.722666 17.0869 0.831999 17.1403 0.959999C17.1989 1.08267 17.2283 1.21333 17.2283 1.352ZM25.074 4.504C25.074 4.60533 25.0553 4.704 25.018 4.8C24.9807 4.89067 24.9327 4.97333 24.874 5.048L20.49 10.888H24.914V12H18.81V11.408C18.81 11.3387 18.826 11.2587 18.858 11.168C18.8953 11.072 18.946 10.9813 19.01 10.896L23.418 5.016H19.058V3.896H25.074V4.504ZM28.3926 0.216V12H26.9686V0.216H28.3926ZM36.8544 12H36.2224C36.0837 12 35.9717 11.9787 35.8864 11.936C35.801 11.8933 35.745 11.8027 35.7184 11.664L35.5584 10.912C35.345 11.104 35.137 11.2773 34.9344 11.432C34.7317 11.5813 34.5184 11.7093 34.2944 11.816C34.0704 11.9173 33.8304 11.9947 33.5744 12.048C33.3237 12.1013 33.0437 12.128 32.7344 12.128C32.4197 12.128 32.1237 12.0853 31.8464 12C31.5744 11.9093 31.337 11.776 31.1344 11.6C30.9317 11.424 30.769 11.2027 30.6464 10.936C30.529 10.664 30.4704 10.344 30.4704 9.976C30.4704 9.656 30.5584 9.34933 30.7344 9.056C30.9104 8.75733 31.193 8.49333 31.5824 8.264C31.977 8.03467 32.4917 7.848 33.1264 7.704C33.761 7.55467 34.537 7.46933 35.4544 7.448V6.816C35.4544 6.18667 35.3184 5.712 35.0464 5.392C34.7797 5.06667 34.3824 4.904 33.8544 4.904C33.5077 4.904 33.2144 4.94933 32.9744 5.04C32.7397 5.12533 32.5344 5.224 32.3584 5.336C32.1877 5.44267 32.0384 5.54133 31.9104 5.632C31.7877 5.71733 31.665 5.76 31.5424 5.76C31.4464 5.76 31.361 5.736 31.2864 5.688C31.217 5.63467 31.161 5.57067 31.1184 5.496L30.8624 5.04C31.3104 4.608 31.793 4.28533 32.3104 4.072C32.8277 3.85867 33.401 3.752 34.0304 3.752C34.4837 3.752 34.8864 3.82667 35.2384 3.976C35.5904 4.12533 35.8864 4.33333 36.1264 4.6C36.3664 4.86667 36.5477 5.18933 36.6704 5.568C36.793 5.94667 36.8544 6.36267 36.8544 6.816V12ZM33.1584 11.128C33.409 11.128 33.6384 11.104 33.8464 11.056C34.0544 11.0027 34.249 10.9307 34.4304 10.84C34.617 10.744 34.793 10.6293 34.9584 10.496C35.129 10.3627 35.2944 10.2107 35.4544 10.04V8.352C34.7984 8.37333 34.241 8.42667 33.7824 8.512C33.3237 8.592 32.9504 8.69867 32.6624 8.832C32.3744 8.96533 32.1637 9.12267 32.0304 9.304C31.9024 9.48533 31.8384 9.688 31.8384 9.912C31.8384 10.1253 31.873 10.3093 31.9424 10.464C32.0117 10.6187 32.105 10.7467 32.2224 10.848C32.3397 10.944 32.4784 11.016 32.6384 11.064C32.7984 11.1067 32.9717 11.128 33.1584 11.128ZM39.0118 12V3.896H39.8278C39.9824 3.896 40.0891 3.92533 40.1478 3.984C40.2064 4.04267 40.2464 4.144 40.2678 4.288L40.3638 5.552C40.6411 4.98667 40.9824 4.54667 41.3878 4.232C41.7984 3.912 42.2784 3.752 42.8278 3.752C43.0518 3.752 43.2544 3.77867 43.4358 3.832C43.6171 3.88 43.7851 3.94933 43.9398 4.04L43.7558 5.104C43.7184 5.23733 43.6358 5.304 43.5078 5.304C43.4331 5.304 43.3184 5.28 43.1638 5.232C43.0091 5.17867 42.7931 5.152 42.5158 5.152C42.0198 5.152 41.6038 5.296 41.2678 5.584C40.9371 5.872 40.6598 6.29067 40.4358 6.84V12H39.0118ZM48.6066 12V0.216H50.0386V5.064C50.3746 4.67467 50.7586 4.36267 51.1906 4.128C51.628 3.888 52.1266 3.768 52.6866 3.768C53.156 3.768 53.58 3.856 53.9586 4.032C54.3373 4.208 54.66 4.472 54.9266 4.824C55.1933 5.17067 55.3986 5.60267 55.5426 6.12C55.6866 6.632 55.7586 7.224 55.7586 7.896C55.7586 8.49333 55.6786 9.05067 55.5186 9.568C55.3586 10.08 55.1266 10.5253 54.8226 10.904C54.524 11.2773 54.156 11.5733 53.7186 11.792C53.2866 12.0053 52.7986 12.112 52.2546 12.112C51.732 12.112 51.2866 12.0107 50.9186 11.808C50.556 11.6053 50.2386 11.3227 49.9666 10.96L49.8946 11.696C49.852 11.8987 49.7293 12 49.5266 12H48.6066ZM52.2226 4.904C51.7586 4.904 51.3506 5.01067 50.9986 5.224C50.652 5.43733 50.332 5.73867 50.0386 6.128V10.048C50.2946 10.4 50.5773 10.648 50.8866 10.792C51.2013 10.936 51.5506 11.008 51.9346 11.008C52.692 11.008 53.2733 10.7387 53.6786 10.2C54.084 9.66133 54.2866 8.89333 54.2866 7.896C54.2866 7.368 54.2386 6.91467 54.1426 6.536C54.052 6.15733 53.9186 5.848 53.7426 5.608C53.5666 5.36267 53.3506 5.184 53.0946 5.072C52.8386 4.96 52.548 4.904 52.2226 4.904ZM59.0801 3.896V12H57.6561V3.896H59.0801ZM59.4001 1.352C59.4001 1.49067 59.3708 1.62133 59.3121 1.744C59.2588 1.86133 59.1841 1.968 59.0881 2.064C58.9975 2.15467 58.8908 2.22667 58.7681 2.28C58.6455 2.33333 58.5148 2.36 58.3761 2.36C58.2375 2.36 58.1068 2.33333 57.9841 2.28C57.8668 2.22667 57.7601 2.15467 57.6641 2.064C57.5735 1.968 57.5015 1.86133 57.4481 1.744C57.3948 1.62133 57.3681 1.49067 57.3681 1.352C57.3681 1.21333 57.3948 1.08267 57.4481 0.959999C57.5015 0.831999 57.5735 0.722666 57.6641 0.631999C57.7601 0.536 57.8668 0.461333 57.9841 0.407999C58.1068 0.354666 58.2375 0.327999 58.3761 0.327999C58.5148 0.327999 58.6455 0.354666 58.7681 0.407999C58.8908 0.461333 58.9975 0.536 59.0881 0.631999C59.1841 0.722666 59.2588 0.831999 59.3121 0.959999C59.3708 1.08267 59.4001 1.21333 59.4001 1.352ZM63.1739 0.216V12H61.7499V0.216H63.1739ZM71.6356 12H71.0036C70.865 12 70.753 11.9787 70.6676 11.936C70.5823 11.8933 70.5263 11.8027 70.4996 11.664L70.3396 10.912C70.1263 11.104 69.9183 11.2773 69.7156 11.432C69.513 11.5813 69.2996 11.7093 69.0756 11.816C68.8516 11.9173 68.6116 11.9947 68.3556 12.048C68.105 12.1013 67.825 12.128 67.5156 12.128C67.201 12.128 66.905 12.0853 66.6276 12C66.3556 11.9093 66.1183 11.776 65.9156 11.6C65.713 11.424 65.5503 11.2027 65.4276 10.936C65.3103 10.664 65.2516 10.344 65.2516 9.976C65.2516 9.656 65.3396 9.34933 65.5156 9.056C65.6916 8.75733 65.9743 8.49333 66.3636 8.264C66.7583 8.03467 67.273 7.848 67.9076 7.704C68.5423 7.55467 69.3183 7.46933 70.2356 7.448V6.816C70.2356 6.18667 70.0996 5.712 69.8276 5.392C69.561 5.06667 69.1636 4.904 68.6356 4.904C68.289 4.904 67.9956 4.94933 67.7556 5.04C67.521 5.12533 67.3156 5.224 67.1396 5.336C66.969 5.44267 66.8196 5.54133 66.6916 5.632C66.569 5.71733 66.4463 5.76 66.3236 5.76C66.2276 5.76 66.1423 5.736 66.0676 5.688C65.9983 5.63467 65.9423 5.57067 65.8996 5.496L65.6436 5.04C66.0916 4.608 66.5743 4.28533 67.0916 4.072C67.609 3.85867 68.1823 3.752 68.8116 3.752C69.265 3.752 69.6676 3.82667 70.0196 3.976C70.3716 4.12533 70.6676 4.33333 70.9076 4.6C71.1476 4.86667 71.329 5.18933 71.4516 5.568C71.5743 5.94667 71.6356 6.36267 71.6356 6.816V12ZM67.9396 11.128C68.1903 11.128 68.4196 11.104 68.6276 11.056C68.8356 11.0027 69.0303 10.9307 69.2116 10.84C69.3983 10.744 69.5743 10.6293 69.7396 10.496C69.9103 10.3627 70.0756 10.2107 70.2356 10.04V8.352C69.5796 8.37333 69.0223 8.42667 68.5636 8.512C68.105 8.592 67.7316 8.69867 67.4436 8.832C67.1556 8.96533 66.945 9.12267 66.8116 9.304C66.6836 9.48533 66.6196 9.688 66.6196 9.912C66.6196 10.1253 66.6543 10.3093 66.7236 10.464C66.793 10.6187 66.8863 10.7467 67.0036 10.848C67.121 10.944 67.2596 11.016 67.4196 11.064C67.5796 11.1067 67.753 11.128 67.9396 11.128ZM73.793 12V3.896H74.641C74.8437 3.896 74.9717 3.99467 75.025 4.192L75.137 5.072C75.489 4.68267 75.881 4.368 76.313 4.128C76.7503 3.888 77.2543 3.768 77.825 3.768C78.2677 3.768 78.657 3.84267 78.993 3.992C79.3343 4.136 79.617 4.344 79.841 4.616C80.0703 4.88267 80.2437 5.20533 80.361 5.584C80.4783 5.96267 80.537 6.38133 80.537 6.84V12H79.113V6.84C79.113 6.22667 78.9717 5.752 78.689 5.416C78.4117 5.07467 77.985 4.904 77.409 4.904C76.9877 4.904 76.593 5.00533 76.225 5.208C75.8623 5.41067 75.5263 5.68533 75.217 6.032V12H73.793ZM87.3614 3.896V12H85.9374V3.896H87.3614ZM87.6814 1.352C87.6814 1.49067 87.652 1.62133 87.5934 1.744C87.54 1.86133 87.4654 1.968 87.3694 2.064C87.2787 2.15467 87.172 2.22667 87.0494 2.28C86.9267 2.33333 86.796 2.36 86.6574 2.36C86.5187 2.36 86.388 2.33333 86.2654 2.28C86.148 2.22667 86.0414 2.15467 85.9454 2.064C85.8547 1.968 85.7827 1.86133 85.7294 1.744C85.676 1.62133 85.6494 1.49067 85.6494 1.352C85.6494 1.21333 85.676 1.08267 85.7294 0.959999C85.7827 0.831999 85.8547 0.722666 85.9454 0.631999C86.0414 0.536 86.148 0.461333 86.2654 0.407999C86.388 0.354666 86.5187 0.327999 86.6574 0.327999C86.796 0.327999 86.9267 0.354666 87.0494 0.407999C87.172 0.461333 87.2787 0.536 87.3694 0.631999C87.4654 0.722666 87.54 0.831999 87.5934 0.959999C87.652 1.08267 87.6814 1.21333 87.6814 1.352ZM94.5111 5.232C94.4471 5.34933 94.3485 5.408 94.2151 5.408C94.1351 5.408 94.0445 5.37867 93.9431 5.32C93.8418 5.26133 93.7165 5.19733 93.5671 5.128C93.4231 5.05333 93.2498 4.98667 93.0471 4.928C92.8445 4.864 92.6045 4.832 92.3271 4.832C92.0871 4.832 91.8711 4.864 91.6791 4.928C91.4871 4.98667 91.3218 5.06933 91.1831 5.176C91.0498 5.28267 90.9458 5.408 90.8711 5.552C90.8018 5.69067 90.7671 5.84267 90.7671 6.008C90.7671 6.216 90.8258 6.38933 90.9431 6.528C91.0658 6.66667 91.2258 6.78667 91.4231 6.888C91.6205 6.98933 91.8445 7.08 92.0951 7.16C92.3458 7.23467 92.6018 7.31733 92.8631 7.408C93.1298 7.49333 93.3885 7.58933 93.6391 7.696C93.8898 7.80267 94.1138 7.936 94.3111 8.096C94.5085 8.256 94.6658 8.45333 94.7831 8.688C94.9058 8.91733 94.9671 9.19467 94.9671 9.52C94.9671 9.89333 94.9005 10.24 94.7671 10.56C94.6338 10.8747 94.4365 11.1493 94.1751 11.384C93.9138 11.6133 93.5938 11.7947 93.2151 11.928C92.8365 12.0613 92.3991 12.128 91.9031 12.128C91.3378 12.128 90.8258 12.0373 90.3671 11.856C89.9085 11.6693 89.5191 11.432 89.1991 11.144L89.5351 10.6C89.5778 10.5307 89.6285 10.4773 89.6871 10.44C89.7458 10.4027 89.8231 10.384 89.9191 10.384C90.0151 10.384 90.1165 10.4213 90.2231 10.496C90.3298 10.5707 90.4578 10.6533 90.6071 10.744C90.7618 10.8347 90.9458 10.9173 91.1591 10.992C91.3778 11.0667 91.6498 11.104 91.9751 11.104C92.2525 11.104 92.4951 11.0693 92.7031 11C92.9111 10.9253 93.0845 10.8267 93.2231 10.704C93.3618 10.5813 93.4631 10.44 93.5271 10.28C93.5965 10.12 93.6311 9.94933 93.6311 9.768C93.6311 9.544 93.5698 9.36 93.4471 9.216C93.3298 9.06667 93.1725 8.94133 92.9751 8.84C92.7778 8.73333 92.5511 8.64267 92.2951 8.568C92.0445 8.488 91.7858 8.40533 91.5191 8.32C91.2578 8.23467 90.9991 8.13867 90.7431 8.032C90.4925 7.92 90.2685 7.78133 90.0711 7.616C89.8738 7.45067 89.7138 7.248 89.5911 7.008C89.4738 6.76267 89.4151 6.46667 89.4151 6.12C89.4151 5.81067 89.4791 5.51467 89.6071 5.232C89.7351 4.944 89.9218 4.69333 90.1671 4.48C90.4125 4.26133 90.7138 4.088 91.0711 3.96C91.4285 3.832 91.8365 3.768 92.2951 3.768C92.8285 3.768 93.3058 3.85333 93.7271 4.024C94.1538 4.18933 94.5218 4.41867 94.8311 4.712L94.5111 5.232ZM96.8086 12V0.216H98.2326V4.984C98.5793 4.616 98.9633 4.32267 99.3846 4.104C99.806 3.88 100.291 3.768 100.841 3.768C101.283 3.768 101.673 3.84267 102.009 3.992C102.35 4.136 102.633 4.344 102.857 4.616C103.086 4.88267 103.259 5.20533 103.377 5.584C103.494 5.96267 103.553 6.38133 103.553 6.84V12H102.129V6.84C102.129 6.22667 101.987 5.752 101.705 5.416C101.427 5.07467 101.001 4.904 100.425 4.904C100.003 4.904 99.6086 5.00533 99.2406 5.208C98.878 5.41067 98.542 5.68533 98.2326 6.032V12H96.8086ZM107.283 0.216V12H105.859V0.216H107.283ZM115.745 12H115.113C114.974 12 114.862 11.9787 114.777 11.936C114.692 11.8933 114.636 11.8027 114.609 11.664L114.449 10.912C114.236 11.104 114.028 11.2773 113.825 11.432C113.622 11.5813 113.409 11.7093 113.185 11.816C112.961 11.9173 112.721 11.9947 112.465 12.048C112.214 12.1013 111.934 12.128 111.625 12.128C111.31 12.128 111.014 12.0853 110.737 12C110.465 11.9093 110.228 11.776 110.025 11.6C109.822 11.424 109.66 11.2027 109.537 10.936C109.42 10.664 109.361 10.344 109.361 9.976C109.361 9.656 109.449 9.34933 109.625 9.056C109.801 8.75733 110.084 8.49333 110.473 8.264C110.868 8.03467 111.382 7.848 112.017 7.704C112.652 7.55467 113.428 7.46933 114.345 7.448V6.816C114.345 6.18667 114.209 5.712 113.937 5.392C113.67 5.06667 113.273 4.904 112.745 4.904C112.398 4.904 112.105 4.94933 111.865 5.04C111.63 5.12533 111.425 5.224 111.249 5.336C111.078 5.44267 110.929 5.54133 110.801 5.632C110.678 5.71733 110.556 5.76 110.433 5.76C110.337 5.76 110.252 5.736 110.177 5.688C110.108 5.63467 110.052 5.57067 110.009 5.496L109.753 5.04C110.201 4.608 110.684 4.28533 111.201 4.072C111.718 3.85867 112.292 3.752 112.921 3.752C113.374 3.752 113.777 3.82667 114.129 3.976C114.481 4.12533 114.777 4.33333 115.017 4.6C115.257 4.86667 115.438 5.18933 115.561 5.568C115.684 5.94667 115.745 6.36267 115.745 6.816V12ZM112.049 11.128C112.3 11.128 112.529 11.104 112.737 11.056C112.945 11.0027 113.14 10.9307 113.321 10.84C113.508 10.744 113.684 10.6293 113.849 10.496C114.02 10.3627 114.185 10.2107 114.345 10.04V8.352C113.689 8.37333 113.132 8.42667 112.673 8.512C112.214 8.592 111.841 8.69867 111.553 8.832C111.265 8.96533 111.054 9.12267 110.921 9.304C110.793 9.48533 110.729 9.688 110.729 9.912C110.729 10.1253 110.764 10.3093 110.833 10.464C110.902 10.6187 110.996 10.7467 111.113 10.848C111.23 10.944 111.369 11.016 111.529 11.064C111.689 11.1067 111.862 11.128 112.049 11.128ZM122.542 5.232C122.478 5.34933 122.38 5.408 122.246 5.408C122.166 5.408 122.076 5.37867 121.974 5.32C121.873 5.26133 121.748 5.19733 121.598 5.128C121.454 5.05333 121.281 4.98667 121.078 4.928C120.876 4.864 120.636 4.832 120.358 4.832C120.118 4.832 119.902 4.864 119.71 4.928C119.518 4.98667 119.353 5.06933 119.214 5.176C119.081 5.28267 118.977 5.408 118.902 5.552C118.833 5.69067 118.798 5.84267 118.798 6.008C118.798 6.216 118.857 6.38933 118.974 6.528C119.097 6.66667 119.257 6.78667 119.454 6.888C119.652 6.98933 119.876 7.08 120.126 7.16C120.377 7.23467 120.633 7.31733 120.894 7.408C121.161 7.49333 121.42 7.58933 121.67 7.696C121.921 7.80267 122.145 7.936 122.342 8.096C122.54 8.256 122.697 8.45333 122.814 8.688C122.937 8.91733 122.998 9.19467 122.998 9.52C122.998 9.89333 122.932 10.24 122.798 10.56C122.665 10.8747 122.468 11.1493 122.206 11.384C121.945 11.6133 121.625 11.7947 121.246 11.928C120.868 12.0613 120.43 12.128 119.934 12.128C119.369 12.128 118.857 12.0373 118.398 11.856C117.94 11.6693 117.55 11.432 117.23 11.144L117.566 10.6C117.609 10.5307 117.66 10.4773 117.718 10.44C117.777 10.4027 117.854 10.384 117.95 10.384C118.046 10.384 118.148 10.4213 118.254 10.496C118.361 10.5707 118.489 10.6533 118.638 10.744C118.793 10.8347 118.977 10.9173 119.19 10.992C119.409 11.0667 119.681 11.104 120.006 11.104C120.284 11.104 120.526 11.0693 120.734 11C120.942 10.9253 121.116 10.8267 121.254 10.704C121.393 10.5813 121.494 10.44 121.558 10.28C121.628 10.12 121.662 9.94933 121.662 9.768C121.662 9.544 121.601 9.36 121.478 9.216C121.361 9.06667 121.204 8.94133 121.006 8.84C120.809 8.73333 120.582 8.64267 120.326 8.568C120.076 8.488 119.817 8.40533 119.55 8.32C119.289 8.23467 119.03 8.13867 118.774 8.032C118.524 7.92 118.3 7.78133 118.102 7.616C117.905 7.45067 117.745 7.248 117.622 7.008C117.505 6.76267 117.446 6.46667 117.446 6.12C117.446 5.81067 117.51 5.51467 117.638 5.232C117.766 4.944 117.953 4.69333 118.198 4.48C118.444 4.26133 118.745 4.088 119.102 3.96C119.46 3.832 119.868 3.768 120.326 3.768C120.86 3.768 121.337 3.85333 121.758 4.024C122.185 4.18933 122.553 4.41867 122.862 4.712L122.542 5.232ZM124.84 12V0.216H126.264V4.984C126.611 4.616 126.995 4.32267 127.416 4.104C127.837 3.88 128.323 3.768 128.872 3.768C129.315 3.768 129.704 3.84267 130.04 3.992C130.381 4.136 130.664 4.344 130.888 4.616C131.117 4.88267 131.291 5.20533 131.408 5.584C131.525 5.96267 131.584 6.38133 131.584 6.84V12H130.16V6.84C130.16 6.22667 130.019 5.752 129.736 5.416C129.459 5.07467 129.032 4.904 128.456 4.904C128.035 4.904 127.64 5.00533 127.272 5.208C126.909 5.41067 126.573 5.68533 126.264 6.032V12H124.84ZM16.0129 31V19.216H17.4449V24.064C17.7809 23.6747 18.1649 23.3627 18.5969 23.128C19.0342 22.888 19.5329 22.768 20.0929 22.768C20.5622 22.768 20.9862 22.856 21.3649 23.032C21.7435 23.208 22.0662 23.472 22.3329 23.824C22.5995 24.1707 22.8049 24.6027 22.9489 25.12C23.0929 25.632 23.1649 26.224 23.1649 26.896C23.1649 27.4933 23.0849 28.0507 22.9249 28.568C22.7649 29.08 22.5329 29.5253 22.2289 29.904C21.9302 30.2773 21.5622 30.5733 21.1249 30.792C20.6929 31.0053 20.2049 31.112 19.6609 31.112C19.1382 31.112 18.6929 31.0107 18.3249 30.808C17.9622 30.6053 17.6449 30.3227 17.3729 29.96L17.3009 30.696C17.2582 30.8987 17.1355 31 16.9329 31H16.0129ZM19.6289 23.904C19.1649 23.904 18.7569 24.0107 18.4049 24.224C18.0582 24.4373 17.7382 24.7387 17.4449 25.128V29.048C17.7009 29.4 17.9835 29.648 18.2929 29.792C18.6075 29.936 18.9569 30.008 19.3409 30.008C20.0982 30.008 20.6795 29.7387 21.0849 29.2C21.4902 28.6613 21.6929 27.8933 21.6929 26.896C21.6929 26.368 21.6449 25.9147 21.5489 25.536C21.4582 25.1573 21.3249 24.848 21.1489 24.608C20.9729 24.3627 20.7569 24.184 20.5009 24.072C20.2449 23.96 19.9542 23.904 19.6289 23.904ZM28.1824 22.768C28.7744 22.768 29.3077 22.8667 29.7824 23.064C30.2624 23.2613 30.6677 23.5413 30.9984 23.904C31.3344 24.2667 31.5904 24.7067 31.7664 25.224C31.9477 25.736 32.0384 26.3093 32.0384 26.944C32.0384 27.584 31.9477 28.16 31.7664 28.672C31.5904 29.184 31.3344 29.6213 30.9984 29.984C30.6677 30.3467 30.2624 30.6267 29.7824 30.824C29.3077 31.016 28.7744 31.112 28.1824 31.112C27.5904 31.112 27.0544 31.016 26.5744 30.824C26.0997 30.6267 25.6944 30.3467 25.3584 29.984C25.0224 29.6213 24.7637 29.184 24.5824 28.672C24.401 28.16 24.3104 27.584 24.3104 26.944C24.3104 26.3093 24.401 25.736 24.5824 25.224C24.7637 24.7067 25.0224 24.2667 25.3584 23.904C25.6944 23.5413 26.0997 23.2613 26.5744 23.064C27.0544 22.8667 27.5904 22.768 28.1824 22.768ZM28.1824 30C28.9824 30 29.5797 29.7333 29.9744 29.2C30.369 28.6613 30.5664 27.912 30.5664 26.952C30.5664 25.9867 30.369 25.2347 29.9744 24.696C29.5797 24.1573 28.9824 23.888 28.1824 23.888C27.777 23.888 27.425 23.9573 27.1264 24.096C26.8277 24.2347 26.577 24.4347 26.3744 24.696C26.177 24.9573 26.0277 25.28 25.9264 25.664C25.8304 26.0427 25.7824 26.472 25.7824 26.952C25.7824 27.432 25.8304 27.8613 25.9264 28.24C26.0277 28.6187 26.177 28.9387 26.3744 29.2C26.577 29.456 26.8277 29.6533 27.1264 29.792C27.425 29.9307 27.777 30 28.1824 30ZM34.0586 18.936C34.2133 19.192 34.3253 19.448 34.3946 19.704C34.464 19.96 34.4986 20.216 34.4986 20.472C34.4986 20.9573 34.3786 21.4213 34.1386 21.864C33.904 22.3013 33.576 22.704 33.1546 23.072L32.7146 22.8C32.672 22.7733 32.6426 22.744 32.6266 22.712C32.616 22.68 32.6106 22.648 32.6106 22.616C32.6106 22.5413 32.6373 22.4773 32.6906 22.424C32.776 22.3227 32.8586 22.2133 32.9386 22.096C33.0186 21.9733 33.0906 21.848 33.1546 21.72C33.2186 21.5867 33.2693 21.448 33.3066 21.304C33.344 21.16 33.3626 21.008 33.3626 20.848C33.3626 20.6773 33.336 20.5013 33.2826 20.32C33.2346 20.1387 33.1493 19.9467 33.0266 19.744C32.9893 19.6853 32.9706 19.6267 32.9706 19.568C32.9706 19.44 33.0426 19.3467 33.1866 19.288L34.0586 18.936ZM38.0333 19.216V31H36.6093V19.216H38.0333ZM42.127 22.896V31H40.703V22.896H42.127ZM42.447 20.352C42.447 20.4907 42.4177 20.6213 42.359 20.744C42.3057 20.8613 42.231 20.968 42.135 21.064C42.0443 21.1547 41.9377 21.2267 41.815 21.28C41.6923 21.3333 41.5617 21.36 41.423 21.36C41.2843 21.36 41.1537 21.3333 41.031 21.28C40.9137 21.2267 40.807 21.1547 40.711 21.064C40.6203 20.968 40.5483 20.8613 40.495 20.744C40.4417 20.6213 40.415 20.4907 40.415 20.352C40.415 20.2133 40.4417 20.0827 40.495 19.96C40.5483 19.832 40.6203 19.7227 40.711 19.632C40.807 19.536 40.9137 19.4613 41.031 19.408C41.1537 19.3547 41.2843 19.328 41.423 19.328C41.5617 19.328 41.6923 19.3547 41.815 19.408C41.9377 19.4613 42.0443 19.536 42.135 19.632C42.231 19.7227 42.3057 19.832 42.359 19.96C42.4177 20.0827 42.447 20.2133 42.447 20.352ZM44.6368 31V22.896H45.4848C45.6874 22.896 45.8154 22.9947 45.8688 23.192L45.9728 24.024C46.2714 23.656 46.6048 23.3547 46.9728 23.12C47.3461 22.8853 47.7781 22.768 48.2688 22.768C48.8181 22.768 49.2608 22.92 49.5968 23.224C49.9381 23.528 50.1834 23.9387 50.3328 24.456C50.4448 24.1627 50.5914 23.9093 50.7728 23.696C50.9594 23.4827 51.1674 23.3067 51.3968 23.168C51.6261 23.0293 51.8688 22.928 52.1248 22.864C52.3861 22.8 52.6501 22.768 52.9168 22.768C53.3434 22.768 53.7221 22.8373 54.0528 22.976C54.3888 23.1093 54.6714 23.3067 54.9008 23.568C55.1354 23.8293 55.3141 24.152 55.4368 24.536C55.5594 24.9147 55.6208 25.3493 55.6208 25.84V31H54.1968V25.84C54.1968 25.2053 54.0581 24.7253 53.7808 24.4C53.5034 24.0693 53.1008 23.904 52.5728 23.904C52.3381 23.904 52.1141 23.9467 51.9008 24.032C51.6928 24.112 51.5088 24.232 51.3488 24.392C51.1888 24.552 51.0608 24.7547 50.9648 25C50.8741 25.24 50.8288 25.52 50.8288 25.84V31H49.4048V25.84C49.4048 25.1893 49.2741 24.704 49.0128 24.384C48.7514 24.064 48.3701 23.904 47.8688 23.904C47.5168 23.904 47.1888 24 46.8848 24.192C46.5861 24.3787 46.3114 24.6347 46.0608 24.96V31H44.6368ZM60.9191 31V19.216H62.3511V24.064C62.6871 23.6747 63.0711 23.3627 63.5031 23.128C63.9405 22.888 64.4391 22.768 64.9991 22.768C65.4685 22.768 65.8925 22.856 66.2711 23.032C66.6498 23.208 66.9725 23.472 67.2391 23.824C67.5058 24.1707 67.7111 24.6027 67.8551 25.12C67.9991 25.632 68.0711 26.224 68.0711 26.896C68.0711 27.4933 67.9911 28.0507 67.8311 28.568C67.6711 29.08 67.4391 29.5253 67.1351 29.904C66.8365 30.2773 66.4685 30.5733 66.0311 30.792C65.5991 31.0053 65.1111 31.112 64.5671 31.112C64.0445 31.112 63.5991 31.0107 63.2311 30.808C62.8685 30.6053 62.5511 30.3227 62.2791 29.96L62.2071 30.696C62.1645 30.8987 62.0418 31 61.8391 31H60.9191ZM64.5351 23.904C64.0711 23.904 63.6631 24.0107 63.3111 24.224C62.9645 24.4373 62.6445 24.7387 62.3511 25.128V29.048C62.6071 29.4 62.8898 29.648 63.1991 29.792C63.5138 29.936 63.8631 30.008 64.2471 30.008C65.0045 30.008 65.5858 29.7387 65.9911 29.2C66.3965 28.6613 66.5991 27.8933 66.5991 26.896C66.5991 26.368 66.5511 25.9147 66.4551 25.536C66.3645 25.1573 66.2311 24.848 66.0551 24.608C65.8791 24.3627 65.6631 24.184 65.4071 24.072C65.1511 23.96 64.8605 23.904 64.5351 23.904ZM73.0886 22.768C73.6806 22.768 74.214 22.8667 74.6886 23.064C75.1686 23.2613 75.574 23.5413 75.9046 23.904C76.2406 24.2667 76.4966 24.7067 76.6726 25.224C76.854 25.736 76.9446 26.3093 76.9446 26.944C76.9446 27.584 76.854 28.16 76.6726 28.672C76.4966 29.184 76.2406 29.6213 75.9046 29.984C75.574 30.3467 75.1686 30.6267 74.6886 30.824C74.214 31.016 73.6806 31.112 73.0886 31.112C72.4966 31.112 71.9606 31.016 71.4806 30.824C71.006 30.6267 70.6006 30.3467 70.2646 29.984C69.9286 29.6213 69.67 29.184 69.4886 28.672C69.3073 28.16 69.2166 27.584 69.2166 26.944C69.2166 26.3093 69.3073 25.736 69.4886 25.224C69.67 24.7067 69.9286 24.2667 70.2646 23.904C70.6006 23.5413 71.006 23.2613 71.4806 23.064C71.9606 22.8667 72.4966 22.768 73.0886 22.768ZM73.0886 30C73.8886 30 74.486 29.7333 74.8806 29.2C75.2753 28.6613 75.4726 27.912 75.4726 26.952C75.4726 25.9867 75.2753 25.2347 74.8806 24.696C74.486 24.1573 73.8886 23.888 73.0886 23.888C72.6833 23.888 72.3313 23.9573 72.0326 24.096C71.734 24.2347 71.4833 24.4347 71.2806 24.696C71.0833 24.9573 70.934 25.28 70.8326 25.664C70.7366 26.0427 70.6886 26.472 70.6886 26.952C70.6886 27.432 70.7366 27.8613 70.8326 28.24C70.934 28.6187 71.0833 28.9387 71.2806 29.2C71.4833 29.456 71.734 29.6533 72.0326 29.792C72.3313 29.9307 72.6833 30 73.0886 30ZM83.3393 24.232C83.2753 24.3493 83.1766 24.408 83.0433 24.408C82.9633 24.408 82.8726 24.3787 82.7713 24.32C82.6699 24.2613 82.5446 24.1973 82.3953 24.128C82.2513 24.0533 82.0779 23.9867 81.8753 23.928C81.6726 23.864 81.4326 23.832 81.1553 23.832C80.9153 23.832 80.6993 23.864 80.5073 23.928C80.3153 23.9867 80.1499 24.0693 80.0113 24.176C79.8779 24.2827 79.7739 24.408 79.6993 24.552C79.6299 24.6907 79.5953 24.8427 79.5953 25.008C79.5953 25.216 79.6539 25.3893 79.7713 25.528C79.8939 25.6667 80.0539 25.7867 80.2513 25.888C80.4486 25.9893 80.6726 26.08 80.9233 26.16C81.1739 26.2347 81.4299 26.3173 81.6913 26.408C81.9579 26.4933 82.2166 26.5893 82.4673 26.696C82.7179 26.8027 82.9419 26.936 83.1393 27.096C83.3366 27.256 83.4939 27.4533 83.6113 27.688C83.7339 27.9173 83.7953 28.1947 83.7953 28.52C83.7953 28.8933 83.7286 29.24 83.5953 29.56C83.4619 29.8747 83.2646 30.1493 83.0033 30.384C82.7419 30.6133 82.4219 30.7947 82.0433 30.928C81.6646 31.0613 81.2273 31.128 80.7313 31.128C80.1659 31.128 79.6539 31.0373 79.1953 30.856C78.7366 30.6693 78.3473 30.432 78.0273 30.144L78.3633 29.6C78.4059 29.5307 78.4566 29.4773 78.5153 29.44C78.5739 29.4027 78.6513 29.384 78.7473 29.384C78.8433 29.384 78.9446 29.4213 79.0513 29.496C79.1579 29.5707 79.2859 29.6533 79.4353 29.744C79.5899 29.8347 79.7739 29.9173 79.9873 29.992C80.2059 30.0667 80.4779 30.104 80.8033 30.104C81.0806 30.104 81.3233 30.0693 81.5312 30C81.7393 29.9253 81.9126 29.8267 82.0512 29.704C82.1899 29.5813 82.2913 29.44 82.3553 29.28C82.4246 29.12 82.4593 28.9493 82.4593 28.768C82.4593 28.544 82.3979 28.36 82.2753 28.216C82.1579 28.0667 82.0006 27.9413 81.8033 27.84C81.6059 27.7333 81.3793 27.6427 81.1233 27.568C80.8726 27.488 80.6139 27.4053 80.3473 27.32C80.0859 27.2347 79.8273 27.1387 79.5713 27.032C79.3206 26.92 79.0966 26.7813 78.8993 26.616C78.7019 26.4507 78.5419 26.248 78.4193 26.008C78.3019 25.7627 78.2433 25.4667 78.2433 25.12C78.2433 24.8107 78.3073 24.5147 78.4353 24.232C78.5633 23.944 78.7499 23.6933 78.9953 23.48C79.2406 23.2613 79.5419 23.088 79.8993 22.96C80.2566 22.832 80.6646 22.768 81.1233 22.768C81.6566 22.768 82.1339 22.8533 82.5553 23.024C82.9819 23.1893 83.3499 23.4187 83.6593 23.712L83.3393 24.232ZM85.6368 31V19.216H87.0608V23.984C87.4074 23.616 87.7914 23.3227 88.2128 23.104C88.6341 22.88 89.1194 22.768 89.6688 22.768C90.1114 22.768 90.5008 22.8427 90.8368 22.992C91.1781 23.136 91.4608 23.344 91.6848 23.616C91.9141 23.8827 92.0874 24.2053 92.2048 24.584C92.3221 24.9627 92.3808 25.3813 92.3808 25.84V31H90.9568V25.84C90.9568 25.2267 90.8154 24.752 90.5328 24.416C90.2554 24.0747 89.8288 23.904 89.2528 23.904C88.8314 23.904 88.4368 24.0053 88.0688 24.208C87.7061 24.4107 87.3701 24.6853 87.0608 25.032V31H85.6368ZM96.1114 19.216V31H94.6874V19.216H96.1114ZM100.205 22.896V31H98.7811V22.896H100.205ZM100.525 20.352C100.525 20.4907 100.496 20.6213 100.437 20.744C100.384 20.8613 100.309 20.968 100.213 21.064C100.122 21.1547 100.016 21.2267 99.8931 21.28C99.7705 21.3333 99.6398 21.36 99.5011 21.36C99.3625 21.36 99.2318 21.3333 99.1091 21.28C98.9918 21.2267 98.8851 21.1547 98.7891 21.064C98.6985 20.968 98.6265 20.8613 98.5731 20.744C98.5198 20.6213 98.4931 20.4907 98.4931 20.352C98.4931 20.2133 98.5198 20.0827 98.5731 19.96C98.6265 19.832 98.6985 19.7227 98.7891 19.632C98.8851 19.536 98.9918 19.4613 99.1091 19.408C99.2318 19.3547 99.3625 19.328 99.5011 19.328C99.6398 19.328 99.7705 19.3547 99.8931 19.408C100.016 19.4613 100.122 19.536 100.213 19.632C100.309 19.7227 100.384 19.832 100.437 19.96C100.496 20.0827 100.525 20.2133 100.525 20.352ZM105.443 22.76C105.795 22.76 106.123 22.8 106.427 22.88C106.736 22.9547 107.016 23.0667 107.267 23.216H109.467V23.744C109.467 23.92 109.355 24.032 109.131 24.08L108.211 24.208C108.392 24.5547 108.483 24.9413 108.483 25.368C108.483 25.7627 108.406 26.1227 108.251 26.448C108.102 26.768 107.891 27.0427 107.619 27.272C107.352 27.5013 107.032 27.6773 106.659 27.8C106.291 27.9227 105.886 27.984 105.443 27.984C105.064 27.984 104.707 27.9387 104.371 27.848C104.2 27.9547 104.07 28.0693 103.979 28.192C103.894 28.3147 103.851 28.4347 103.851 28.552C103.851 28.744 103.928 28.8907 104.083 28.992C104.238 29.088 104.443 29.1573 104.699 29.2C104.955 29.2427 105.246 29.2693 105.571 29.28C105.896 29.2907 106.227 29.3093 106.563 29.336C106.904 29.3573 107.238 29.3973 107.563 29.456C107.888 29.5147 108.179 29.6107 108.435 29.744C108.691 29.8773 108.896 30.0613 109.051 30.296C109.206 30.5307 109.283 30.8347 109.283 31.208C109.283 31.5547 109.195 31.8907 109.019 32.216C108.848 32.5413 108.6 32.8293 108.275 33.08C107.95 33.336 107.552 33.5387 107.083 33.688C106.614 33.8427 106.083 33.92 105.491 33.92C104.899 33.92 104.379 33.8613 103.931 33.744C103.488 33.6267 103.12 33.4693 102.827 33.272C102.534 33.0747 102.312 32.8453 102.163 32.584C102.019 32.328 101.947 32.0587 101.947 31.776C101.947 31.376 102.072 31.0373 102.323 30.76C102.579 30.4773 102.928 30.2533 103.371 30.088C103.142 29.9813 102.958 29.84 102.819 29.664C102.686 29.4827 102.619 29.2427 102.619 28.944C102.619 28.8267 102.64 28.7067 102.683 28.584C102.726 28.456 102.79 28.3307 102.875 28.208C102.966 28.0853 103.075 27.968 103.203 27.856C103.331 27.744 103.48 27.6453 103.651 27.56C103.251 27.336 102.936 27.04 102.707 26.672C102.483 26.2987 102.371 25.864 102.371 25.368C102.371 24.9733 102.446 24.616 102.595 24.296C102.75 23.9707 102.963 23.696 103.235 23.472C103.507 23.2427 103.83 23.0667 104.203 22.944C104.582 22.8213 104.995 22.76 105.443 22.76ZM107.971 31.44C107.971 31.2373 107.915 31.0747 107.803 30.952C107.691 30.8293 107.539 30.736 107.347 30.672C107.155 30.6027 106.934 30.552 106.683 30.52C106.432 30.488 106.168 30.4667 105.891 30.456C105.614 30.44 105.331 30.424 105.043 30.408C104.755 30.392 104.48 30.3627 104.219 30.32C103.915 30.464 103.667 30.64 103.475 30.848C103.288 31.056 103.195 31.304 103.195 31.592C103.195 31.7733 103.24 31.9413 103.331 32.096C103.427 32.256 103.571 32.392 103.763 32.504C103.955 32.6213 104.195 32.712 104.483 32.776C104.776 32.8453 105.12 32.88 105.515 32.88C105.899 32.88 106.243 32.8453 106.547 32.776C106.851 32.7067 107.107 32.608 107.315 32.48C107.528 32.352 107.691 32.2 107.803 32.024C107.915 31.848 107.971 31.6533 107.971 31.44ZM105.443 27.04C105.731 27.04 105.984 27 106.203 26.92C106.427 26.84 106.614 26.728 106.763 26.584C106.912 26.44 107.024 26.2693 107.099 26.072C107.174 25.8693 107.211 25.648 107.211 25.408C107.211 24.912 107.059 24.5173 106.755 24.224C106.456 23.9307 106.019 23.784 105.443 23.784C104.872 23.784 104.435 23.9307 104.131 24.224C103.832 24.5173 103.683 24.912 103.683 25.408C103.683 25.648 103.72 25.8693 103.795 26.072C103.875 26.2693 103.99 26.44 104.139 26.584C104.288 26.728 104.472 26.84 104.691 26.92C104.91 27 105.16 27.04 105.443 27.04ZM111.887 18.936C112.041 19.192 112.153 19.448 112.223 19.704C112.292 19.96 112.327 20.216 112.327 20.472C112.327 20.9573 112.207 21.4213 111.967 21.864C111.732 22.3013 111.404 22.704 110.983 23.072L110.543 22.8C110.5 22.7733 110.471 22.744 110.455 22.712C110.444 22.68 110.439 22.648 110.439 22.616C110.439 22.5413 110.465 22.4773 110.519 22.424C110.604 22.3227 110.687 22.2133 110.767 22.096C110.847 21.9733 110.919 21.848 110.983 21.72C111.047 21.5867 111.097 21.448 111.135 21.304C111.172 21.16 111.191 21.008 111.191 20.848C111.191 20.6773 111.164 20.5013 111.111 20.32C111.063 20.1387 110.977 19.9467 110.855 19.744C110.817 19.6853 110.799 19.6267 110.799 19.568C110.799 19.44 110.871 19.3467 111.015 19.288L111.887 18.936ZM115.861 22.896V31H114.437V22.896H115.861ZM116.181 20.352C116.181 20.4907 116.152 20.6213 116.093 20.744C116.04 20.8613 115.965 20.968 115.869 21.064C115.779 21.1547 115.672 21.2267 115.549 21.28C115.427 21.3333 115.296 21.36 115.157 21.36C115.019 21.36 114.888 21.3333 114.765 21.28C114.648 21.2267 114.541 21.1547 114.445 21.064C114.355 20.968 114.283 20.8613 114.229 20.744C114.176 20.6213 114.149 20.4907 114.149 20.352C114.149 20.2133 114.176 20.0827 114.229 19.96C114.283 19.832 114.355 19.7227 114.445 19.632C114.541 19.536 114.648 19.4613 114.765 19.408C114.888 19.3547 115.019 19.328 115.157 19.328C115.296 19.328 115.427 19.3547 115.549 19.408C115.672 19.4613 115.779 19.536 115.869 19.632C115.965 19.7227 116.04 19.832 116.093 19.96C116.152 20.0827 116.181 20.2133 116.181 20.352Z" fill="#EC681F"/>
</svg>
